<svg id="Layer_1" data-name="Layer 1" xmlns="http://www.w3.org/2000/svg" viewBox="0 0 1024 576"><defs><style>.cls-1{fill:#0f1b33;}</style></defs><path class="cls-1" d="M1024,232.86a19.93,19.93,0,0,0-5,.5c-3.57,1-4.64,3.38-4.57,6.24a14.15,14.15,0,0,1-1.49,7,4.85,4.85,0,0,0-.69-2.44.33.33,0,0,0-.45-.08c-2.19,1.48-3.36,3.68-4.67,5.78a10.82,10.82,0,0,0,1-6c0-.29-.51-.4-.78-.23-3.77,2.49-5.32,7.08-7.07,10.63-.48,1-1.09,2-1.62,3.12l-.61-.67c.09-.37.15-.74.21-1.12s.2-.54.32-.79c1.55-3.41,4.95-6.88,4.88-10.57a.24.24,0,0,0-.3-.21,9.58,9.58,0,0,0-4.91,3.06c0-.22-.06-.46-.11-.68-.31-1.5-1.61-3.28-1.63-4.75a.17.17,0,0,0-.17-.16c-3.28.09-2,5.08-2.09,6.66,0,1-.09,1.89-.18,2.83a30,30,0,0,0-3.67-4.92.28.28,0,0,0-.45.12,9.21,9.21,0,0,0,.14,4.54,8.91,8.91,0,0,0-1.38-1.28c-.36-.26-1.1-.2-1.1.29a36.35,36.35,0,0,0,.24,4,6.9,6.9,0,0,0-.63.42,6.37,6.37,0,0,0-2.87-3.41c-.31-.16-.86-.09-1,.24-.56,2.07.76,4.13.64,6.22l-.22.25-.59.21c-.31-2.79-2.25-5.29-4.77-7.14a.13.13,0,0,0-.2.11c.21,2,1,4.17,1.12,6.27a31.78,31.78,0,0,0-4.27-7,.26.26,0,0,0-.44.17c.06.67.15,1.33.24,2a8.72,8.72,0,0,0-.92-.9,1.45,1.45,0,0,0-1.2-.35c-.25.06-.6.07-.73.29-.59,1,.06,1.53.48,2.51a9.39,9.39,0,0,1,.54,1.71,9.31,9.31,0,0,0-4.6-2.16c-.14,0-.26.09-.16.19a15.86,15.86,0,0,1,4.29,7.92c0,.16,0,.33.06.49h0a10,10,0,0,0-5-5.78c-.78-.36-2.17.08-1.84.95.63,1.67,1.5,3.18,2.21,4.74-1.74-2-3.19-4.15-4.76-6.15-.11-.15-.42-.1-.38.09a29.25,29.25,0,0,0,.95,3.41,15.62,15.62,0,0,0-1.61-1c-1-.51-2.26.14-2.2,1-.39-.59-.77-1.17-1.18-1.75-.16-.24-.63-.14-.57.15a22.16,22.16,0,0,0,1.65,5.14c-1-1.36-1.89-2.77-2.93-4.12a.65.65,0,0,0-1.14.17,8.84,8.84,0,0,0,1.52,6.95q-2.29-2.34-4.69-4.64c-.23-.21-.77-.05-.66.25a54.19,54.19,0,0,0,2.25,5.07,15,15,0,0,0-7.43-2.31c-1.28,0-2.38,1.57-.95,2.17a40,40,0,0,1,4.65,2.24,10.1,10.1,0,0,0-6.86.06c-.6.25-.51.89.06,1.1,1.2.43,2.39.82,3.53,1.25a12.92,12.92,0,0,0-4.14.12c-.28.05-.37.43,0,.5a12.56,12.56,0,0,1,8.84,7.32,26.69,26.69,0,0,1-6.69-3.5c-.47-.38-1.27-.11-1.18.46.54,3.34,4.47,4.57,7.49,6.36a9.63,9.63,0,0,1,1.56,1.14c0,.15.09.31.14.47-1.33,1-2.52,1.89-4.73,1.67-2.74-.29-3.56-2.08-5.26-3.44a.41.41,0,0,0-.61.09,3,3,0,0,0-.08,3.05,7.87,7.87,0,0,0-4.41-.24,5.35,5.35,0,0,0-4.23,3.85,8.17,8.17,0,0,0-6.4,2.67c-1.85,2.19-1.68,4.78-.62,7.13-3.47.29-6.58,1.85-7.89,4.84a6.66,6.66,0,0,0,.31,5.88c.69,1.28,2.17,2.43,3.39,3.65-3.1-.56-6.47.1-8.59,2.4-2.68,2.88-1.69,6.49,1,8.85-4.09,2.07-6.87,6.15-5,10a5.81,5.81,0,0,0,4.09,3.1,6,6,0,0,0-.39,1.22c-.48,2.32,1.33,3.71,3.52,4.86-3,1.76-4.95,4.74-3.22,7.82,1.59,2.83,5.22,3.82,8.48,3.05a3.47,3.47,0,0,0,3,2.54c3.6.77,6.22-2,8.36-4a14.1,14.1,0,0,1,1.73,2q2.07,2.37-.48,5.13c-.69-.55-2.26-.4-2.23.58s-.21,5.34-2.27,4.13c-.43-.25-.55-1.45-.89-1.85a3.51,3.51,0,0,0-2.63-1.52c-3.34-.38-4.59,2.66-5.23,4.65a.71.71,0,0,0,.35.87c.44.2.86.42,1.28.64-2.31,2.69-5.91,6.59-.77,8.64.6.24,1.38,0,2,.1,4.76,1.08,3.37,1.92,5.32,4.28a7,7,0,0,0,.86.86,1.4,1.4,0,0,0-.71,1.4,2.22,2.22,0,0,0,.3,1,5.27,5.27,0,0,1-1.7,2.62,7.4,7.4,0,0,0-4.46-2.53c-.57-.13-1.34.05-1.5.58a9.89,9.89,0,0,1-1.83,3.77,1.31,1.31,0,0,0-1.14-.62,7.66,7.66,0,0,0-5.06,1.37,1,1,0,0,0-.18,1.59,3.33,3.33,0,0,1-4.32.84,20.57,20.57,0,0,0-3.18-.81c-.61-.13-1.27.24-1.14.79a18.52,18.52,0,0,0,1.08,3.2,12.33,12.33,0,0,0-3.23,1.1c-3.93,1.84-8,2.47-11.16-.23a9.38,9.38,0,0,0,1.14-2.77c.11-.58-.89-1-1.4-.58a24.57,24.57,0,0,0-4.41,5.07,8.83,8.83,0,0,0-.43-.8c.26-.4.5-.79.72-1.16,1.81-3.05,1.94-5.7,1.61-9,0-.14-.26-.1-.29,0a26.77,26.77,0,0,1-3.5,7.67,25.76,25.76,0,0,0-1.36-9.58c-.3-.9-2-.68-1.78.26a22.19,22.19,0,0,1,.61,7.25l-.07-.08-.74-.81c.38-3.73-1.53-7.74-3.62-10.84-.22-.33-.76-.1-.63.23a14.82,14.82,0,0,1,1,4.05h0c0-.1-.25-.05-.22.06a15.57,15.57,0,0,1,.37,1.72c0,.51,0,1,0,1.53-.94-.87-3.52-2.56-3.27-3.86,0-.13-.21-.16-.26,0-.83,1.77.28,3.69,1.51,5.38l-.68-.35-.3-.18a19.59,19.59,0,0,0-5.62-8.06c-.24-.21-.71,0-.54.27a27.18,27.18,0,0,1,2.77,5.76c-1.48-.92-3-1.83-4.53-2.64-.56-.3-1.12.25-.76.67a31.83,31.83,0,0,0,6,5.24c.11,1.21.05,2.43.05,3.64-.92-4.77-7.09-8.94-12-10.83a.41.41,0,0,0-.44.7A27.65,27.65,0,0,1,869,390c.26.35.5.71.73,1.08-.51-.24-1-.45-1.57-.64-.66-.36-1.33-.69-2-1a27,27,0,0,0-7.75-2.59.44.44,0,0,0-.35.8c2.23,1.44,4.64,2.66,6.92,4.06.83.51,1.65,1.12,2.5,1.68a8.59,8.59,0,0,0-1.49.2c-2.8-1.58-6.82-1.83-9.84-3-.25-.1-.44.22-.22.34,1.51.8,3.52,1.5,5.36,2.33a2.27,2.27,0,0,0-.47.18,13.39,13.39,0,0,0-1.69,1.12,18.24,18.24,0,0,0-4.79-3.58c-.33-.17-.83.12-.62.43a19.21,19.21,0,0,0,1.34,1.81,15.4,15.4,0,0,1,.48,1.5h-.26c-.38,0-.47.41-.13.52.18.07.37.11.55.17a12.81,12.81,0,0,1,.29,2.76l0,.06a26.07,26.07,0,0,1-3.28-3.48,7,7,0,0,0-1.83-2.77c-.23-.42-.45-.84-.65-1.28,0-.09-.22,0-.2.05s.13.43.19.65a9.37,9.37,0,0,0-1-.68c-.13-.08-.3.07-.19.17a7.25,7.25,0,0,1,1.79,2.33c0,.12.1.25.16.37a5.7,5.7,0,0,1-.38,4.44,20.91,20.91,0,0,1-3.85-4.88h0a14.54,14.54,0,0,0-.56-7.34.92.92,0,0,0-1.38-.26c-2.64,2.69-3.79,5.95-4.55,9.34a11.09,11.09,0,0,0-2.09-2.88c-.17-.18-.5,0-.47.17.23,1.25.5,2.47.72,3.7a6,6,0,0,0-7.08-2.88c-.28.07-.11.41.16.38a5,5,0,0,1,5.3,3.93,6.34,6.34,0,0,1,.07.75c-2.76-1.69-5.5-3.4-8.27-5.07-.1-.06-.21.05-.14.13a53.07,53.07,0,0,0,8.12,7,25.53,25.53,0,0,1-.86,2.46,17.1,17.1,0,0,1-2.36-3.63,8.14,8.14,0,0,0-4.36-4c-.18-.08-.34.1-.18.21,1.94,1.29,2.74,4.46,4.07,7l-.44-.07-.14-.23a9,9,0,0,0-1.52-3.71.74.74,0,0,0-1-.08,8.42,8.42,0,0,0-.91.87,12,12,0,0,0-3.09-1,4.87,4.87,0,0,0,0-.54c0-1.92-3.12-2.34-4.26-.83a17.3,17.3,0,0,0-2,3.49c-.82.21-1.63.44-2.42.68-.18,0-.08.26.09.24.69-.08,1.37-.14,2-.19-.17.43-.33.86-.49,1.3a24.64,24.64,0,0,0-3.12.64c-.08-.52-.16-1-.27-1.56-.23-1.16-1.13-6-2.88-6.5l-.68-.2a1.88,1.88,0,0,0-2.15,1.06,6.06,6.06,0,0,0-.5,2.35,32.44,32.44,0,0,0-2.73-5.43,1.1,1.1,0,0,0-1.8.24c-2.48,7.58,2.71,15.13.41,23.12a21.53,21.53,0,0,1-1.16,3c0-4.5-.24-10.35-3-13.69a1.25,1.25,0,0,0-1.89,0c-3.12,3.57-1.75,8.62-1.6,12.77-.56-1.32-1.09-2.61-1.46-3.79-4.17-13.46,7.22-22.21,10.69-34.31.14-.51-.63-1.06-1.2-.7a37.59,37.59,0,0,0-15.59,20.52,54.6,54.6,0,0,0,1.43-5.8c.11-.66-.66-1.15-1.42-.82-5.58,2.43-7.43,7.64-7.67,12.86-.35-1.62-.58-3.26-.84-4.93a18.15,18.15,0,0,1,2.1-4.14c3-4.5,9-10.16,8-15.52a.28.28,0,0,0-.35-.2c-6.68,2-11.93,11.05-14.86,15.87a16.66,16.66,0,0,0-1.21,2.47c-1.34-2.33-2.61-4.69-3.71-7.13-3.57-8-4.77-16.5-8.25-24.44-.48-1.1-2.9-1.32-3.11.07-1.69,11.16,3.42,23.62,8.94,33.93a43.38,43.38,0,0,1-6.48-11.81c-1.83-4.85-3.38-9.27-7.64-13.06-1.44-1.28-4.24.2-3.54,1.79,4.1,9.27,6,20,13.29,28a80.54,80.54,0,0,0,7.13,6.64c-1.33-.5-2.66-1-4-1.51-5.73-2.2-9.61-5.25-14-8.86a.82.82,0,0,0-1.24.3c-1.56,5.41,3.79,9.29,9.09,11.94a19.52,19.52,0,0,0,.44,2.38,22.68,22.68,0,0,0-5.07-3.32c-.61-.28-1.58.12-1.48.73.57,3.61,3.1,5.71,4.68,9a11.93,11.93,0,0,1,1.23,4.09c-.42.27-.84.54-1.25.82.67-5.17-3.79-10.88-7.55-14.59-.68-.68-2.39-.65-2.61.26a5.79,5.79,0,0,1-.64-.69c-.32-.4-.32-1-.64-1.41-1.46-1.9-4.54-2-6.84-1.09a17.88,17.88,0,0,0-4,2.63c-2.21,1.59-4.59,2.07-7.15,3.08-3.73,1.47-6.08,5.63-10.2,6.29a6,6,0,0,1,.21-1.25.53.53,0,0,0,.47-.27,1.68,1.68,0,0,0,.14-1.1c2.19-3.38,8.23-3.94,12.56-5.45,2.38-.83,4.25-2.92,1.92-4.7s-5.78-.51-8.4,1c.07-.18.13-.36.19-.56.31-1.14.06-2,.65-3.2.24-.48.83-.89,1-1.42.58-2.57-3.74-2.87-5.78-2a5.14,5.14,0,0,0-3.07,3.19c-.64,2,.93,4.55-.49,6.18-.52-1.82-2.91-3.3-5.35-3a5.17,5.17,0,0,0-3.66,2.13c-1.17,1.82,0,3.15.81,4.87,1.14,2.5,1.75,6.57.5,9.36a45,45,0,0,1-3.94-2.7c-.66-.5-1.21-1-1.72-1.4-.3-.37-.61-.74-.92-1.1-1.26-1.51-1.46-2.68-2.15-4.32-1.11-2.66-4.37-3.44-7.14-2.55.73-1.83,1.7-3.82.39-5.5-1.11-1.44-3-1.54-4.78-1.26,1.51-2.61,2.52-6.19-1.41-7.61-3.38-1.21-5.8,1.48-6.15,3.92-3.4,0-6.51,2.27-2.84,4.52a13.14,13.14,0,0,1,1.91,1c1.07.95,1,2.08,1.28,3.19a9.28,9.28,0,0,0,1.46,2.71c1,1.6.71,2.63-.09,4.06a2.74,2.74,0,0,0,.12,2.7c.78,1.75,2.86,3.35,1.61,5.36-.06,1.44-1.16,1.73-3.28.85l-.95-.63a14.62,14.62,0,0,1-2.84-1.89c-.42-.76.19-1.22.32-2.11a4,4,0,0,0-.63-2.78c-2-3-7.39-2.47-8.76.51-2.22-.43-5.34-.43-5.39,2-.06,2.83,5.87,4.56,8.69,5.65a.83.83,0,0,0,0,.15,3.08,3.08,0,0,0-.27-.24.11.11,0,0,0-.15,0c-1.22,1.14-1.27,2.71-1.13,4.33a5.11,5.11,0,0,0-1.41-1.41c-1.14-.75-2.82-.66-4.43-.41a9.54,9.54,0,0,0-1.69-2.66c-1-1.19-1.33-2.76-2.43-3.82a2.68,2.68,0,0,0,.85-.3,3,3,0,0,0,.93-1.95c.37-1.84.4-3.22,1.38-5,1.16-2.08,2.56-3.92,2.88-6.24,0-.36.09-.72.11-1.08l.11,0c1-.48,1-.88,1.53-1.66,1.8-2.84,6.19-4.44,7.19-7.62,1.21-3.87-3.25-6.39-7.54-6.42a31.88,31.88,0,0,0,0-6c0-1.2,0-2.39-.11-3.58a6.33,6.33,0,0,0,2.68-2.25,7.92,7.92,0,0,0,.68-2.64c.3-1.58,1.31-2.63,2-4.07a4.21,4.21,0,0,0-.76-4.48,7,7,0,0,0-6.5-2.11.24.24,0,0,1,0-.08,18.23,18.23,0,0,0,0-4.43,6.19,6.19,0,0,0-.41-3.09c-.89-1.5-2.78-1.37-4.6-1.43-2.15-.06-5-.19-6.25,1.6-1,1.41-.15,2.06.71,3.21s1.31,1-.2,1.48a11.07,11.07,0,0,1-3.26.15,3.58,3.58,0,0,0-2.4.56c-3.42,2.74,1.8,8.52,4.33,10.8a7.41,7.41,0,0,0-4,1.08c-2.75,1.78-2.64,4.3-2,6.85,1.11,4.25,2.42,8.46,4,12.64l1,2.61,0,.28c-.09.54-.14,1.09-.18,1.64-.21,1.64-.51,3.27-.78,4.91a17.34,17.34,0,0,1-3.08-5.59,15.83,15.83,0,0,1-.15-6.78c.36-2.6.54-6-3.11-7.16-3.43-1.07-8,1.16-9.22,3.82a3.52,3.52,0,0,0,.29,3.25c1.28,2.47,3.35,4.58,4.52,7.13a14.54,14.54,0,0,1,1.37,7.88c-.27,2.23-1,4.37-.81,6.63a15.19,15.19,0,0,0,.65,3.26,17.86,17.86,0,0,1-2.35,3.67c-.07-.24-.14-.48-.22-.72a3.57,3.57,0,0,0,.33-.75c0-.12-.12-.25-.26-.25a2.17,2.17,0,0,0-.36,0,18.09,18.09,0,0,1-.74-3.95,8.65,8.65,0,0,0,.84-4.95h0c.76-2.77,1.53-5.77-.11-7.84s-4.54-2.23-7-1.48a6.81,6.81,0,0,1-3.47.61c-.52-.08-1-.42-1.51-.47a5.14,5.14,0,0,0-1.12.05c-1.36.17-1.89.48-3.3,0-2.74-.85-6.3-2-7.9,1-.61,1.15-.21,1.84.33,2.88.41.8.65.19.56,1.34-.06.69-.2.74-.41.88a3.15,3.15,0,0,0,.25-1.31.11.11,0,0,0-.14-.1c-3,.57-5.95,4.32-7.55,6.31a7.7,7.7,0,0,0-.69,1c-.43-1.08-.83-2.17-1.15-3.28-1-3.66-1-7.43-2-11.06-.14-.5-1.19-.7-1.37-.1-1.47,4.81,0,10.49,1.69,15.24a17.75,17.75,0,0,1-2.06-5.45c-.49-2.2-.88-4.2-2.49-6-.55-.62-1.87-.09-1.67.63,1.19,4.24,1.3,9,4,12.85a32.44,32.44,0,0,0,2.69,3.21c-.55-.27-1.1-.54-1.65-.83a19.44,19.44,0,0,1-5.53-4.48.37.37,0,0,0-.56.08c-1,2.3,1.05,4.23,3.2,5.62a7.51,7.51,0,0,0,0,1.06,9,9,0,0,0-2-1.67c-.25-.15-.7,0-.7.26,0,1.6,1,2.63,1.46,4.13a4.79,4.79,0,0,1,.27,1.84l-.6.31c.64-2.24-.94-4.93-2.34-6.72-.29-.36-1.2-.4-1.2.17,0,2.64,1.57,4.79,0,7.34-.2.32-.4.61-.6.89a3.76,3.76,0,0,0,.15-1.08,14.41,14.41,0,0,0-2.23-7.11c.44-.51.86-1,1.27-1.55C599,419,602,415.29,601.5,412a1.23,1.23,0,0,0-1.6-.82c-3.95,1-6.66,4.65-9,7.19-2.7,2.89-5.51,5.55-9.73,7l-.27.09a22.12,22.12,0,0,0,6.42-6.48,20.68,20.68,0,0,0,3.32-10.17c.17-2.81.48-7-2-9.31a.92.92,0,0,0-1.23,0c-2.51,2-2.67,5.8-3.41,8.44-.94,3.4-2,6.85-4.53,9.75s-6,4.16-10,5.58a3.58,3.58,0,0,0-.09-.35,7.12,7.12,0,0,0-.45-1.18,23.94,23.94,0,0,0,3.62-4.93,19.3,19.3,0,0,0,2-9.14c0-.69,0-1.37-.07-2.05a4.32,4.32,0,0,0,.72-.11c3.68-1,7.07-4.61,7.75-7.65a9.53,9.53,0,0,0-3-9.13,2.79,2.79,0,0,0-3.8.74c-1.18,2.45.58,5-.47,7.36a6.68,6.68,0,0,1-1.91,2.08c0-.1,0-.2,0-.3a31.66,31.66,0,0,1-.27-4.35c0-1.61.56-3.28-.27-4.8a3.31,3.31,0,0,0-4.49-1.12c-3.06,2.1-2.82,6-2.75,9s.62,5.84.84,8.77a14.83,14.83,0,0,1-1.58,8.88,16.08,16.08,0,0,1-1.33,1.92,5.87,5.87,0,0,0-.63-.24c-1.23-.41-2.7.61-2.65,1.61a4.16,4.16,0,0,0,.51,1.68l-1.27,1.26a5.66,5.66,0,0,0-1.08-1.72,41.6,41.6,0,0,0,2.5-5.55C563.3,408,563,402,562.47,396c-.28-3.41-6.62-2.88-6.48.49.25,6,.51,12-2,17.71a65.79,65.79,0,0,1-3.27,6.2,24.61,24.61,0,0,1-.37-3.54c-.06-3.18,4.93-8.28.52-10.85a1.46,1.46,0,0,0-1.46,0c.67-.46-.26.18-.28.2a8.25,8.25,0,0,0-1,1,22.69,22.69,0,0,0-1.94,2.59,17.09,17.09,0,0,0-2.81,6.28c-.4,2.64.21,5.46.37,8.11a65.05,65.05,0,0,0,.24,6.82l-.14.22a27.74,27.74,0,0,0-1.71-4.83c-.25-.55-.52-1.11-.77-1.67.15-.42.29-.85.41-1.28,1.64-5.56.68-10.75-.67-16.18a3.6,3.6,0,0,0,2-.44c6.44-3.41,8-9.77,8.4-15.57.21-2.92.24-6,1.39-8.78,1.28-3.13,4.11-5.57,6.94-7.85a2.14,2.14,0,0,0,.11-3,1.91,1.91,0,0,0-.47-.42l-.1-.06a3.7,3.7,0,0,0-4.3.37,27.41,27.41,0,0,0-7.15,7.27,15.65,15.65,0,0,0-1.12,2.34c-1.32-1.06-2.81-2.09-3.31-3.57-.84-2.49,1.32-4.11,1.79-6.38a1.92,1.92,0,0,0-2.27-2c-4.39.72-6,5.24-5.27,8.45a10.41,10.41,0,0,0,3.51,5.43,11.37,11.37,0,0,0,4.38,2.87c-.05.35-.09.7-.12,1-.52,5.11.1,11.87-5.48,15.32a19,19,0,0,1,0-6.07c.41-2.54,2.53-5.78,1.5-8.26A2.07,2.07,0,0,0,539,387c-3,.83-4.12,4-4.85,6.27a20.36,20.36,0,0,0-.93,8c.3,3.7,1.61,7.26,2.36,10.89a15.41,15.41,0,0,0-1.48,5.49,11.55,11.55,0,0,0,.1,2.12l-1.33-.41c-1.65-3-3.46-6.18-2.73-9.48.77-3.48-5.71-4.29-6.63-.89-1.22,4.49.85,8.66,2.9,12.76,1.9,3.8,2.71,7.28,2.06,11.16-.58.54-1.19,1-1.83,1.55a11.76,11.76,0,0,0-2.44-2.82,15.59,15.59,0,0,0,.61-5.21c-.31-5.48-3.19-10.59-5.18-15.75a1.17,1.17,0,0,0,0-.32c0-2.69,3.17-4.16,5.38-5.84a12.48,12.48,0,0,0,4.26-5.6,11.68,11.68,0,0,0-2.35-12c-2.19-2.56-6.88.2-4.83,2.81a8.05,8.05,0,0,1-.55,10.7c-1.11,1.18-2.48,2.36-3.66,3.59a12.33,12.33,0,0,1,0-1.61c.14-2.73,1.71-5.45.62-8.17-.78-1.95-2.71-3.1-4.68-4.24.5-.93.6-2.12,1.18-2.91,1.19-1.65,2.55-2.91,3.21-4.8,1.18-3.42.28-6.87-2.07-9.82-2.23-2.78-7.15.18-5.13,3a6.27,6.27,0,0,1,1.11,4.76c-.31,1.9-1.82,3.27-2.77,5a7.87,7.87,0,0,0-.44.87,14,14,0,0,1-1.85-3c-.73-1.62-.75-3.35-1.73-4.89a1.45,1.45,0,0,0-2.2-.3c-3.72,4.44,1.14,11.36,5.35,14.41,1.27.93,3.21,1.55,4.3,2.61,1.24,1.23.42,3,.08,4.4a17.72,17.72,0,0,0,0,8.13c1.26,5.45,4.38,10.46,5.77,15.87a14.28,14.28,0,0,1,.21,6.38,2,2,0,0,0-.93,3,21.08,21.08,0,0,1-2.19,3.89,11.86,11.86,0,0,0-1.6-.48,27.24,27.24,0,0,0,.41-2.71c.65-6.54-1.16-12.69-4-18.76-.7-1.47-1.39-2.94-2.1-4.41.05-.07.1-.14.14-.21,3-4.74,4-12.78-2.12-16.32-1.88-1.09-5-.08-4.63,2,.27,1.55.78,2.95,1.1,4.37-1-1.52-2-3-3.16-4.46-.49-.62-1-1.21-1.54-1.79-.17-3,.31-5.91-.55-8.88a33.32,33.32,0,0,0-5-9.73c-1.29-1.85-4.92-.2-4,1.72,1.67,3.51,3.7,6.93,4.08,10.73a10.84,10.84,0,0,1,0,1.15c-.78-.6-1.57-1.19-2.38-1.76a22.92,22.92,0,0,1-5.19-4.62c-1.38-1.76-2.59-3.6-4-5.32-2.32-2.75-7.3.21-5.16,3,2.36,3,4,6.33,7.21,8.93,3.34,2.73,7.38,4.55,10.35,7.63a44.68,44.68,0,0,1,7.59,11.21c-1,1.42-2.16,2.75-3.26,4.08l-.06.08a26.36,26.36,0,0,1-2.2-3.76c-3.29-6.21-9.24-11.23-16.16-14.94-3.22-1.73-6.66,1.62-3.8,3.81,2.7,2.05,5.64,3.86,8.17,6a13.39,13.39,0,0,0-2.45.16c-1.65.27-3.14.86-4.74,1.24-1.92.44-2.87-.25-4.19-1.31a28.63,28.63,0,0,1-4.61-4.74c-1.21-1.54-1.83-3-4.28-3.3a2.56,2.56,0,0,0-2.53,1.1c-1.93,3,2.9,7.2,5.22,9.36s5.07,4.46,9,4.45c3.37,0,6.55-2.37,9.86-1.55,1.05.26,2.74,1.17,4.38,1.74.52.9,1,1.82,1.61,2.75a18.07,18.07,0,0,0,3.25,3.89,12.81,12.81,0,0,0-1.65,4.66c-.37-.21-.75-.41-1.13-.6-7-3.53-15.84-4.32-23.52-6.68a49.5,49.5,0,0,1-10.9-4.38,17.73,17.73,0,0,1-4.54-3.74c-1.25-1.5-1.57-3.17-2.49-4.78-1.17-2-5-2-5.52.43-.73,3.21,1.73,6.93,4.23,9.32a24.26,24.26,0,0,0,2.71,2.22l-.23.06c-2.79.8-5.46,2.5-8.5,1.59-3.58-1.07-5.52-4.18-7.28-6.7s-6.71-.22-5.29,2.27c3.12,5.49,8.11,11.78,16.78,10.36,3.49-.58,6.51-2.56,10.17-2.41,3,.12,5.87,1.37,8.88,1.32l.63.18a2.75,2.75,0,0,1-.16.42c-.53,1.11-2.31,1.66-3.52,2.09a95.65,95.65,0,0,0-10.47,4.2A48.63,48.63,0,0,1,442,430.58c-1.71.4-6.77.42-6.32,2.78.64,3.27,5.75,3.15,8.85,2.67a30.86,30.86,0,0,0,4.67-1.11,6.4,6.4,0,0,1-.31,1.65c-.49,1.35-1.48,2.52-1.86,3.91-.46,1.67,1.76,2.88,3.58,2.4,4.24-1.12,7.47-7.26,5.15-10.55l1.66-.78c5.34-2.52,14.86-4.41,16-9.78,3.24.82,6.5,1.62,9.71,2.57,5.82,1.73,10.56,5.34,12.69,10a43.16,43.16,0,0,0-6.2-4.44c-1.77-1.08-3.91,1.19-2.41,2.43,2.77,2.28,5.78,4.38,7.66,7.24a8.27,8.27,0,0,1,.49.89q-1.27-.39-2.58-.72c-1-.26-2-.53-2.89-.84a16.64,16.64,0,0,0-1.31-2.31c-3.19-4.74-9.21-7.3-15.21-9.15-4-1.24-6.77,3.6-2.75,5a38.82,38.82,0,0,1,7.15,3,2,2,0,0,0-.27,1.27c-1.16.07-2.32.09-3.48.1-1.69,0-6.42-.23-6.64,1.94-.44,4.52,10.72,4.39,16,3.16.74,1.91,1.27,3.88,2,5.77-2.09.58-2.55,3.16.07,3.92.51.15,1,.29,1.54.42a4.52,4.52,0,0,0-1.56.65c-.06,0,0,.11.06.11a8.55,8.55,0,0,1,4.85,1.42,14.6,14.6,0,0,0,1.67,1c-.94.61-1.77,1.32-2.7,1.94-1.31.87-2.33.6-3.8.14a31.28,31.28,0,0,1-5.57-2.43c-1.58-.87-2.66-1.81-4.71-1.4a1.77,1.77,0,0,0-1.51,1.55c-.24,2.87,5.27,4.81,8,5.85s5.81,2.09,8.83,1a13.71,13.71,0,0,0,3.58-2.33c0,2,1.07,4.43,2,6.68-3.16.36-6.31.78-9.41.89a46.13,46.13,0,0,1-10.31-.42A18.88,18.88,0,0,1,471.4,465c-1.6-.83-2.55-2-3.93-3-1.76-1.27-4.7-.17-4.12,1.84.78,2.7,4.24,4.92,7.18,6.1a26.75,26.75,0,0,0,3,1l-.15.11c-1.84,1.39-3.2,3.44-6,3.57-3.23.14-6-1.75-8.46-3.22s-5.31,1.66-3.17,3.21c4.73,3.41,11.23,6.94,17.38,3.46a8.24,8.24,0,0,0,.8-.5c-1.87,2.7-3,5.67-5.42,8.11-6,6-12.57-1.35-19.48-.39-9,1.24-12.52,8.1-14.26,14.67-3.6-3.89-7.33-7.56-7-13.29a.58.58,0,0,0-1-.34,7.89,7.89,0,0,0-.87,1.44,12.62,12.62,0,0,0-.83-2.24,44.18,44.18,0,0,0,8.25-2.28c8.46-3.67,15.2-12.85,8.08-19.85-.17-.16-.55,0-.42.2,2.6,4.39,1.74,8.6-1.09,12a15.78,15.78,0,0,0-.91-7.89c-.14-.39-.93-.29-.95.1-.38,5.37.18,11.63-7.91,13.18-2.57.49-5.15.49-7.7.81l-.13-.17a6.12,6.12,0,0,1-1-3,14.09,14.09,0,0,0,1.08-1.65c3.69.26,7.5.14,9.5-1.68s1.83-5.07,2.17-7.36c.56-3.82,1.37-7.7,1-11.55,0-.22-.44-.26-.54-.05a38.7,38.7,0,0,0-2.53,8.49c-.34,1.48-.38,3.3-1.05,4.72q.33,2.53-2.85,3.29a4.48,4.48,0,0,1-4.7,1.29H423a3.05,3.05,0,0,0-.49-1c.67-2,1.48-3.92,2.23-5.87a10.08,10.08,0,0,0,4.46-2.11c1.71-1.7,1.6-4.44.85-7.19a7.61,7.61,0,0,0,.64-.83c2.87-4.52-2.61-9-4.17-13.12-.06-.17-.35-.13-.43,0-2,3.31,2.74,7.42,2.76,10.54-.59-1.4-1.22-2.67-1.69-3.63s-2.61-.59-2.27.49a44.46,44.46,0,0,1,1.77,6,16.4,16.4,0,0,1-4.55,1.23,33.11,33.11,0,0,1-5.34.3c3.91-5.4,2-11.51-2.6-17.87-.21-.29-.74,0-.6.28,3,6.4,5.3,12.36.36,17.54a37,37,0,0,0-4.36.12c5.48-3.63,3.65-11.05.92-15.79-.28-.49-1.28-.32-1.17.25.83,4.27,2.95,11-2.6,13.79a7,7,0,0,1-1.21.47,8.53,8.53,0,0,0,1.69-4.77c.2-4.77-2.77-9.8-6.47-13.5a25.45,25.45,0,0,0,6.15-8.37c.13-.3-.34-.54-.59-.29-4.47,4.56-8.75,9-14.78,12.24-5.87,3.21-12.36,4.75-19.07,6.36a67.43,67.43,0,0,0-9,2.84c.7-1.09,1.45-2.16,2.24-3.21a22.16,22.16,0,0,1,11.45-5.06c4.73-.62,8.57-1.19,12.44-3.68,9.34-6,13.28-15.94,22.47-22.26.23-.16,0-.45-.28-.31a53.38,53.38,0,0,0-13.62,10.51c-4.26,4.66-8.22,10.24-15.43,12.16l-.72.15c1-1.12,1.88-2.38,2.67-3.31a56.33,56.33,0,0,0,6.16-8.29c0-.07-.08-.14-.15-.09a62.4,62.4,0,0,0-7,6.15c-1.86,1.83-3.82,5.27-6.55,6.22a.58.58,0,0,0-.25.21,38.44,38.44,0,0,0-5.72,1.08c4-4.35,8.1-8.61,11.14-13.32,4.35-3.06,11.07-3.44,13.84-8.07s.7-9.6-1.54-14c-.07-.12-.33-.08-.29.06.72,2.63,1.61,5.3,1.46,8-.3,5.26-3.67,7.57-9.16,9.55-.78.28-1.54.56-2.28.85.13-.28.29-.56.42-.85,4-9.09,2-18.82-1.37-27.78-.08-.21-.43-.1-.42.08.77,9.67,3.11,20.1-2.54,29.12-2.95,4.7-7,8.84-11,13-2.11-2.58-1.62-5.28-.39-8,8.8-3.59,9.69-14.35,7-20.95,0-.11-.27-.06-.25.06A20.42,20.42,0,0,1,374.06,422a15.45,15.45,0,0,1-1.73,2.79,12.18,12.18,0,0,0,1.18-3.69,8,8,0,0,0-1.18-5.06,16,16,0,0,0,.76-6.72c0-.42-.14-.84-.21-1.26.26-.05.48-.19.48-.45.08-4.36,4-8.17,2.66-12.52-1.39-4.53-5.46-8.93-7.7-13.26,0-.05-.13,0-.11,0,1.55,5,7.47,11.66,5.67,16.83a39.08,39.08,0,0,1-2.32,4.29,48,48,0,0,0-4.93-9.82c4.84-6.56-3.74-14.75-7.51-20.16,0-.05-.14,0-.11,0,1.86,3.44,3.63,6.93,5.38,10.4a9.12,9.12,0,0,1,1,6c-.08.47-.21.91-.33,1.35a147.59,147.59,0,0,0-13.2-15.92s-.11,0-.08,0a98.14,98.14,0,0,1,12.78,18.71l0,0v.05a.46.46,0,0,0,.21.34c3.06,5.8,6.92,12.71,5.81,19.06,0,.17-.08.33-.12.5a45,45,0,0,0-4.67-4.37c-.09-.08-.29,0-.22.11,1.18,2.16,3,4.36,4.2,6.67-1.45,4-4.23,8-6.91,11.8a9.94,9.94,0,0,0-.44-1.79,36.48,36.48,0,0,0-2.41-4.69c-1.77-3.49-1-5.84.27-9.33,1.09-3.09,1.54-6.05.42-9.2-1.56-4.38-5.78-7.14-9-10.7-.08-.09-.27,0-.21.1,1.81,3.4,4.94,6.38,6.41,9.86,1.83,4.33,0,7.49-1.34,11.41a5,5,0,0,1-1.42-2.72c-.23-1.93.68-3.79.14-5.73-.82-3-4.17-5.34-6.1-7.92-.1-.13-.38-.06-.39.08a6,6,0,0,0,1.47,4,18.22,18.22,0,0,1,2.2,3.25c.67,1.59.13,3,0,4.61a8.36,8.36,0,0,0,0,1.93c-1.12-.1-2.2-.23-3.21-.42a30.23,30.23,0,0,0-.48-5.09c-2.51-13.85-12.46-26-24.33-35.74,0,0-.06,0,0,0,11.86,10.59,21.45,22.85,22.12,37.51,0,.91,0,1.79,0,2.66a26.11,26.11,0,0,1-5.92-2.57c-.14-.08-.35,0-.28.17a9.87,9.87,0,0,0,6,4.43c-.74,5.83-3.21,10.93-5.72,16.73-2.17,5-.73,8.9.93,13.8,1.48,4.35.46,7.54-2.25,11.35a41.17,41.17,0,0,0-4.5-9.93c-.09-.16-.37-.1-.36.07a41.43,41.43,0,0,0,1.38,8.32,10,10,0,0,1-.61,7.5.51.51,0,0,0,.22.64,8.89,8.89,0,0,0-.29,1.66c-1.58-.45-3.24-.82-4.94-1.14a20.62,20.62,0,0,1,5.24-5.39c.17-.12.09-.4-.18-.37a10.48,10.48,0,0,0-6.61,2.89,10.92,10.92,0,0,0-1.2,1.36,28.38,28.38,0,0,1,2.09-11.66c4-10.52,9.66-20,8-30.94a.35.35,0,0,0,.15-.17c1-2.63.12-5.39.65-8.12.49-2.49,1.95-5,2-7.5.09-4.27-3.86-7.27-7.88-9.52-.13-.08-.34.06-.22.17,2.08,1.85,4.57,3.74,5.5,6.19,1.06,2.82-.34,5.06-1.2,7.76a29.65,29.65,0,0,0-1.06,4.18c-3.31-7.76-9.64-14.46-17.93-19.27-.07,0-.14,0-.08.09,10.18,6.82,16.22,16.9,16.94,27.58a24.28,24.28,0,0,1-.08,4.27,6.84,6.84,0,0,1-1.49-2c-.58-1.23-.72-2.59-1.27-3.83a16.2,16.2,0,0,0-5.1-6.21c-6-4.59-13.79-5.85-21.62-6.88-.13,0-.19.15-.06.18,9.33,2.52,20.48,5.31,23.89,13.65,1.1,2.7,1.76,7,5.1,8.38-1.31,5.94-4.28,11.54-6.76,17.28-.37-5.52,2-11.18-1.81-16.44-.05-.06-.16,0-.13.06,3.47,6.83-2.79,14.26,0,21.33-.31.89-.61,1.79-.86,2.69a26.31,26.31,0,0,0-.92,9.18c-1.57-.22-3.16-.45-4.75-.72a18.3,18.3,0,0,0,2.05-11.37c0-.18-.39-.25-.47-.05a75.66,75.66,0,0,1-4.2,9.1c-.84-5.54,1.1-11.26,2.73-16.59,2.72-8.87,4.86-18.93-1.66-27-.06-.07-.17,0-.12.07,7.75,10.87-.86,22.72-3.76,33.68a34.24,34.24,0,0,0-1,5.49c-2.19-2-2-5-2.46-7.62a20.54,20.54,0,0,0-1.34-4.58c2-5.29,2.13-11.45-4.7-14.48-.22-.1-.42.15-.29.3,2.61,2.75,4.48,5.78,3.91,9.35a8.23,8.23,0,0,1-.58,1.89,14.23,14.23,0,0,0-11.79-5.85c-.13,0-.15.14,0,.17a13.39,13.39,0,0,1,10.62,9,5.09,5.09,0,0,0,0,.78,31.55,31.55,0,0,0-4.91-.42c-1.6-.1-3.19-.28-4.76-.51a1.1,1.1,0,0,0-1.37-.48c-.15.06-.3.13-.45.18L293,440a6.26,6.26,0,0,0-2.82-3.39.32.32,0,0,0-.46.15,4.61,4.61,0,0,0,.08,2.52l-.58-.14c-.73-.2-1.46-.43-2.18-.66a5.81,5.81,0,0,1-.17-1.47,14.27,14.27,0,0,0-.17-3.39,9,9,0,0,0-3.73-5.52.09.09,0,0,0-.13.11A11.38,11.38,0,0,1,285,436.8c0,.29-.07.6-.1.91-4.29-1.58-8.39-3.52-12.87-4.72-.07,0-.16.05-.1.1a43.56,43.56,0,0,0,13.41,7.31,2.6,2.6,0,0,0,1.12.91.76.76,0,0,0,.9-.24c.86.26,1.72.51,2.59.73-1.65.76-3.28,1.55-4.9,2.35a20.55,20.55,0,0,0-9.49-7.08c-.79-.31-1.6.54-1.05,1.09,2.38,2.36,5.63,4.73,7.33,7.51l-1.49.67c-1.09,0-2.19.39-3.38.25s-2.57-.41-3.86-.66a9.84,9.84,0,0,0-3.67-.15,15.27,15.27,0,0,0-1.37-.79c-.28-.15-.59-.28-.9-.42,0-5.65-1.41-11.33-6.06-15.08-.17-.14-.52,0-.47.21a68.06,68.06,0,0,1,2.67,13.69,9.37,9.37,0,0,0-5.3.42c-.91-1.57-1.69-3.2-2.47-4.81A68.16,68.16,0,0,1,251,425.56a.33.33,0,0,0-.62,0c-1.48,4.77,3.57,26.67,12.92,25.93a26.1,26.1,0,0,1-2.15,8.43,41,41,0,0,1-4.89,3.18c-2.55,1.24-5,.15-7.16-1.16.08-.35.17-.7.26-1.05a23.6,23.6,0,0,0,3.87.85c2.55.31,4.84-.16,6.46-1.81a.6.6,0,0,0,0-.76c-.05-.07-.13-.23-.26-.27a1.23,1.23,0,0,0-.89,0,6.77,6.77,0,0,0,.75-7.9.53.53,0,0,0-.87.08c-.82,3.09.37,8.48-5.73,7.91l-.29,0c.2-.07.4-.14.58-.22,2.38-1.05,4.53-3.24,4.11-5.53-.07-.38-.73-.39-1-.11-1.19,1.45-2.13,2.88-3.7,3.77,1.94-1.84,3.78-5.24,2.92-7,0,0-.08,0-.11,0-2.47.86-2.62,4-4.21,5.57l-.29.26c.08-.29.15-.57.22-.85a11.29,11.29,0,0,0,.27-1.15c.17-.73.33-1.46.46-2.19,1.1-6.15,1.29-14.62-6.13-18.28-.19-.1-.46,0-.37.22,3.16,6.38,3.91,11.87,2.78,18.15a4.17,4.17,0,0,0-.84.89c-.58.83-.58,2.28-1.82,2.46a9.57,9.57,0,0,0,2.55-7.11.53.53,0,0,0-.93-.21c-1.74,2.24-1.59,5.44-4.36,7l-.29,0a8.05,8.05,0,0,0,2.27-5.17,4.56,4.56,0,0,0,.38-.59.13.13,0,0,0-.13-.19l-.2,0a12,12,0,0,0-.21-2.53c-.13-.7-1.3-.57-1.55,0a13.36,13.36,0,0,0-.72,3.32c-.51.25-1,.53-1.56.81l-.15.07c-.49-3-5.79-2.28-8.39-2.5a19.45,19.45,0,0,1-2.05-.29,9.15,9.15,0,0,0,4.24-3.7c2.29.17,4.65.05,6.21-1a.22.22,0,0,0,0-.38c-1.81-.74-4.13-.72-6.39-.74l1.05-.86c3.12-.48,5-3,7.45-4.38a.46.46,0,0,0-.28-.88c-3.17.07-4.52,2.81-7.46,3.32a7.8,7.8,0,0,1-1.86.08,5.71,5.71,0,0,0,3.65-1.37.15.15,0,0,0-.07-.23,6.06,6.06,0,0,0-2-.42c.67-.53,1.28-1.11,1.89-1.67,1.32-1.2,2.95-2.34,3.49-3.93.05-.14-.12-.32-.32-.27-3.5,1-4.95,4.55-8.38,5.53a5.89,5.89,0,0,1-1.57.21l-.16,0a13.65,13.65,0,0,0,2.79-.84c2.47-1.16,2.32-3.43.13-4.75a5.87,5.87,0,0,0-1.75-.69,5.67,5.67,0,0,1,1.38-1.91,13.66,13.66,0,0,1,4.21-2.64,5.23,5.23,0,0,0,2.41-1.31,1.51,1.51,0,0,0,.32-1.44c-.24-.76-.71-.55-.25-1.62.15-.34.47-.61.58-1,.37-1.16-.75-1.52-1.91-1.42a5.28,5.28,0,0,0-.1-.87l1-.18c1.17-.25,3-.91,3.08-2.08,0-.62-.33-.73-.88-1s-.54.24-1.37-.58c-.2-.19-.24-.5-.44-.71-.89-.93-2.51-.82-3.66-.25A9.1,9.1,0,0,0,233,415.1a15.25,15.25,0,0,1-3.52,1.95c-1.85.94-2.79,3.23-4.9,3.77a3.67,3.67,0,0,1,0-.67.26.26,0,0,0,.23-.16.82.82,0,0,0,0-.58c.91-1.88,4-2.45,6.19-3.44,1.19-.55,2-1.73.67-2.55s-3.06,0-4.32.9a2.68,2.68,0,0,0,0-.3,7.7,7.7,0,0,1,.12-1.71c.09-.26.37-.5.4-.79.12-1.37-2.17-1.32-3.17-.79a2.5,2.5,0,0,0-1.38,1.81c-.2,1,.8,2.34.18,3.26a2.75,2.75,0,0,0-2.79-1.35.53.53,0,0,0-.87-.36,16.14,16.14,0,0,0-3.7,6.11,2.27,2.27,0,0,1-.22-.32,7.54,7.54,0,0,0,.52-4c-.12-.56-1.22-.55-1.37,0s-.4,1.27-.63,1.92a3.36,3.36,0,0,0-3.19-.21c.25-1,.62-2.08-.18-2.9a2.56,2.56,0,0,0-2.59-.43c.6-1.44.88-3.36-1.28-3.92a2.33,2.33,0,0,0-3,2.34c-1.77.17-3.24,1.48-1.16,2.49a8.5,8.5,0,0,1,1.07.42c.62.45.66,1.05.89,1.61a5.14,5.14,0,0,0,1,1.35,1.8,1.8,0,0,1,.24,2.14,1.44,1.44,0,0,0,.26,1.4c.52.88,1.73,1.62,1.22,2.73,0,.4-.11.63-.42.72a.45.45,0,0,0-.36,0,3,3,0,0,1-.88-.15l-.54-.29-.59-.27a6.86,6.86,0,0,0-.07-.92c-.06-.28-.54-.3-.71-.08a3.54,3.54,0,0,0-.26.41c-.26-.38,0-.64,0-1.11a2.23,2.23,0,0,0-.52-1.43c-1.25-1.5-4.05-.95-4.55.68-1.19-.13-2.83,0-2.68,1.29.17,1.48,3.4,2.11,4.95,2.55a1.39,1.39,0,0,0,.1.9.61.61,0,0,0-1-.09c-.18.24-.36.51-.54.8a3.55,3.55,0,0,0-2.3,0,5.32,5.32,0,0,0-1.07-1.31c-.58-.58-.89-1.38-1.54-1.89a1.17,1.17,0,0,0,.42-.2,1.48,1.48,0,0,0,.35-1.06,7.36,7.36,0,0,1,.37-2.66,9.16,9.16,0,0,0,1.06-3.4,5.42,5.42,0,0,0,0-.57l0,0c.48-.29.48-.5.69-.93.74-1.57,2.92-2.62,3.22-4.33.36-2.08-2.16-3.19-4.4-3a17.3,17.3,0,0,0-.42-3.15c-.09-.63-.2-1.25-.31-1.87a3.08,3.08,0,0,0,1.24-1.3,4.23,4.23,0,0,0,.17-1.41,9.42,9.42,0,0,1,.74-2.23,2.25,2.25,0,0,0-.71-2.3,3.83,3.83,0,0,0-3.56-.81v0a9.22,9.22,0,0,0-.29-2.32,3.28,3.28,0,0,0-.43-1.6c-.57-.74-1.55-.59-2.51-.53-1.13.06-2.64.13-3.16,1.12-.41.79.07,1.09.6,1.65s.76.45,0,.78a5.92,5.92,0,0,1-1.7.24,1.8,1.8,0,0,0-1.21.4c-1.6,1.59,1.55,4.37,3,5.45a3.78,3.78,0,0,0-2,.75c-1.32,1.06-1.08,2.38-.55,3.68.89,2.18,1.87,4.32,3,6.43l.69,1.32a.76.76,0,0,0,0,.15,8.42,8.42,0,0,0,0,.87c0,.87,0,1.74-.06,2.61a9.77,9.77,0,0,1-2-2.79,8.49,8.49,0,0,1-.56-3.54c0-1.38-.14-3.18-2.13-3.6a4.28,4.28,0,0,0-4.56,2.43,1.89,1.89,0,0,0,.38,1.68c.85,1.23,2.08,2.25,2.87,3.53a7.87,7.87,0,0,1,1.28,4.06,17.06,17.06,0,0,0,.05,3.5c.53,2.53,2.59,4.63,3.2,7.15.55,2.25.22,4.64,1.78,6.67A12.46,12.46,0,0,0,191,437c.18.92.38,1.84.59,2.75a8.78,8.78,0,0,0-2.46-1.88,6.66,6.66,0,0,0-.83-1.64c-.75-1.08-1.61-2.11-2.38-3.19-1.06-1.48-.76-2.72-.82-4.32-.09-2.4-1.93-4.47-2.16-6.85-.18-1.76,1.08-4.7-.46-6.24a3.51,3.51,0,0,0-3.78-.45,3.37,3.37,0,0,1-1.77.48c-.28,0-.53-.17-.82-.17a2.27,2.27,0,0,0-.59.08,3.12,3.12,0,0,1-1.72.17,5.52,5.52,0,0,0-3.16-.09c0-1.07-.07-2.19-.14-3.39-.28-5.26.71-10.64-.22-15.84a.67.67,0,0,0-1-.35c-5.42,3.46-6.77,8.24-7.3,13.26a19.45,19.45,0,0,0-3-3,3.27,3.27,0,0,0-4.42.91c-2.24,3.64,1.36,8.58,5.25,10.53a5.82,5.82,0,0,0,1.2.44,16.6,16.6,0,0,1-3.9,6.56L156,422.92c-5.19-8.64-4.6-13.5-.08-21.78a21.86,21.86,0,0,0,3.85-3.06c1.89-1.85,4.58-4.41,3.81-7a1.61,1.61,0,0,0-1.74-1.13,6.24,6.24,0,0,0-2.29.4,12.15,12.15,0,0,0-.31-2c-.93-3.92-9.16-4.78-9.34-.16-.21,5.72-5,9.45-7.5,14.51a17.47,17.47,0,0,0-1.53,5,3.39,3.39,0,0,1-1.09-.82,2.87,2.87,0,0,0-.89-1.4c-.36-1.2,0-2.45.07-3.9.05-2.3-.17-4.54-2.23-6.24a2,2,0,0,0-3.05.3c-2,3-3.84,6.9-3.58,10.51-.57.19-1.14.37-1.74.52a18.11,18.11,0,0,0-5,1.64.34.34,0,0,0-.18.33c.42,2.22,3.54,3.37,6,3.63a14.47,14.47,0,0,0,4.28-.21c2.27,1.72,5.28,2.82,7.8,4.35,1.11,4.54,3.63,8.58,6,12.66a40.9,40.9,0,0,1-7,.57c.73-4.59-3.49-9.59-9.86-8.71a9.81,9.81,0,0,0-4.45,1.8,10.15,10.15,0,0,0-3-8.46.57.57,0,0,0-.67-.08c-2.88,1.9-3.71,4.5-4.63,7.3a14.43,14.43,0,0,1-4,6.6,5,5,0,0,0-.14-3.16c-.27-.65-1.13-2.33-2.35-2.08a8.64,8.64,0,0,0-3.06,1.3l-.15-.39a7.34,7.34,0,0,0,3.43-2.6,2,2,0,0,0-.6-2.78l3.25-.48c.87-.13,1.56-.84,1.17-1.58a11.38,11.38,0,0,1-1.34-4.77,8.06,8.06,0,0,0,1.26-.33c2.8-1,3.08-3.7.94-5.33a6.68,6.68,0,0,0-1.46-.83c.34-1.42.74-2.83,1.11-4.24.15-.25.29-.48.39-.66a2.7,2.7,0,0,0,.82.26c.06.27.11.55.16.83.14.74,1.46.9,1.93.29a2.33,2.33,0,0,0,.48-1.5,5.26,5.26,0,0,0,.58.45c.92.59,2.44,1.09,3.23.1a.37.37,0,0,0,0-.49,9.91,9.91,0,0,0-1.19-.88,9.34,9.34,0,0,1-1.08-1.1,17.32,17.32,0,0,0,2.48.85c.6.14,1.2-.28,1.06-.78a2.43,2.43,0,0,0-1.08-1.31,4.29,4.29,0,0,0,1.75-.11.48.48,0,0,0,.32-.4,1.35,1.35,0,0,0-.57-1c.31.07.63.17,1,.28,1.06.38,1.81-.83,1.16-1.45a3.73,3.73,0,0,0-1-.67,2.13,2.13,0,0,0,.09-2,1.38,1.38,0,0,0-1.4-.55,1,1,0,0,0-.86-1.23,5.67,5.67,0,0,0-3.36.2c-2.29.63-4.56.52-5.15-1.79a.6.6,0,0,0-.31-.34c.59-.17,1.2-.29,1.82-.43s1-1,.28-1.25a5.39,5.39,0,0,0-2.14-.37,2,2,0,0,0,.16-.57,5.36,5.36,0,0,0-.54-1.72,15,15,0,0,1,2.73,0c2.53.19,3,.66,3.31,2.36.19,1.14-.07,1.27.76,2.24a1.44,1.44,0,0,0,2.17-.38l.36-.42c.89.68,2.24.61,4,.47,1.43-.12,2.66-.24,3.37-1.42s-.45-1.88-.39-2.81c0-.15.51-1.34.59-1.74a.45.45,0,0,0,0-.11,6.88,6.88,0,0,0,.75,0c1.8,0,2.42-1,2.23-2a9.27,9.27,0,0,0,4.18-.62c1.23-.51.52-2-.78-1.79a11.92,11.92,0,0,1-4.22-.06,2.31,2.31,0,0,1,1.94-.75c1.49.18,1.56-1.51.42-1.93a4.54,4.54,0,0,0-4.45,1.09,6.89,6.89,0,0,0-.71.72,8.91,8.91,0,0,0-2.38-.49,6.87,6.87,0,0,0-1.56.11.84.84,0,0,0-.33-.07,13,13,0,0,1-1.78-.05l.35-.21c1.85-1.08,2.05-.86,4.05-.66,2.16.22,4.46-.32,5.07-2.1a.41.41,0,0,0,0-.11c.23-.08.47-.18.72-.29a1,1,0,0,0,.62-1.06l-.08-.48a.32.32,0,0,0-.31-.22,22.27,22.27,0,0,0-2.83,0A7.28,7.28,0,0,0,133.9,369c.74-1.21-1.32-2.38-2.24-1.17a7,7,0,0,1-3.27,2.34,3.43,3.43,0,0,1,1.64-2.59,16.9,16.9,0,0,1,3.61-1.32.49.49,0,0,0,.06-.91,5,5,0,0,0-2.55-.52l.5-.5c.9-.91-.85-2-1.88-1.31a19.92,19.92,0,0,0-2.25,1.87,4.32,4.32,0,0,1,2.45-3.75c1-.5.55-1.92-.73-1.66a5.52,5.52,0,0,0-1.85.74c.36-1.07.34-2.27-1.5-2.25a1,1,0,0,0-1,.56.49.49,0,0,0,.08.63c.28.3-.69,1.51-1,2a4,4,0,0,0-1.22-2.79c-.69-.7-2.35-.07-2,.82a5.42,5.42,0,0,1,.32,1.21,3.23,3.23,0,0,0-.94-.3c-.45-.08-1,0-1.39-.06-1.67-.33-1.38-1.47-.53-2.22.8.05,1.59-.67.9-1.25l-.42-.35a1.29,1.29,0,0,0-1-.28,3.7,3.7,0,0,0-5.34.52c-.34.42,0,.94-.23,1.34a5.13,5.13,0,0,1-1.94,1.57,15.94,15.94,0,0,1-.49-3.34,3,3,0,0,1,1.41-2.47,70.57,70.57,0,0,0,9.27,1.26,12.79,12.79,0,0,0,5.09,2.85c.67.16,1.32-.31,1.18-.87a4.81,4.81,0,0,0-.76-1.56c1.11.51,2.45,1,3,.81l.07,0c.28-.13.55-.45.43-.73a4.32,4.32,0,0,0-1.1-1.49,1.44,1.44,0,0,0,.73-.61,6.63,6.63,0,0,0,5.06,1.76c.49-.07.91-.55.75-.95a9,9,0,0,0-2.92-3.37,9.13,9.13,0,0,0,3.86-.41.65.65,0,0,0,.08-1.22,23.09,23.09,0,0,0-5-1.59,2.25,2.25,0,0,0,.95-.71.47.47,0,0,0,0-.58,4,4,0,0,0-2.64-1.14c1.15-.16,2.71-.29,2.82-1.16a1.33,1.33,0,0,0-.1-.73,5.46,5.46,0,0,0,2.32-.29.75.75,0,0,0,.44-1.08l-.09-.11a5,5,0,0,0,3.1-.71c2.89-1.72-.79-5.87-2-7.44s-2.21-3-3.15-4.63c-.11-.18-.21-.37-.31-.55a43.06,43.06,0,0,1,12,5.2c4.73,2.73,9.58-3.19,5-6-6.81-4.21-14.6-7.93-23.46-7.54l-1.2.08a2.09,2.09,0,0,0-.29-2.39,1.46,1.46,0,0,0-1.91-.3,6.87,6.87,0,0,0-.44-3.66,13.52,13.52,0,0,1,2.77-2.07,33.36,33.36,0,0,1,22,4.76c3.58,2.28,7,4.71,10.4,7.11-6.7,4.8-2.69,14.86-2.46,21.53,0,.69.05,1.37.08,2.06-6.22.18-12.55,7.45-11.15,12.12.61,2,3.86,3.2,5.87,1.6,1.68-1.32,2.62-3.05,4.17-4.45a13.26,13.26,0,0,1,2.08-1.44,24.66,24.66,0,0,0,1.72,5.07c1.5,3.17,4.91,7.95,9.94,6.23,3.61-1.23.1-5.88-.55-7.73A38.6,38.6,0,0,1,165,346.08a77,77,0,0,0-1.47-12.55c-.26-1.4-.72-3.43.45-4.69a6.2,6.2,0,0,1,.48-.43l.69.44c2,2.8,5.78,4.54,8.07,7.23,2.77,3.25,2.11,7.4,3.76,11,4.09,8.94,16.38,9.11,26.24,8.13,4.49-.44,4-6.58-.53-6.44-4.76.14-10.46.54-14.46-2-3.42-2.15-2.9-5.79-3.74-8.92a2.41,2.41,0,0,0-.08-.25,40.85,40.85,0,0,0,5,.93c5.1.61,12,.27,16-2.65,3-2.18.4-5.73-3.28-5.37-2.89.29-5.45,1.17-8.44,1.07a30.72,30.72,0,0,1-8.4-1.54c-5-1.61-9.49-4.29-13.76-6.93-8.68-5.39-16-12.91-25.83-16.89-.54-.21-1.08-.42-1.63-.61a22.17,22.17,0,0,0,5.35-4.78,36,36,0,0,0,7.73.25c1.7-.13,3.34-.29,5-.45,1.94,1.11,4.4,2,5.51,2.8,3.46,2.46,2.39,7,4.74,10.13,2.71,3.58,7.74,4.46,12.51,5.1s13.89,2.11,16.74-1.76a2.23,2.23,0,0,0-.23-3.1c-2.18-2-4.63-1.58-7.62-1.61a54.07,54.07,0,0,1-9.86-.91c-2.41-.46-4-.86-4.76-2.92-.6-1.73-.81-3.51-1.59-5.21a10.63,10.63,0,0,0-1.5-2.37c4.82.8,9.42,2.22,14.18,3.26,5.06,1.1,7.33-4.41,2.65-6.16-10-3.74-21.22-5.67-32.2-4.34a57.85,57.85,0,0,1-6.8.62l.06-.11c1.09-1.94,2.13-4,3.42-5.86a94,94,0,0,1,21-.89c6.38.57,11.76,3,17.92,4.15,5.86,1.09,11.61.32,17.54.34,5.39,0,6-6.63.57-6.82-3.43-.12-6.85.05-10.27,0A41.82,41.82,0,0,1,194,283.5c-1.37-.34-2.74-.66-4.12-.95.55-.29,1.09-.56,1.61-.78,5.58-2.32,11.8-2.85,17.87-3.78,3.32-.51,3.08-5-.4-4.89a73.81,73.81,0,0,0-17.15,2.2c-4.75,1.29-8.52,3.8-12.79,5.72-1.19-.08-2.38-.14-3.59-.15-2.82,0-5.64.05-8.45.23,2.21-.71,4.53-1.23,6.88-2.06,3.16-1.13,2.39-4.69-.44-5.65-9.25-3.14-19.79,3.41-24.31,9.49l-.2.28-4.63.71c.21-.79.42-1.55.64-2.28.13-.43-.7-.52-.84-.1-.28.84-.56,1.69-.83,2.53l-2,.31-1.22.19a11.63,11.63,0,0,0,.38-5.17,87.78,87.78,0,0,0,9.28-2.26,37.56,37.56,0,0,0,11.37-5.69c1.72-1.28,3.62-3.28,6.21-3,2.24.24,4.48,1.59,6.66,2.11,7.22,1.71,20.3,1.33,23.89-5.19.6-1.08-.79-1.9-1.95-1.82-2.85.19-5.28,1.37-8.05,1.85a31.51,31.51,0,0,1-5.51.41c.34-.34.64-.68.92-1,1.69-2.06,2.54-4.4,5-6a14.08,14.08,0,0,1,7.42-2.31c5.32-.11,6-6.69.56-6.78-5.77-.1-11.23,1.49-15.18,5-2.18,1.93-3,4.06-4.45,6.31-.71,1.08-2.3,2-3.25,3.11-3-1-5.94-2-9.21-1.31-4.57.91-7.27,4.25-11,6.29-.74.41-1.5.77-2.28,1.11.9-1.95,1.58-4,2.46-5.88,2.29-4.8,8.2-8.08,14.58-8,5.07.05,5.66-6.19.53-6.41A25.58,25.58,0,0,0,150,256.12a15.8,15.8,0,0,0-4.84,7.83c-.81,3.21-.67,7.1-4.41,9a2.85,2.85,0,0,0-.41.26c-6.57,1.37-13.47,2.24-19.87,4.17a4.57,4.57,0,0,0,.23-2.71c7-1,14-2.05,19.28-6.2,4.12-3.23-1.57-8.6-5.89-5.46-5.09,3.7-12.61,3.66-19,4.62-1.16.17-2.3.39-3.42.64a40.12,40.12,0,0,1,6.15-4.58c7.83-4.75,17.65-5.88,26.15-9.53a41.37,41.37,0,0,0,10.48-6.44c2.6-2.22,6.28-5.54,5.37-8.84a2.6,2.6,0,0,0-3-1.58c-4.19.79-7.23,5-10.49,7.17a42,42,0,0,1-8.52,4.21c.9-7.53,10.79-11.71,17.57-15.76.46-.27.92-.55,1.37-.84,1.85,1.28,4.69,1.64,7.09,2a21.72,21.72,0,0,0,10-.59c5-1.61,10.19-6.21,8.11-10.75-.63-1.39-3.1-1.58-4.34-.7-2.85,2-3.59,5.14-7.67,6.11-2.41.58-4.9-.06-7.31-.53a22.32,22.32,0,0,0,2.49-2.67c2.78-3.55,4.12-7.57,5.16-11.65.47-1.82-.25-3.48-2.5-4.21l-.15-.05a3.57,3.57,0,0,0-.92-.12c-1.66,0-3.72.78-4.13,2.2-1.2,4.19-2.63,8.5-6.11,11.87-3.11,3-7.37,5.19-11.3,7.43-7.82,4.45-15.63,10.31-15.89,18.62a2.91,2.91,0,0,0,.77,2.11c-8.54,2.56-16.47,5.32-23.1,10.72h0a.86.86,0,0,0-.78-.57,3.62,3.62,0,0,0-3.54,3.32,3.82,3.82,0,0,0,.11,1.17,39.39,39.39,0,0,0-6.31,8.71c-.15.1-.31.19-.46.3q-1.4.93-2.67,2a1.56,1.56,0,0,0-1.37.71,6.14,6.14,0,0,0-.37.72c-.49.43-1,.86-1.44,1.31-.07-.55-.12-1.09-.16-1.63l.06-.13c.39-1.21,2-1.59,3.22-2.15A6.67,6.67,0,0,0,96,273.49a5.37,5.37,0,0,0,.61-5.62c-.64-1.36-3.13-.53-2.57.82a3.91,3.91,0,0,1-1.72,4.77c-.66.43-1.44.83-2.14,1.28a6.61,6.61,0,0,1,.2-.73c.45-1.21,1.53-2.29,1.41-3.61a2.13,2.13,0,0,0-.17-.67c.77-1.16,1.62-2.31,2.53-3.51.26-.34.51-.69.77-1,3.39-1.23,6.52-3.13,9.7-4.56,3.81-1.71,8.18-3.13,11.61-5.35a27.61,27.61,0,0,0,6.81-7,29.19,29.19,0,0,0,2.26-3.6,9.16,9.16,0,0,0,.68-1.59s.25-1.33.08-.39c.1-.58-.46-1.11-1.07-1.31-6.7-2.25-10.32,5.9-14.82,8.08-1.61.78-3.37,1.47-5.19,2.14a95.77,95.77,0,0,1,6.37-7.35c6.15-6.32,14.84-10.34,23.33-14.28,4.8-2.24,1.11-8.42-3.86-6.29-8.75,3.75-17.44,7.69-24.16,13.69-6.34,5.66-11,12.45-15.89,19a82.68,82.68,0,0,0,5.09-8.81c2.05-4.37,3.4-9.12,6.58-13.08,2.77-3.46,6.89-5.74,11.31-7.67,4.25-1.86,8.69-3.38,12.84-5.38s9.82-4.53,10.62-8.8c.41-2.18-2.38-3.6-4.71-3.34-2.71.31-4.68,1.95-6.91,3.12-2,1-4.14,1.93-6.27,2.8l-.44.17a7.56,7.56,0,0,1,1.58-3.21c2.53-2.6,7.35-2.79,10-5.59a2.5,2.5,0,0,0-1.64-4,21,21,0,0,0-14.86,3.65c-3.77,2.76-6.45,8.39-5.27,12.47a3.32,3.32,0,0,0,.35.74c-1,.44-2,.89-2.91,1.37a36.71,36.71,0,0,0-11.4,8.23c-3,3.46-4.78,7.5-6.46,11.49a24.38,24.38,0,0,0-.34-3.79c-.83-4.8-1.72-8.8.74-13.41,2.31-4.32,6.37-7.74,10.45-11,3.18-2.52,8.39-5.34,9.43-9,.16-.57-.19-1-.9-1.11-4.91-.71-10.61,2.55-14.43,4.68a36.39,36.39,0,0,0-11.89,10.17,24.38,24.38,0,0,0-4.56,10.43c0-.11,0-.21-.07-.31-.9-4.89.83-9.34,3-13.85,1.9-4,5.13-9,3.72-13.31a1.71,1.71,0,0,0-2.26-.89c-5,1.86-8.12,7.28-10.42,11.11-2.6,4.34-4.73,8.95-5.07,13.81a21.82,21.82,0,0,0,3.76,13.51c2.27,3.41,6,5.95,8.29,9.31-1.77,7.62-6.5,14.64-8.61,22.24a11.79,11.79,0,0,1-.67-1.39c-.33-.8-.41-1.5-1.47-1.87a1.29,1.29,0,0,0-1.29.26c-1.29,1.18.31,3.5,1.06,4.68a7.82,7.82,0,0,0,1.59,1.95c-.14,1-.25,2-.31,3-.57-.27-1.14-.56-1.68-.86a20.06,20.06,0,0,1-4.3-3,7.11,7.11,0,0,1-1.53-2.1,11.54,11.54,0,0,1-.46-2.37,1.44,1.44,0,0,0-2.54-.31c-.77,1.38-.18,3.27.61,4.58a10.74,10.74,0,0,0,.92,1.24h-.11c-1.37.11-2.81.64-4-.05-1.46-.81-1.9-2.38-2.35-3.67s-3-.71-2.69.54c.65,2.75,2,6,6.12,6.18,1.65.06,3.28-.56,4.9-.16,1.35.33,2.46,1.14,3.82,1.39l.26.14-.13.18a3.18,3.18,0,0,1-1.87.62,47,47,0,0,0-5.3.94,24.14,24.14,0,0,1-5.25.81c-.73,0-2.62-.32-3.1.39l-.07-.08c-1-7.59.53-16.81,1.54-23.5,0-.12-.2-.14-.22,0A95.49,95.49,0,0,0,47,277.55c-.81-1-1.59-2-2.3-3-3.43-4.84-1.78-9.63-5.73-14.05-.11-.13-.38,0-.29.13,3,4.83-.05,10.24,2.7,15.1a19.18,19.18,0,0,0,3.15,3.77A29.12,29.12,0,0,1,47,282.45c.13,3,0,6.88,2.38,9.5a21,21,0,0,0,5.5,4.15c-2.23,4.06-5,7.61-5.69,11.47-1.37-1-2.08-3.32-1.69-7.78.2-2.24,1.67-3.56,1.28-6-1-6.17-7.09-12.25-11.4-17.09-.06-.07-.19,0-.13.08,2.72,3.65,6.1,8.07,7.72,12.21,1.7,4.36-.58,8.49-.66,12.55-.07,3.66.71,5.87,2.67,9.32a1.46,1.46,0,0,0,1.39.68l.82,0a11.9,11.9,0,0,0,.93,2.75c1.43,3,4.88,4.55,3.79,8.1a21.79,21.79,0,0,1-6.56-4.44A14.26,14.26,0,0,1,45,314.49c-.06-1.05-.15-2.21-.16-3.63A30.91,30.91,0,0,0,43.62,303c.3-3.64.71-7.35-.29-11-1.22-4.51-4.07-8.17-8-11.22a25.63,25.63,0,0,1-.09-14.48c.09-.3-.53-.45-.65-.15a23.71,23.71,0,0,0-1.32,13.15c-.6-.41-1.23-.81-1.87-1.2-.27-.16-.7.14-.44.35a31.06,31.06,0,0,1,2.62,2.43c1.15,5.21,3.53,10.33,5.81,15.72.15.35.28.69.42,1,0,1-.12,2.08-.26,3.16s-.25,1.87-.39,2.78c-1.08-1-2.92-2.21-2.31-1.33-2.51-3.63-2-7.27-2.59-11-.47-2.77-.6-4.87-2.39-7.22-.61-4.55-3.75-8.22-6.3-11.9,1.67-4.21,2.82-8.55,4.73-12.71s4.89-8,6.16-12.19c0-.12-.16-.16-.25-.09-3.91,3.27-6,8.13-8,12.3a58.47,58.47,0,0,0-4.12,10.4c-2.48-4.26-3.35-8.79,2-15,.11-.13-.1-.25-.22-.14-3.88,3.19-8.44,7.65-7.06,12.56.55,2,1.65,2.8,3,4.33,2.86,3.15,4.88,5.95,6,8.82-4.58-2.85-10.67-3.8-16.44-3.67a.75.75,0,0,0-.66,1.25,54.12,54.12,0,0,1-5.57-1.16,20.44,20.44,0,0,1-5.38-2.52v3.92c7.66,3.59,14.31,5,14.49,13.9a41,41,0,0,0,.12,5.9c-1.23.44-2.44.92-3.63,1.48a10.11,10.11,0,0,0,0-5.77,1.12,1.12,0,0,0-1.25-.81l-.33.05a.72.72,0,0,1-.05-.21,1.48,1.48,0,0,0-.37-.21.51.51,0,0,0,.37-.27c0-.24.24-.35.17-.62-.31-1.22-3.41-1.26-2.65-2.9a.61.61,0,0,0-.59-.82l-.75-.07a.73.73,0,0,0-.82.51c.11-.93-2.06-.86-2.86-.87a1.39,1.39,0,0,0,0-.41c.16-.1.33-.19.5-.28.45-.25.21-.86-.31-.9a2.36,2.36,0,0,0-1.1.17,1.94,1.94,0,0,0,.15-.36c.15-.55.09-1.32-.76-1.41a.33.33,0,0,0-.3.14l0,0v291H1024ZM493.17,447.08a16.94,16.94,0,0,1-1.2-2.82l1.55.34A2.53,2.53,0,0,0,493.17,447.08ZM142.42,290.74l.45-.09,1.7-.31c-.34.63-.69,1.25-1,1.88l-1.43-.43Zm-1.58.3-.14.33-.6-.18ZM36.66,284.8a20.26,20.26,0,0,1,2.75,6.9C38.44,289.4,37.49,287.11,36.66,284.8Zm-8.41,12.61c.14-.07.25-.16.4-.22a1.7,1.7,0,0,0,.14-.1,7.65,7.65,0,0,0,1.08,3.38c2.5,4,7.41,5.57,3.31,9.91a5.86,5.86,0,0,0-.43-3.39C31.19,303.34,27.73,301.84,28.25,297.41ZM16,280.11c5.49,2.05,10.4,4.21,12.12,9.36a25.65,25.65,0,0,1-1.46,4c-.38.84-.69,1.54-1,2.18a44.85,44.85,0,0,0-7.56,1.24C17.25,291.89,20,283.75,16,280.11Zm6.71,34.57a15.35,15.35,0,0,1-.74-1.77c-1.55-4.6-.94-9.44,2.56-12.92a16.07,16.07,0,0,0,.71,4.11c.2.78,2.4.95,2.66,1.67C29.63,310.54,26.45,313,22.71,314.68Zm11.72,10a24.19,24.19,0,0,1-4.12-1.88c-1.15-2.78,2.18-4.84,3.78-6.57,1.78-1.91,3.46-3.32,4.65-4.75a14.37,14.37,0,0,0,.86,3.43,17.41,17.41,0,0,0,1.33,2.62C39.87,320.3,38.12,322.07,34.43,324.67Zm17,1.46a42.44,42.44,0,0,1-12.83-.33l-.57-.13a31.73,31.73,0,0,0,4.55-4.2,10.69,10.69,0,0,0,.72-.93,21.83,21.83,0,0,0,5.56,4.07c1.13.59,2,1,2.72,1.36Zm1.82-41.35-2.18-2.46a9.47,9.47,0,0,0,1.67.22,15.48,15.48,0,0,0,2.26-.07,3.7,3.7,0,0,1-.37.71c-.41.56-1,1-1.38,1.59Zm1.55,1.76-.33-.37h.06c2.06-.11,4.36-2.59,3.77-4.28l.86-.2c2.75-.64,7.29-.64,8.54-2.95l.19.09c0,1,0,2,0,3-.32-.2-.65-.39-1-.58-1.63-.92-3.54,1-1.92,2a16,16,0,0,1,2.89,2.11c0,.17,0,.33,0,.5-.65-.08-1.3-.19-2-.32s-2.85-.68-3.25.27c-.66,1.61,2.46,2.53,5.05,2.8-.07.93-.17,1.86-.32,2.79A18.48,18.48,0,0,1,65.57,294C62.61,293.82,61.89,294.76,54.78,286.54Zm3.87,12.7c-.71.34-1.44.65-2.2.94a8.18,8.18,0,0,0,.68-2.47A13.75,13.75,0,0,1,58.65,299.24Zm-5.6,6.86a9.8,9.8,0,0,1,1.55-2.84,57.58,57.58,0,0,1,6.82.9,5.44,5.44,0,0,1,.15.54l-.12.05c-3,1.28-6.29,3-8.91,3.4C52.67,307.55,52.83,306.89,53.05,306.1Zm8.12,9.84-1.47,2.17c-.33.48.08,1,.64,1.18-.11.47-.23.93-.33,1.41a23.08,23.08,0,0,0-.72,4l-.43.11c-.3-.18-.62-.34-.94-.51,1.77-3,1.25-5.37-1.24-8.71-2-2.63-4-2.25-4.39-4.36a44.8,44.8,0,0,0,6.47-1c.31-.07,1.71-.57,3.51-1.15A28.41,28.41,0,0,1,61.17,315.94ZM78,316c-.45,2.4-4.34,4.17-8,5.45a10.89,10.89,0,0,0-3.2-.63,3.44,3.44,0,0,0-2.43.79,41,41,0,0,1,1.23-4.74l1.53-.74a6.56,6.56,0,0,0,7,.22,5.07,5.07,0,0,1,3.86-.53A1.1,1.1,0,0,1,78,316Zm9.53-33.87c.09-.34.17-.69.25-1,0,.24,0,.49,0,.73ZM92,293c.35-.42.69-.85,1-1.29,0,.28.05.55.09.82Zm30.37,79.47,2.21.11a3.68,3.68,0,0,0,.5.18c-1.95.71-1.56,1.33-4,1.7a18,18,0,0,1-1.39-1.37A5.92,5.92,0,0,1,122.36,372.5Zm-7.42,4.86a12.45,12.45,0,0,1,4.7-.22,9.66,9.66,0,0,0,1.92.05,7.44,7.44,0,0,0,2.1.4c-.82.13-1.63.27-2.46.39a10.52,10.52,0,0,1-5.64-.25,7.24,7.24,0,0,1-.8-.33Zm-4.12-8.43a.53.53,0,0,0,0-.12,19.77,19.77,0,0,1,3-1.59c1.28-.44,1.08.71.45,1.23a14.64,14.64,0,0,1-1.56,1.05,14,14,0,0,1-1.43.92l-.35.18c-.08-.46-.17-.92-.25-1.37Zm11.65-39.21,0,0a25.86,25.86,0,0,0,1.56,3c-1.93.5-3.87.39-5.65.91a9.6,9.6,0,0,0,2.07-1.84.91.91,0,0,0,.13-.33c.35-.16.7-.33,1.07-.47A1.11,1.11,0,0,0,122.47,329.72Zm13.94-31.26a19.59,19.59,0,0,1-1.69,1.71c-4.33.39-9.33-.52-13.8-1,.23-.08.46-.17.7-.24,3.44-1,6-1.31,8.68-2.74,2.08.73,4.3,1.31,6.5,1.85Zm-17.12-10.69a10.91,10.91,0,0,0,2.9-4.27l.06-.17,1.24-.4c5.24-1.55,10.73-2.39,16.16-3.43a13,13,0,0,1-1.62,5.37,96.6,96.6,0,0,0-12.5,3,3.92,3.92,0,0,0,1.12-2c0-.3-.25-.52-.61-.51-1.91.08-3.64,1.49-5.05,2.42a12.48,12.48,0,0,1-5.35,2.27l-.13,0A11.82,11.82,0,0,0,119.29,287.77Zm-3.3-10.4a15.42,15.42,0,0,1,.48-2l1.22-.23a3.08,3.08,0,0,1-.58,1.58,3.52,3.52,0,0,1-1.14.77A.68.68,0,0,1,116,277.37Zm.93,8.28a8.68,8.68,0,0,1-1,.82,7.29,7.29,0,0,1-1.73.89A28.3,28.3,0,0,1,116.92,285.65Zm-4.69,8.12a55.49,55.49,0,0,0-5,3.33,7.86,7.86,0,0,1-1.48-.43,34,34,0,0,1,3.13-4.41,23.47,23.47,0,0,0,3.24.89c.32.05.63.08,1,.11C112.83,293.43,112.52,293.59,112.23,293.77Zm-4-10.64a18.06,18.06,0,0,0,2.64-6.26c.55-.19,1.12-.37,1.7-.54-.33,1.25-.49,2.52-.77,3.77-.08.36-.18.71-.29,1.06a32.44,32.44,0,0,0-3.76,2.6C108,283.55,108.12,283.34,108.27,283.13Zm-5.32.35c.34-1.2,2.43-2.68,2.18-4,.71-.4,1.42-.76,2.15-1.11A13.74,13.74,0,0,1,105,282.6a32.09,32.09,0,0,1-2.33,2.5A11.61,11.61,0,0,1,103,283.48Zm1.85,98.42a17.64,17.64,0,0,1,3.42-2.63,13.79,13.79,0,0,1,2.49-.31,7.45,7.45,0,0,1,2.62.5,15.15,15.15,0,0,0-6.49,2.79A10.88,10.88,0,0,0,104.8,381.9Zm67.73,45.16a1.46,1.46,0,0,0,.28.71,22.2,22.2,0,0,0-2.4-.68,25.85,25.85,0,0,0-3.22-.49c.23-.33.47-.65.68-1a15.26,15.26,0,0,0,2.19-4.72,2.8,2.8,0,0,0,1,1.14c1.66,1.07,3.58,1.52,3.48,3.46C173.48,425.45,172.45,426,172.53,427.06Zm6.52,14.11a28.92,28.92,0,0,0,.67-6.33c.42.46.83.93,1.2,1.42.81,1.06,1.05,2.24,2,3.25a5,5,0,0,1,.92,1.46A31.47,31.47,0,0,0,179.05,441.17Zm23.37-13a5.58,5.58,0,0,1-1,1.62,4.06,4.06,0,0,0-.27-.6,8.16,8.16,0,0,0,.23-2s0-.05,0-.08a2,2,0,0,0,.76.75,2.31,2.31,0,0,0,.41.16A.56.56,0,0,1,202.42,428.21Zm1.48,2.35-.76.44a3.59,3.59,0,0,0,.54-.68,10.75,10.75,0,0,0,.84-2,10.44,10.44,0,0,0,1.14-.22l.12.16A4.43,4.43,0,0,1,203.9,430.56Zm8.83-2.8-.09-.26c0-.14,0-.33-.11-.46a5.56,5.56,0,0,1-1-2.19,4.86,4.86,0,0,0-.7-1.73c-.18-.28-.77-1-.63-1.28l1.36-.15c0,.14.08.28.13.42a9.76,9.76,0,0,0,.8,1,3.13,3.13,0,0,0,.3.2,9.47,9.47,0,0,0-.11,2.19,19.8,19.8,0,0,0,.51,2.85Zm21.33,21.95,1.12,0a6.83,6.83,0,0,1,3.56.85,6,6,0,0,0,.9.12,10.41,10.41,0,0,1-7.36.08,44.53,44.53,0,0,1-4.74-1.84l1.23.29A24,24,0,0,0,234.06,449.71Zm-10.44-24.66a4.59,4.59,0,0,1,1.95-1.21c.67-.23,1.27-.28,1.71-.81.2-.25.13-.58.3-.83.63-.89,1.29-.68,2.11-.95a5.08,5.08,0,0,0,1.74-1.21A5.57,5.57,0,0,1,233.5,419c-.11.09-.22.18-.32.28a4.44,4.44,0,0,1-2.11,1.4,3.12,3.12,0,0,0-1.87,1.49,14.65,14.65,0,0,0-1,1.83,17.19,17.19,0,0,0-5.29,2C223.16,425.66,223.38,425.34,223.62,425.05Zm-1,6.77a6.81,6.81,0,0,0,1.08-.73,2,2,0,0,0,.83-2.21.47.47,0,0,0-.62-.3,4.35,4.35,0,0,1-.69-.46c1.32-.85,2.8-1.55,4.25-2.34-.23.55-.49,1.1-.76,1.64a10.08,10.08,0,0,0-2.5,3.34,3.75,3.75,0,0,0-.91,1.42.13.13,0,0,1,0,.06,7.12,7.12,0,0,1-1.41,1.51,7.43,7.43,0,0,1-.82.56s0,0,0,0A13.06,13.06,0,0,0,222.6,431.82Zm-4.25-9.37c-.15-.18-.32-.34-.48-.51a40,40,0,0,1,1.53-3.88,1.27,1.27,0,0,0,.13.19,6.55,6.55,0,0,1,.84,5.08l-1.09.5A12.35,12.35,0,0,0,218.35,422.45Zm25.91,44.77c-8.14-3.64-16.44-7.1-24.62-10.7.58.17,1.17.33,1.79.45,5.78,1.18,11.11,1.3,16.37,3.86a70.08,70.08,0,0,0,7,3.25C244.56,465.13,244.37,466.17,244.26,467.22Zm84.81-4c1.24.22,2.42.46,3.55.73a14.8,14.8,0,0,1-3.73-.18Zm-14.41,1.59a33.16,33.16,0,0,0,3.37,4.4,36.52,36.52,0,0,1-4.41-.1l-.23,0c.57-.34,1.1-.69,1.61-1.06s.06-.85-.5-.73c-1,.21-1.92.45-2.87.68A40.79,40.79,0,0,0,314.66,464.82Zm0,9.09a4.51,4.51,0,0,1,1.63.58c-1.45.35-3,.69-4.49,1.08a11.51,11.51,0,0,0-5-1.63c-.22,0-.36.22-.17.33,1,.64,2,1.25,3,1.91a22,22,0,0,0-3.6,1.43c-.29.15-.58.32-.86.5-1-.89-2.08-1.75-3.19-2.57,2-1.32,3.89-2.71,5.72-4.16.52-.12,1-.26,1.52-.42,3.56,1.34,7.61,1.88,10.52.13l1.41,1.5c.2.2.39.41.58.61-1.1.23-2.21.48-3.32.76a3.52,3.52,0,0,0-3.87-.69C314.14,473.41,314.26,473.85,314.64,473.91Zm-20.19-4.61a11.39,11.39,0,0,0-1.12.76l-.11.11c-1.92-.95-3.89-1.83-5.94-2.61l-.27-.1,0-.21C289.48,467.4,291.91,468.41,294.45,469.3Zm-4.09-3.67.39-.09a11.38,11.38,0,0,1,2,.77C292,466.05,291.18,465.82,290.36,465.63Zm5.47,4.94a5,5,0,0,1,1.37-.41,18,18,0,0,0,1.8.38l.54.07a10,10,0,0,0,2.66.9,1.86,1.86,0,0,0,.33,0l-.35.27c-.93.64-1.87,1.27-2.81,1.89-1.41-.93-2.86-1.8-4.37-2.62A5.81,5.81,0,0,1,295.83,470.57Zm-.32-6.29a25.4,25.4,0,0,0,3.34-1.3,22.64,22.64,0,0,0,4.51,4.84l.39.26c-.86,0-1.7.08-2.55.11a10,10,0,0,1-2-1.17A35.05,35.05,0,0,0,295.51,464.28Zm4.82,13.25-1.13-.15.49-.31ZM297,475.21c-1.13.71-2.27,1.41-3.42,2.11a35.52,35.52,0,0,0-4.67.77,61.17,61.17,0,0,0,4.26-5.17C294.5,473.64,295.77,474.4,297,475.21ZM291.44,472a18.22,18.22,0,0,0-3.3,6.32h0c-1.72-1.49-1.89-4.8-1.48-8.34C288.27,470.58,289.89,471.22,291.44,472Zm-4.22,9.27c-2.76,1.75-5.47,3.55-8,5.52a26.14,26.14,0,0,0-.53-2.75C281.56,483.17,284.36,482.1,287.22,481.25Zm-8,9.57A107,107,0,0,1,293.42,481l1.82-1.12a20.67,20.67,0,0,1,2.59.12,23.91,23.91,0,0,1,4.75,1,3,3,0,0,0-.26,1.42,23,23,0,0,0-2.38.07,29.79,29.79,0,0,0-6.55,1.4,3.8,3.8,0,0,0-1,.12,5.16,5.16,0,0,0-2.05,1.08,39,39,0,0,0-5.71,3.15c-1.87,1.25-3.77,2.57-5.63,4C279.08,491.76,279.18,491.29,279.25,490.82ZM312.85,461c0,.13.09.25.14.37a41.55,41.55,0,0,1-5.16,5.84,19.29,19.29,0,0,1-4.19-3.12,21,21,0,0,1-2.23-2.61,10.08,10.08,0,0,0,3.57-4.08,31.82,31.82,0,0,0,7.7,2.88C312.74,460.56,312.77,460.8,312.85,461Zm-19.32-16a7.55,7.55,0,0,0,.11-2.41c4,.86,8.54,1.45,12.14.29a.69.69,0,0,0,.42.26,32,32,0,0,1,.68,4c.35,3.23,1,6.35,4.55,8.22a2.5,2.5,0,0,0,.51.16,19,19,0,0,0,.21,2.25,30.33,30.33,0,0,1-6.47-2.52c.62-2.87.24-6,.8-9.38.17-1-1.63-1.45-2.17-.5-1.5,2.6-1.51,5.22-1.9,7.65a14,14,0,0,1-3.59-4.76c-.08-.18-.42-.1-.4.09a11.21,11.21,0,0,0,3.49,6.81,7.55,7.55,0,0,1-2.42,3.51,36.51,36.51,0,0,0-2.74-3.77,15.26,15.26,0,0,0-7.79-5A7.2,7.2,0,0,0,293.53,445.08Zm-3.19-.8a5,5,0,0,1-3.68,3.49,9.07,9.07,0,0,0-.47-1.48Q288.31,445.35,290.34,444.28Zm-3.88,7.86a7.8,7.8,0,0,0,.26-1.14c5.14,1.45,7.65,5.3,10.29,9.28l-.61.28a43.09,43.09,0,0,1-8.43,2.36c.53-2.19,1-3.94,1.11-4.68s-.92-.83-1.29-.3a24.6,24.6,0,0,0-3,5.71c-1.4.35-2.77.77-4.12,1.21a27.22,27.22,0,0,1-3-1.65C280.44,459.48,285,456.59,286.46,452.14Zm-3.71-4.41a5.78,5.78,0,0,1,.21,2,16.06,16.06,0,0,0-2.15.48c-.15,0-.07.21.07.2.7,0,1.37,0,2,0a7.14,7.14,0,0,1-.27,1c-.72,2.11-2.45,3.82-4.25,5.48a2,2,0,0,0-1.37-.35c-1.42.12-2.57-4.3-3.41-6.35A46.11,46.11,0,0,0,282.75,447.73Zm-5.28,18.17-1.64.53a11.49,11.49,0,0,1,.54-1.25C276.73,465.43,277.09,465.67,277.47,465.9Zm-2.24-17.71c-.83.22-1.66.41-2.5.58a13.27,13.27,0,0,0-1.45-1.56C272.53,447.5,273.9,447.88,275.23,448.19Zm-8.18-.41a8.74,8.74,0,0,1,2.06,1.61l-2.25.31C266.93,449.07,267,448.43,267.05,447.78Zm-.31,2.89c1.11,0,2.22,0,3.31-.05a8,8,0,0,1,.85,1.82c.89,2.81.93,6.51,4.74,7.07-.25.25-.51.51-.74.78l-.42.51a97.58,97.58,0,0,1-8-8.28C266.56,451.92,266.65,451.3,266.74,450.67ZM259.87,477a11.75,11.75,0,0,0,5.72,2c3.54.45,5.92.36,8.17,2.39l.27,1a25,25,0,0,1-12.29-.94,63.27,63.27,0,0,1-12.84-6.23c-.1-.29-.2-.58-.28-.86a12.26,12.26,0,0,1,1.1-1.86A21.59,21.59,0,0,0,256,470C255.63,472.63,257.43,475.22,259.87,477Zm-1-31.9c1.57.38,3.15.74,4.62,1.19,0,.76,0,1.52,0,2.29A11.54,11.54,0,0,1,258.85,445.12Zm7.2,9.7c.12-.59.23-1.2.34-1.82a38.28,38.28,0,0,0,6.85,9.6c-2.22,3.78-2.31,7.88-1.34,12.14.17.75.37,1.49.57,2.24-.28-.09-.57-.17-.85-.23-2.89-.62-5.88-.13-8.67-1.18-3.5-1.31-4.52-3.77-5.5-6.52A22.56,22.56,0,0,0,266.05,454.82ZM248.39,465a13.85,13.85,0,0,0,2.06.17A1.15,1.15,0,0,0,251,465a9.76,9.76,0,0,0,7.36-.93,17.82,17.82,0,0,1-9,5.42l-1.41-.63A28.6,28.6,0,0,1,248.39,465Zm4.82,24.67a13.88,13.88,0,0,1-5.56-9.41c2.52,3.42,6.09,6.7,9.39,10A11.69,11.69,0,0,1,253.21,489.68Zm13.44-3.89-4.43,3.64-1,.19c-3.74-3.51-7.91-6.83-10.6-10.88a15.84,15.84,0,0,1-1.28-2.34c5.31,4.27,11.17,8.21,18.89,8.94h0A1.92,1.92,0,0,0,266.65,485.79Zm8.35,4.57a37.34,37.34,0,0,0-4.32,4.9c-2.06-1.78-3.15-4.24-2.15-6.63a20.91,20.91,0,0,1,6.13-3.42A19.38,19.38,0,0,1,275,490.36Zm5.5-21.91a2.93,2.93,0,0,0-.15.68c0,.23.29.31.48.16a9.86,9.86,0,0,1,1.49-1l1.11.45a18.7,18.7,0,0,0,.07,6.25,11.38,11.38,0,0,0,1.68,4.13c-1.62.5-3.25,1.05-4.91,1.63-.77.27-1.52.51-2.27.73-1.2-4-2.73-7.92-2.64-12A26.8,26.8,0,0,0,280.5,468.45Zm5.1,25.75c-1.41.9-2.76,1.9-4.14,2.63a8.73,8.73,0,0,1-4.64.95c.21-.44.42-.88.62-1.33,3.17-2.19,6.26-4.49,9.58-6.44A25.82,25.82,0,0,0,285.6,494.2Zm4.58-2.11a9.55,9.55,0,0,0-1.16.33,28.24,28.24,0,0,1,1.65-3.53,4.19,4.19,0,0,1,1.11-1.26c.63-.27,1.24-.56,1.89-.79.31-.11.63-.2.94-.3l1.05-.2a23,23,0,0,0-3.68,3.55C291.36,490.63,290.76,491.36,290.18,492.09Zm2.47,20.33a11.24,11.24,0,0,1,1.2-3.49,8.27,8.27,0,0,0,1.36,1.18C294.34,510.87,293.49,511.64,292.65,512.42Zm7.12-18a2.47,2.47,0,0,0-2.48-.84,8.82,8.82,0,0,0-3.12-1.41,25.48,25.48,0,0,1,2.28-2.58c.07,0,.13.06.21.08,2.36.48,3.36,3.23,4.5,5.44a3.34,3.34,0,0,0,.1,1A18.76,18.76,0,0,1,299.77,494.46Zm10.8-4.09a2.34,2.34,0,0,0-3.53.4,5,5,0,0,0-.05,3.92A9.91,9.91,0,0,0,303.7,493c-1.18-2.29-1.86-4.78-4.53-5.58a12.48,12.48,0,0,1,5.24-1.89,11.58,11.58,0,0,1,1.44-.08,17.91,17.91,0,0,1,3.33.78,14.16,14.16,0,0,1,3.81,2s0,0,0,.06a16.6,16.6,0,0,0,.92,3.15,18.67,18.67,0,0,1,.31,3.5A30.13,30.13,0,0,0,310.57,490.37Zm4.12-5.61a.19.19,0,0,0,0,.08,33.42,33.42,0,0,0-6.56-4.65,14.53,14.53,0,0,1,4.12-1.84l.19.2c.84.91,1.41,2.47,2.43,3.42A5.62,5.62,0,0,0,314.69,484.76Zm1.39-5.41a12.28,12.28,0,0,0-1.48-1.63c.81-.22,1.64-.43,2.46-.67A10.47,10.47,0,0,1,316.08,479.35Zm3.84,10.74a.3.3,0,0,0-.08-.08,1.22,1.22,0,0,0,0-.17,18.39,18.39,0,0,1,1.26,1.6Zm6.57-1.26c-.2.42-.42.83-.64,1.25a2.89,2.89,0,0,0-1.67.06,7.92,7.92,0,0,0-1.81.94,12.88,12.88,0,0,0-2.48-1.6,3.22,3.22,0,0,0,0-.43,25,25,0,0,0,2.88.69.34.34,0,1,0,.23-.65c-1.23-.52-2.43-1.12-3.62-1.74-.51-1.22-1.34-2.33-1.38-3.65-.05-1.75,1.14-3.29,1.61-5a5.14,5.14,0,0,0,0-2.44c1.27-.39,2.53-.81,3.75-1.26C326.91,479.2,329.07,483.44,326.49,488.83Zm5.46-7.42c-.7-3-2.56-5.58-4.71-8,.56-.26,1.12-.54,1.67-.84.17-.09,0-.29-.14-.28-.8,0-1.58.12-2.36.21L326,472c-3.17-3.37-6.5-6.48-8.48-10.26a19.54,19.54,0,0,0,7,3.79,18.6,18.6,0,0,0,5.17,7.18l2.69,2.31a26.91,26.91,0,0,0,.06,4.39Q332.17,480.41,332,481.41Zm1.2-10.8a18.62,18.62,0,0,1-3.29-3.6l-.22-.37a18.26,18.26,0,0,0,4.92-.24A29.73,29.73,0,0,0,333.15,470.61Zm86.92.82c-1.31-.48-2.84-.78-4-1.15l-1.87-.62c1.6-.54,3.65-.82,5.09-1.22.92-.25,2-.47,3.17-.71C421.63,468.92,420.8,470.17,420.07,471.43Zm-5.59-10.11c4.18,0,8.95.34,12.5-1.19a3.24,3.24,0,0,1-1,2c-.12,1.59-1.12,2.41-3,2.47a32,32,0,0,1-4,1.08c-2.73.74-6.25,1.3-8.8,2.7L406.15,467c1.77-1.17,3.56-2.32,5.37-3.47A23.06,23.06,0,0,0,414.48,461.32Zm-4,.22c-2.42,1.55-4.86,3-7.26,4.52l-.89-.29C403.3,463.69,405.69,462.13,410.46,461.54Zm-9.88-18.13c2.39,3.73,4.61,7.69,2.92,11.78a9.18,9.18,0,0,1-1.63,2.51,12.23,12.23,0,0,1-1.3-.41A20.48,20.48,0,0,0,400.58,443.41Zm-1.6-2.53c.28.45.53.88.82,1.33-.36,0-.78.21-.78.57.06,4.73,0,9.07-1.24,13.25l-.84-.38a16.38,16.38,0,0,0-8.89-8.27A45.86,45.86,0,0,0,399,440.88Zm-52.63-16.45a32.85,32.85,0,0,0,2.91-11.91,12,12,0,0,0,3.49-.25,6.2,6.2,0,0,0,3.15,4.3,9.63,9.63,0,0,0,1,5.08c1.78,3.86,3.4,6.56,2.44,10.83a.38.38,0,0,0,.08.33,163.22,163.22,0,0,1-12.93,16.32,8.46,8.46,0,0,0,.3-3,16.62,16.62,0,0,0-1.2-4.48,15.75,15.75,0,0,0,3.48-4.89,11.91,11.91,0,0,0,4-2.52,15.11,15.11,0,0,0,4.18-5.21c.06-.12-.12-.18-.22-.1-1.83,1.45-3.69,2.9-5.6,4.28-.37.27-.78.51-1.2.76A39.14,39.14,0,0,0,352,425c0-.32-.55-.48-.71-.16-1.4,3-2.8,6-4.3,9-.77,1.54-1.82,3.06-2.63,4.63-.12-.33-.26-.67-.37-1C342.44,432.75,344.35,428.9,346.35,424.43Zm-1.57,35.9c-.93.29-1.85.62-2.76,1,4.2-6.18,9.84-11.62,14.5-17.56A114.57,114.57,0,0,0,368.24,425c.88-1.72,1.79-3.43,2.6-5.17,0,.1,0,.2,0,.3-.18,3.66-3.26,6.88-4.8,10.18-1.78,3.82-1.91,7.73,1.46,10.81a67.12,67.12,0,0,0-7.56,9.24c-1,1.5-1.84,3-2.67,4.59a71,71,0,0,0-14.66,10.25c-.65-.36-1.31-.71-2-1a21.2,21.2,0,0,0,4.52-3.41C345.37,460.53,345.08,460.23,344.78,460.33ZM338,486.77c0-.71-.1-1.42-.19-2.14-.21-1.56-.36-3.06-.47-4.54a9.88,9.88,0,0,1,1.95,6.24Zm5.48-3.17a12.8,12.8,0,0,0-1-3.5,15.54,15.54,0,0,0-4.4-5.41c.4-.6.82-1.18,1.27-1.76l.05.08a33.71,33.71,0,0,1,5.25,9.85A12.2,12.2,0,0,0,343.43,483.6Zm5.93-1.41c-1.36-4.69-4.69-8.33-7.23-12.48.32-.33.65-.66,1-1,.77.56,1.5,1.16,2.21,1.78a3.33,3.33,0,0,0,1.15,1.07,36.37,36.37,0,0,1,3.89,4.49C350.05,478.12,349.78,480.18,349.36,482.19Zm2.07-11.64a20.69,20.69,0,0,1-2.33-.48l-.21-.23a28.29,28.29,0,0,0-2.17-1.95,2.23,2.23,0,0,1,.4-.78c.16-.2-.15-.4-.35-.23s-.43.39-.61.58c-.31-.24-.66-.44-1-.66.66-.59,1.33-1.17,2-1.74,1-.84,2.05-1.67,3.1-2.48a8.4,8.4,0,0,0,1.6,6.13C351.72,469.32,351.58,469.94,351.43,470.55Zm.09-8.91c1.23-.91,2.49-1.8,3.8-2.64-.89,2-1.7,4.06-2.38,6.13A17,17,0,0,1,351.52,461.64Zm5.37,18.67a2.2,2.2,0,0,0-.2.23,40.49,40.49,0,0,0-2.18-3.81c.15-1,.29-2.06.46-3.09,1.29.11,2.43.16,3.2.16a4,4,0,0,1,.95,2.55C359.53,479.75,358.92,478.4,356.89,480.31Zm9.33-1.15-2.9.65c1.71-1.56,2.78-2.9,1-5.55a5.64,5.64,0,0,0-.75-.86,27.67,27.67,0,0,0,5.83-1.54A38.51,38.51,0,0,0,366.22,479.16ZM378,473.23c-3.15,1.24-6,2.75-7.71,5l-.42.09c1-2.86,2.81-5.53,3.74-8.49.79-.41,1.58-.8,2.34-1.16a22.39,22.39,0,0,1,2.77,2.74A3.94,3.94,0,0,0,378,473.23Zm2.65-4.34a19.34,19.34,0,0,0-1.56-1.58,26.6,26.6,0,0,1,3-.95A10.88,10.88,0,0,1,380.69,468.89ZM376,465.11a19.7,19.7,0,0,0-2.1-.93c-.86-3.93-3.9-7.36-8.76-9.05-.39-.13-.67.29-.37.51,3.14,2.23,5.05,4.8,5.8,7.59a18.66,18.66,0,0,0-12.94,2.29c-.13.08,0,.25.14.2,5.28-1.61,9.56-1.42,13.12-.08a12,12,0,0,1-.18,2.22,24.26,24.26,0,0,1-9.39,3.08c-.23,0-.85.05-1.68.06-.44-.22-.88-.44-1.31-.68a15.5,15.5,0,0,1-2.25-1.52,63.59,63.59,0,0,1,5.29-13.15c1.15-.54,2.33-1,3.55-1.51a95.6,95.6,0,0,1,11.13-3.06s0,0,0,0a20.25,20.25,0,0,0,2.31,3.89c-2.9-.18-5.81-.55-8.75-1a.33.33,0,1,0-.21.62,32.51,32.51,0,0,0,10.54,2.61,13.42,13.42,0,0,1,2.56,5.54c0,.09,0,.18,0,.27A26.63,26.63,0,0,0,376,465.11Zm14.46,2c-.84.82-1.71,1.63-2.6,2.42a22.33,22.33,0,0,1-3.08,1.33l-2.05.71a.41.41,0,0,0-.05-.09,8.37,8.37,0,0,0,1.15-1.32,17.42,17.42,0,0,0,1.75-3.71c0-.22.06-.44.09-.66a23.34,23.34,0,0,1,5.14.22A3.93,3.93,0,0,1,390.47,467.09Zm-6.87-9.71c.45,0,.9,0,1.35,0a16.3,16.3,0,0,0,3.53,3.45c.56.44,1.11.8,1.6,1.15a2.44,2.44,0,0,1,.14.28c.1.25.15.46.23.7a32.36,32.36,0,0,0-3.69-.26c-.38,0-.74,0-1.1,0A14.09,14.09,0,0,0,383.6,457.38Zm3.39-2.44a7.67,7.67,0,0,1-1.7-5.06.23.23,0,0,0-.39-.13,5.12,5.12,0,0,0-1.07,5.35c-.66,0-1.31,0-2,0a18,18,0,0,0-5.38-4.14c2.32-.55,4.64-1.12,6.89-1.84.9-.29,1.79-.61,2.68-.95a19.4,19.4,0,0,1,6.8,5.9A45.72,45.72,0,0,1,387,454.94Zm6.2,5.36a1.9,1.9,0,0,1,.05-1.61.74.74,0,0,0,.9-.2l.24-.37a32.84,32.84,0,0,1,.11,3.43C394.07,461.1,393.63,460.69,393.19,460.3ZM395,472.08a11.36,11.36,0,0,1,1.17-4.92,10.08,10.08,0,0,0,2,1.59c0,.25,0,.49,0,.74-.8.59-1.59,1.18-2.34,1.83C395.5,471.56,395.22,471.82,395,472.08Zm5.16,4.86a9.17,9.17,0,0,0-3.14-1.86l2.52.12c.22.61.46,1.22.7,1.83Zm-.88-12.17a6.5,6.5,0,0,1-.42-1.06c.31-.28.64-.57,1-.85,1-.75,1.91-1.46,2.77-2.18.34,0,.68,0,1,0a9.71,9.71,0,0,0-.92.55A11.37,11.37,0,0,0,399.23,464.77ZM402,471a44.46,44.46,0,0,1,4,2.31l-3.42-.24A21.19,21.19,0,0,1,402,471Zm1.39,4.46,3.62.25a12.73,12.73,0,0,1,.08,1.62,10.38,10.38,0,0,1-1.25,4.67C405.27,480,404.27,477.69,403.4,475.42Zm5.48,13.91c-.81-.86-1.57-1.75-2.29-2.67a13,13,0,0,0,3.92-7.73s0,.05,0,.07C411.47,482.51,410.4,485.94,408.88,489.33Zm1.6-16.31a3.32,3.32,0,0,1,.58-1.18c1.87.53,5.27,1.24,6.95,2.22-2.27-.06-4.57-.19-6.88-.37C410.91,473.47,410.71,473.23,410.48,473Zm7.1,5.28c-1.19,1.75-2.74,3.6-3.15,4.47a5.79,5.79,0,0,0-.4,1.17,11,11,0,0,0-1.09-7.84l2.3.14c.75,0,1.64.12,2.62.22a10.14,10.14,0,0,0-.28,1.28A3.49,3.49,0,0,0,417.58,478.3Zm-5.06,14.44-.47-.41a26.87,26.87,0,0,1,1.59-2.59,10.53,10.53,0,0,1,1.47-1.05c.58,1,1.27,2.09,1.85,3.21a25.62,25.62,0,0,1,2.18,5.34A44,44,0,0,1,412.52,492.74Zm9.8,2.52a24.54,24.54,0,0,0-.91-2.37c-.84-1.89-2.27-3.75-3-5.69,1.08-.37,2.2-.7,3.37-1a8.08,8.08,0,0,1,1.15,2.73A10.44,10.44,0,0,1,422.32,495.26Zm1,4.09A14.15,14.15,0,0,0,425,497a12.14,12.14,0,0,0,1.19-3.14,18.72,18.72,0,0,0,2.59,4.23c1.21,1.55,2.67,3,4.05,4.46A55.39,55.39,0,0,1,423.3,499.35Zm71.26-54.5c.65.15,1.29.32,1.93.5a19.49,19.49,0,0,0,0,3.24A6.32,6.32,0,0,1,494.56,444.85Zm2.71,26.85c-.9,1.91-1.8,1.3-2.93.54a4.19,4.19,0,0,0-.15-.77l3.23-.28A2,2,0,0,1,497.27,471.7Zm7.24-56.52.42,1c.24.54.46,1.09.67,1.64-.74-.45-1.46-.91-2.16-1.36Zm1.65,25.63a1.67,1.67,0,0,0-1,2.25q-.29.63-.6,1.26l-.27-.16a32.41,32.41,0,0,0,.19-5.81c.63.63,1.26,1.27,1.88,1.92C506.32,440.45,506.23,440.63,506.16,440.81Zm.91-9.77c-2.23-2.18-5.07-4.49-6.49-7a3.43,3.43,0,0,1-.26-2.69c.85.61,1.72,1.23,2.61,1.84a2.07,2.07,0,0,0,1.15,1.87,6.48,6.48,0,0,1,2.85,3.39A5.4,5.4,0,0,1,507.07,431Zm12,19.35a6.42,6.42,0,0,1-.68-1.57c.15.2.3.39.46.58s.56.63.84.94Zm2.3-5a12.82,12.82,0,0,1-.7-1.25c-.08-.18-.16-.37-.23-.55l.79-.26c.34-.11.67-.24,1-.36C521.94,443.8,521.62,444.61,521.37,445.42Zm-.2-7.46q.5-.73.93-1.5a7.76,7.76,0,0,1,.37.77C522,437.48,521.61,437.73,521.17,438Zm16.63.09a20.72,20.72,0,0,1-2-3.34c0-.18.07-.37.1-.55s0-.24.05-.36a28.19,28.19,0,0,0,2.33-3.07C539.12,433.24,539.37,435.77,537.8,438.05Zm15.93,9.48-1.16.1c-.22-.35-.44-.69-.64-1a4.55,4.55,0,0,1-.4-1.11c.73-.6,1.44-1.23,2.12-1.86C553.75,444.92,553.75,446.23,553.73,447.53Zm-.23-19.22-.07-.11,1.65-2.6c.07.14.14.27.22.4Q554.37,427.14,553.5,428.31Zm7.77,18.6-1.74.15a33.63,33.63,0,0,0-.34-5.76,20.18,20.18,0,0,0-.61-2.64c.93-1,1.87-1.91,2.84-2.83a10.71,10.71,0,0,1,1.28,5.2A20.15,20.15,0,0,1,561.27,446.91Zm8.33-.68-1.49.12a23,23,0,0,0,1-4.12l3.34,1.37A38.16,38.16,0,0,1,569.6,446.23Zm5.33-7a9.11,9.11,0,0,1-.61,1.64l-5-.28-.1,0c0-.06,0-.11,0-.17a16.66,16.66,0,0,0-2.27-7.66l-.12-.2c2.71.09,5.42.63,8.16.62A14.76,14.76,0,0,1,574.93,439.25Zm10.36-6.56a4.17,4.17,0,0,0-1.58,0c-.49.12-.92.54-.63,1a3,3,0,0,0,1.54,1.13l-.18.65c-.32-.06-.63-.1-1-.19a9.76,9.76,0,0,1-2-.81,20.07,20.07,0,0,0-.41-2,27.76,27.76,0,0,0,2.74-.78l1.52,1Zm7.82,7.64c-.69.11-1.38.19-2.07.27-.41-.41-.84-.79-1.24-1.19.11-.45.21-.89.3-1.34l.32,0a13.41,13.41,0,0,1,1.55,0c.51.26,1,.5,1.54.72a10.5,10.5,0,0,0,1,1.31C594,440.16,593.57,440.26,593.11,440.33Zm1.29-8.42a14.26,14.26,0,0,0-1.64-4.1c-.34-.54-1.38-.42-1.45.2a18.51,18.51,0,0,0,.17,4.84l-.67-.36a6.45,6.45,0,0,0-1.08-3.69l-.05-.06a28.23,28.23,0,0,0,4.26-3.63c.25,1.1.63,2.18.83,3.32A7.44,7.44,0,0,1,594.4,431.91Zm22.35-13.69a23.8,23.8,0,0,0,1-2.48c.09-.29-.21-.53-.57-.42-2.6.83-3.75,3-4.2,5.3,0-.72,0-1.45,0-2.19a8.27,8.27,0,0,1,1.19-1.73c.92-1.07,2.32-2.26,3.32-3.55l0,.1a3.27,3.27,0,0,0,.74,2.53A17.77,17.77,0,0,0,616.75,418.22Zm6.15,5.83a3.7,3.7,0,0,0-1,.41,6.25,6.25,0,0,0-.69-3.38.56.56,0,0,0-.83-.06c-1.6,1.43-1.33,3.71-1.53,5.53a16.57,16.57,0,0,1-.39-1.72,9.67,9.67,0,0,1,1.9-7.12c.91.64,1.82,1.23,2.59,1.85A29.31,29.31,0,0,1,622.9,424.05Zm23.55,1c.43,1,.86,2.09,1.24,3.14a36.14,36.14,0,0,0-3.89,1.29c0-.43-.13-.85-.22-1.27A8.63,8.63,0,0,0,646.45,425Zm-3.09,12a10.86,10.86,0,0,0,1.21-4.75,21.09,21.09,0,0,0,3.88-1.56,12.36,12.36,0,0,1,.25,1.48,37.73,37.73,0,0,1,.1,4.51c-1.48.52-2.89,1.12-4,1.44-.4.12-.79.22-1.19.31A7.4,7.4,0,0,1,643.36,437.09Zm4.24,4.47-2.89-.66-.05-.08a40.48,40.48,0,0,0,4-1.29l.15-.07a17.77,17.77,0,0,0,.2,1.93C648.57,441.46,648.09,441.52,647.6,441.56Zm29.82-5.87-.77-.25a11.81,11.81,0,0,0-.19-2.07,5.31,5.31,0,0,0,1.24.56C677.61,434.53,677.52,435.12,677.42,435.69Zm4.47,3.15a1,1,0,0,0-.21.11c-.49-.49-1-1-1.54-1.52a5.76,5.76,0,0,0-.24-3.19c.4,0,.8,0,1.21,0C681.8,435.83,682.29,437.45,681.89,438.84Zm4.14-.45a2.84,2.84,0,0,0-.38.05.68.68,0,0,0-.61.55l-.1.08a7,7,0,0,0,.06-3,6,6,0,0,0,1.26.42A3.11,3.11,0,0,0,686,438.39ZM701.64,433a8.3,8.3,0,0,0-.53,4.85,1.48,1.48,0,0,0-.12.29,5.5,5.5,0,0,0-.63-.83.91.91,0,0,0-1.4.19c-.41-.31-.84-.59-1.24-.9a2.93,2.93,0,0,1-1.51-2.47c-.06-.27,0-.61-.09-.88a10.43,10.43,0,0,1-1.36-4.3,8.71,8.71,0,0,0-.89-3.38c-.25-.56-1.17-2.09-.85-2.53l2.61-.06c0,.27.08.54.13.81a17.24,17.24,0,0,0,1.26,2c1,1.06,2.46,1.77,3.39,2.91s1.26,2.44,2.29,3.5l0,.05A1.46,1.46,0,0,0,701.64,433Zm9.8,15.17-.32.12a.57.57,0,0,0-.38.41h0a1.23,1.23,0,0,1-.63-.77l.22-.37,1.21.58Zm.7.6a.45.45,0,0,0,0-.34l.58.25Zm32.13-14.61-.15,1.27-.45-1Q744,434.26,744.27,434.12Zm-6.42,4c-.69-.3-1.4-.59-2.11-.87.53-.29,1.06-.56,1.62-.82C737.51,437,737.67,437.58,737.85,438.15ZM720,439.75a2.22,2.22,0,0,0-.92.87,22.71,22.71,0,0,0-3.32,3.07.49.49,0,0,0-.33.23c-.26-.11-.53-.22-.78-.34a9.4,9.4,0,0,0,1.52-.85c1.54-1.1,2.39-2.37,2.12-4a.85.85,0,0,0-1.09-.68c-1.76-1.17-2.52-2.28-2.31-3.34l.64.3c1.89.9,3.93,1.92,6.08,3A20.58,20.58,0,0,1,720,439.75Zm8.87-13a45.49,45.49,0,0,0-4.17,6.47c-1.3-.49-2.56-1-3.75-1.51l-2.39-1.09a9.73,9.73,0,0,1,3-1.26c1.33-.31,2.48-.3,3.43-1.23.45-.45.41-1.08.79-1.51,1.41-1.58,2.6-1.07,4.23-1.45a10.48,10.48,0,0,0,3.59-2,11.13,11.13,0,0,1,4.18-1.7c-.23.16-.47.31-.69.48a8.88,8.88,0,0,1-4.32,2.29A6.24,6.24,0,0,0,728.85,426.74Zm8.61,44.5c.44-.25.87-.51,1.28-.79a19.72,19.72,0,0,0,1.88,1.62C739.55,471.79,738.5,471.5,737.46,471.24Zm6-12.57-1.63-1.15c.53.05.87-.5.54-.82a2,2,0,0,0-.94-.5l.42-.18c.58-.3,1.21-.89.68-1.43a.36.36,0,0,0-.35-.07,5.13,5.13,0,0,0-.83.37,9,9,0,0,1-1,.28,9.07,9.07,0,0,0,1.06-1c.2-.24,0-.59-.34-.63a2.17,2.17,0,0,0-1.1.24,1.5,1.5,0,0,0,.25-.8.3.3,0,0,0-.22-.23,1.31,1.31,0,0,0-.81.07,4.54,4.54,0,0,1,.38-.38c.46-.41-.23-1-.78-.8a2.81,2.81,0,0,0-.65.32,2.06,2.06,0,0,0-1.32-.4.68.68,0,0,0-.65.52.88.88,0,0,0-1,.16l0,.05c-.39-.29-.78-.59-1.18-.87a2.11,2.11,0,0,0,.36-.58c.07-.12.15-.24.21-.36.9-.13,1.8-.28,2.72-.43a31.08,31.08,0,0,1,3.49-.36c1.22.47,2.46.89,3.71,1.28a22.52,22.52,0,0,0,5.23,4.82c.18.55.34,1.1.47,1.64C748,457.78,745.75,458.18,743.42,458.67Zm8.93-27.11c-.35.77-.7,1.47-1.06,2.15a8.54,8.54,0,0,0,0-2.47,32.81,32.81,0,0,0-3.94-10.55,12.4,12.4,0,0,0,3.83-1.18C752.6,423.47,754.33,427.08,752.35,431.56Zm63.5-23.41c0-.48,0-1,0-1.44q.47-.25,1-.48C816.5,406.86,816.18,407.5,815.85,408.15Zm2.29-4.32c-.17.3-.33.6-.49.9a11.72,11.72,0,0,0-1.78,1.14q0-.93-.12-1.86c.83-.22,1.66-.4,2.51-.54Zm5.06,3.9.73,0-.41.34-.57.39C823,408.25,823.12,408,823.2,407.73Zm-1.81,5.06c.26-.66.5-1.32.73-2a16.51,16.51,0,0,0,2.39-1.26A12,12,0,0,1,821.39,412.79Zm4.79-7.29-.07.07a19.55,19.55,0,0,0-2.33.15l.23-.66c.74.09,1.46.24,2.19.36Zm-1.1-3.58c0-.17.09-.34.14-.51a7.67,7.67,0,0,1,1.41.69C826.11,402,825.6,402,825.08,401.92Zm2.84-1.68a8.63,8.63,0,0,0-2.27-.7c.05-.29.08-.58.11-.86a10.39,10.39,0,0,1,2.38,1.19ZM829,414.08a12.84,12.84,0,0,0,1.11-1.56h.43c.1.34.21.66.33,1C830.23,413.71,829.61,413.9,829,414.08Zm4-3.49a16.37,16.37,0,0,0-1.82-.1c.18-.43.35-.87.5-1.32a5.6,5.6,0,0,0,1.49,1.26A.65.65,0,0,0,833,410.59Zm1.82-5.67c-.48-.29-1-.56-1.48-.81-.06-.25-.14-.49-.22-.72.33.16.64.34.95.52a6.46,6.46,0,0,0,.81.84Zm4.06-2.94c-.18.77-.37,1.53-.6,2.27-.17-.13-.33-.26-.51-.38.1-.34.2-.67.32-1,.18-.48.35-1,.5-1.45l.33.21C838.88,401.75,838.86,401.87,838.85,402Zm6,.64c.14-.71.27-1.41.41-2.11l.18-.9c.21,1.05.31,2.19.59,3.24A5.84,5.84,0,0,1,844.82,402.62Zm39.39,19.57.69-.13c.31.68.66,1.36,1,2.06a20.75,20.75,0,0,0-1.31,1.66c-.21.29.29.58.55.3a16.62,16.62,0,0,1,1.2-1.17c.08.13.15.26.22.39a25.08,25.08,0,0,0-4,6.17c-.29-.09-.58-.17-.88-.24A14.83,14.83,0,0,0,884.21,422.19Zm-9.32,15.32c.43-.14.86-.27,1.3-.39a9.33,9.33,0,0,1-1.83,2.58A9.2,9.2,0,0,0,874.89,437.51Zm-10.1-4.08a15.5,15.5,0,0,1,.64,2.21l-2.29,1.16A11.2,11.2,0,0,0,864.79,433.43Zm-7.59-37.67c.1.13.18.26.27.4-.13.15-.25.29-.37.45-.07-.32-.14-.63-.23-.94Zm1.19,40.69,1.22-.37a9.9,9.9,0,0,1-1.8,2.62,9.61,9.61,0,0,1-.73.7c-.75.26-1.5.5-2.26.73A10.54,10.54,0,0,0,858.39,436.45Zm-5.28-39.22c.17.24.32.48.51.71a22.11,22.11,0,0,0,1.63,1.73c-.27.56-.51,1.13-.74,1.71l-1.88-1.58A8.9,8.9,0,0,0,853.11,397.23Zm-3.51,2.6c-.18.28-.37.56-.56.83a20,20,0,0,0-.94-2.86c-.12-.31-.26-.63-.4-.94A18.24,18.24,0,0,0,849.6,399.83Zm-3.1-5.17c0-.12,0-.24.07-.37.21.55.43,1.1.68,1.63A13.48,13.48,0,0,0,846.5,394.66Zm.89,42.8a27,27,0,0,0,1.74-4.88,12.18,12.18,0,0,0,1.55-1.79,20.35,20.35,0,0,1-2.24,5.84C848.11,436.91,847.76,437.19,847.39,437.46Zm16.14,8.5c-4.26.58-8.69.87-13.15,1.17,1.27-.3,2.53-.59,3.74-.89a59.78,59.78,0,0,0,11.1-4,12.54,12.54,0,0,1-1.65,3.55A.23.23,0,0,0,863.53,446Zm2.78-.42-1.64.26a13.35,13.35,0,0,0,3.39-4.89l.74-.37,2.83-1.58c.43-.24.87-.46,1.31-.66a9.31,9.31,0,0,1-.29,2.82c-.13.49.64.71.91.26s.42-.78.6-1.16a.23.23,0,0,0,.21,0,8.73,8.73,0,0,0,4.42-3.66c.56-.07,1.14-.13,1.73-.16-.43,1.17-.81,2.3-1.17,3.33-.15.45.6.82.94.39a47,47,0,0,0,2.76-3.92,13.18,13.18,0,0,0,2-.72C880.8,441.28,874.78,444.07,866.31,445.54Zm21-15.08-.46.18c-.37.16-.18.55.18.54a4,4,0,0,0-.12,1.35l-.42.74-.25.41a8.86,8.86,0,0,0-1.09-.89c.54-.86,1.07-1.71,1.64-2.56.26-.39.53-.8.81-1.2.25.2.8.16.92-.16l.06-.2.09.15A5.37,5.37,0,0,0,887.35,430.46Zm7.75-4.63a13.57,13.57,0,0,0-.16-1.55c1.1-.11,2.23-.14,3.41-.25l.21,0c.09.3.18.6.28.91a34.11,34.11,0,0,0-3.69.93Zm2.31,4c.52,0,1,0,1.56.05-.39.26-.78.54-1.15.81Zm.9,2c.79-.44,1.58-.87,2.38-1.28.23.75.44,1.5.61,2.24-.8.24-1.58.5-2.36.77C898.75,433,898.55,432.39,898.31,431.81Zm2.51,9.55-1,.14c0-.25.06-.5.08-.75.38-.05.77-.09,1.19-.11C901,440.88,900.93,441.12,900.82,441.36Zm.67-2a11.42,11.42,0,0,0-1.53.36,17.39,17.39,0,0,0-.32-3.43c.7.21,1.42.4,2.14.6A11.49,11.49,0,0,1,901.49,439.34Zm6.4-10.25c-.28-.09-.55-.17-.83-.24-.08-.23-.17-.45-.25-.68.25,0,.49.06.73.07a1.26,1.26,0,0,0,.4,0A8.69,8.69,0,0,0,907.89,429.09Zm54.41-166.6a21.31,21.31,0,0,1,2.5,3.55Q963.49,264.28,962.3,262.49Zm30.09-4.84a12.67,12.67,0,0,0-.1-1.85c.14.23.27.46.41.68l.08.13C992.64,257,992.51,257.3,992.39,257.65Z"/></svg>