<svg id="Layer_1" data-name="Layer 1" xmlns="http://www.w3.org/2000/svg" viewBox="0 0 1024 576"><defs><style>.cls-1{fill:#152642;}</style></defs><path class="cls-1" d="M1024,399.62a69.93,69.93,0,0,0-13.25-12.39c-13.29-9.52-30.14-14.31-46.78-10.75-8.39,1.79-16.57,6-22.22,12.12-6.1,6.57-9.39,14.44-12.81,22.4a89.26,89.26,0,0,1-24.47,32.87C878.62,465.82,844.8,467.8,811.42,468q-60.7.3-121.42.24t-121.6-.28q-30.39-.14-60.8-.34c-20.12-.13-40.39.33-60.5-.54-8.08-.36-13.47-2.34-18.88-7.94-1.18-1.23-2.36-2.42-3.56-3.58a16.59,16.59,0,0,1,4-1.75,19.76,19.76,0,0,0,4.93-2.28,35.94,35.94,0,0,1,4.41-2.6c1.94-.86,4.13-.66,6.06-1.45,2.77-1.15,2.93-3.89.82-5.73a6.28,6.28,0,0,0-1.74-1,7,7,0,0,1,1.72-2.15,14.48,14.48,0,0,1,4.82-2.74,5.52,5.52,0,0,0,2.72-1.32,2.08,2.08,0,0,0,.54-1.7c-.14-.94-.66-.74,0-2,.2-.39.58-.68.75-1.1.56-1.35-.58-1.91-1.81-1.91a6.34,6.34,0,0,0,0-1.07c.36,0,.71,0,1.07-.1,1.28-.18,3.27-.79,3.54-2.18.15-.75-.24-.92-.78-1.32s-.6.23-1.36-.84c-.18-.26-.18-.64-.35-.9-.82-1.22-2.54-1.27-3.83-.7a10.26,10.26,0,0,0-2.24,1.68,15.78,15.78,0,0,1-4,2c-2.08.94-3.39,3.6-5.69,4a4,4,0,0,1,.12-.8.26.26,0,0,0,.25-.17,1.1,1.1,0,0,0,.08-.7c1.23-2.17,4.6-2.52,7-3.49,1.33-.53,2.37-1.86,1.07-3s-3.23-.33-4.69.62c0-.12.07-.23.1-.36a10.06,10.06,0,0,1,.37-2.05c.13-.3.46-.57.53-.9.32-1.65-2.09-1.84-3.23-1.31a3.16,3.16,0,0,0-1.71,2c-.36,1.25.52,2.91-.27,3.95a2.79,2.79,0,0,0-3-1.93,2.82,2.82,0,0,0-2,1.36c-.66,1.16,0,2,.45,3.11.73,1.84,1.07,5-.12,6.76a5.81,5.81,0,0,1-.6.68,16.91,16.91,0,0,0-1.12-2.5,23.44,23.44,0,0,0-1.55-2.28,9,9,0,0,1-1.2-2.76,3,3,0,0,0-4-1.63c.4-1.17.94-2.44.22-3.52a2.44,2.44,0,0,0-2.67-.8c.84-1.67,1.41-4-.79-4.87-1.89-.78-3.24.94-3.43,2.51-1.9,0-3.63,1.45-1.59,2.88a7.89,7.89,0,0,1,1.07.62,3.68,3.68,0,0,1,.71,2.05,6.23,6.23,0,0,0,.82,1.73,2.4,2.4,0,0,1-.06,2.6,2,2,0,0,0,.08,1.72c.43,1.12,1.59,2.14.9,3.42,0,.93-.65,1.11-1.84.55-.17-.14-.35-.27-.53-.4a8.43,8.43,0,0,1-1.59-1.21c-.23-.48.11-.78.18-1.35a2.74,2.74,0,0,0-5.24-1.45c-1.24-.28-3-.27-3,1.27,0,1.81,3.28,2.91,4.86,3.61a2,2,0,0,0,.69,2.18c1,.89,2.49.76,3.79.55a2.56,2.56,0,0,0,1.88,1.62,3,3,0,0,0,1.12,3.25c1,.84,2.2,1.34,3,2.37A5,5,0,0,1,424,444a3.73,3.73,0,0,0-1.39-.75,2.9,2.9,0,0,0-3.62,1.57c-.72,1.68-.28,3.58-.49,5.39a42.92,42.92,0,0,0-7.34-4.51,6.26,6.26,0,0,0-.94-3,5.37,5.37,0,0,0,1.29-1.17c1.36-1.77,1.56-5.83-.44-7.34a3.25,3.25,0,0,0-2.47-.26,6.47,6.47,0,0,0-.94-1.7,23.92,23.92,0,0,0-1.36-2.44,1.39,1.39,0,0,0,.47-.19,2,2,0,0,0,.52-1.25,10.29,10.29,0,0,1,.77-3.17,12.63,12.63,0,0,0,1.61-4q0-.35.06-.69l.06,0c.56-.3.58-.55.86-1.05,1-1.82,3.45-2.85,4-4.88.68-2.47-1.81-4.08-4.21-4.1a23.58,23.58,0,0,0,0-3.85c0-.77,0-1.53-.06-2.29a3.72,3.72,0,0,0,1.5-1.44,6.1,6.1,0,0,0,.38-1.69,12.65,12.65,0,0,1,1.09-2.6,3,3,0,0,0-.42-2.86,3.6,3.6,0,0,0-3.63-1.35l0-.05a13.38,13.38,0,0,0,0-2.83,4.43,4.43,0,0,0-.22-2c-.5-1-1.56-.88-2.58-.91-1.19,0-2.8-.13-3.48,1-.54.9-.08,1.31.39,2.05s.74.62-.1.95a5.89,5.89,0,0,1-1.83.1,1.75,1.75,0,0,0-1.34.35c-1.91,1.75,1,5.44,2.42,6.91a3.79,3.79,0,0,0-2.25.68c-1.54,1.14-1.47,2.76-1.1,4.38.62,2.72,1.35,5.42,2.21,8.08l.54,1.67c0,.06,0,.12,0,.18-.05.35-.08.7-.1,1.05-.12,1-.29,2.1-.44,3.14a9.72,9.72,0,0,1-1.8-7.91c.2-1.66.3-3.85-1.74-4.57a4.52,4.52,0,0,0-5.15,2.44,2.51,2.51,0,0,0,.17,2.07c.71,1.58,1.87,2.94,2.52,4.57a10.48,10.48,0,0,1,.76,5,25.32,25.32,0,0,0-.45,4.24c.21,3.11,2.07,5.87,2.36,9,.24,2.6-.35,5.26.69,7.74-.66-.14-1.32-.27-2-.39-.39-.76-.8-1.53-1.17-2.31-.9-1.9-.41-3.36-.24-5.31.25-2.9-1.39-5.6-1.3-8.49.07-2.15,1.81-5.56.41-7.58a3.34,3.34,0,0,0-3.92-.95,3.29,3.29,0,0,1-1.94.39c-.29-.05-.53-.27-.84-.3a2.18,2.18,0,0,0-.63,0,3,3,0,0,1-1.84,0c-1.53-.54-3.51-1.3-4.41.64a1.89,1.89,0,0,0,.18,1.84c.23.51.37.13.32.86s-.22.36-.46.88a2.85,2.85,0,0,0-.32.76,2.66,2.66,0,0,0,1,2.28c1.59,1.48,3.55,2.22,3.17,4.55a1.9,1.9,0,0,0-2.37,1.67c-.05.89.61,1.57,1,2.33.5,1,0,2.18.9,3a7.14,7.14,0,0,0,1.34.71,6.08,6.08,0,0,1,2,2.2l1.08,1.67c-8.6-.88-17.32-1.08-25.87-2.67-14.78-2.75-26.16-11.32-36-21.54a219,219,0,0,1-16.55-19.46l.8-.94c2.9-3.37,5.71-6.78,6.64-11.11,1.07-5-.43-10-1.93-14.76a47.25,47.25,0,0,1-1.37-5c5,7,19.38,9.46,22.51.36a.75.75,0,0,0-1-.88,25.65,25.65,0,0,0-4.08,2c-2.42,1.18-5,.8-7.51.08-4.08-1.15-8-4.07-6.45-8.3,5.52-1.85,12.41-.56,18.15-2.11a2.24,2.24,0,0,0,.23.79c1.06,2,3.23,3.49,5.06,4.81,1.61,1.15,3.79,2.41,5.9,2.17.44-.05.77-.36.66-.8-.46-1.82-2.14-3.3-3.47-4.63a52.26,52.26,0,0,0-4.21-4.21l.16-.1a15.31,15.31,0,0,0,6.15-10.53c.5-3.42.8-9.34-1.87-12.08a.55.55,0,0,0-.83.1c-1.14,1.66-.89,3.7-1.09,5.63a24.06,24.06,0,0,1-1.42,6.74,11,11,0,0,1-5.76,6c-2.54,1-5.36.53-8,.6h-.13a23.83,23.83,0,0,0,7.22-7.92,28.68,28.68,0,0,0,3.71-13.79,9.59,9.59,0,0,0,6.36-5c1.16-2.39.67-5.83-1.75-7.37a.41.41,0,0,0-.59.22,13.86,13.86,0,0,1-1.67,5,5.31,5.31,0,0,1-2.87,2.19,18.88,18.88,0,0,0-3.28-7.3.28.28,0,0,0-.5.06c-1.45,4.41-1.63,9.12-2.37,13.61a9.3,9.3,0,0,1-2.12-2.61,22.88,22.88,0,0,1-1.81-6.27,1.28,1.28,0,0,0-2.07-.51c-4,4.73-1.22,12.71,4.44,15.43a17.3,17.3,0,0,1-5,7.07,18.86,18.86,0,0,1-6.35,3.25,2.74,2.74,0,0,1-.4-.15c-1.34-.61-1.06-1.64-.81-3a11.44,11.44,0,0,1,3.26-6.4c.32-.3-.09-.69-.46-.54-4.22,1.67-7.32,4.54-7.75,9a5,5,0,0,0,.72,3.26,13,13,0,0,0-1.33.8,13.39,13.39,0,0,0-1.92,1.66c1.13-3.43,1.62-6.93.2-10.6-.27-.69-.58-1.37-.91-2,2.17-3.33,6.2-4.21,9.49-6.91a7.55,7.55,0,0,0,2.34-3,4.75,4.75,0,0,0,1.2-4.1c-.23-1.7-1.23-3.05-1.7-4.67-.6-2.11-.07-4.26.25-6.37l.09-.64c4.3-1.11,8.41-5,6.69-9.31-.16-.4-.84-.48-1,0-.67,2.64-3.25,3.6-5.76,4.47,0-.25-.08-.49-.13-.73a8.52,8.52,0,0,0-.42-1.87c-1-2.88-3.29-5.1-6.7-4.84a.35.35,0,0,0-.31.24,1,1,0,0,0,.07,1.88c5.59,1.67,2.76,8.54,2,12.91-1.44-.45-2.9-.92-3.27-2.13-.66-2.14-.29-4.38-1.4-6.42a.49.49,0,0,0-.8,0,13.64,13.64,0,0,0-1.21,4.82c-.21,1.28-.65,2.67-.17,3.93.84,2.21,4.55,3.55,7,4.11.05.2.11.4.16.6.23,2.07,1.15,4.06-.75,5.78-1.35,1.21-3.6,1.56-5.23,2.38a16.56,16.56,0,0,0-3.31,2.23,25.1,25.1,0,0,1,1.29-10,.56.56,0,0,0-.94-.51,13.63,13.63,0,0,0-4.11,9.44,14.07,14.07,0,0,1-2.44-4c-1.06-2.72-.9-5.44-1.05-8.21a2.35,2.35,0,0,0,.35-.11,8.05,8.05,0,0,0,4.77-5.67,32.29,32.29,0,0,1,.68-4.26c.5-1.45,1-2.75,1.36-4.24a.24.24,0,0,0-.36-.26c-2.13,1.09-3.58,2.19-4.41,4.41-.94,2.55-.72,4.7-3.08,6.13-.9-2.56-2.56-4.78-2.59-7.63,0-2.25.79-4.43,1.31-6.6s.1-3.82.38-5.92a.07.07,0,0,0-.12,0c-1.51,2.34-3.11,3.77-4.28,6.35a26.86,26.86,0,0,0-2.08,6.19c-.81,4.42,2,7.81,1.66,12.14s-.55,7.8,1.28,11.79a16.86,16.86,0,0,0,7.34,8.2,17.74,17.74,0,0,0-.85,6.33c.09,2.28.08,4-2,5.47a18.29,18.29,0,0,1-6.19,2.41c-1.45.38-2.9.78-4.31,1.27a17.9,17.9,0,0,0,2.51-4.46c1.48-4,.87-8.13.39-12.21s-.67-8.31-1.46-12.38c-1.09-5.56-6-9.13-8.41-14l.2,0a.51.51,0,0,0,.21-.93l-1-.52a12.26,12.26,0,0,1-.48-1.73,12.27,12.27,0,0,0,1.91-.65,13.17,13.17,0,0,0,2.17.4.23.23,0,0,0,.16-.42l-1-.65a18.13,18.13,0,0,0,2.73-2,4.7,4.7,0,0,0,1.37-1.3c.69-.7,1.34-1.44,2-2.18l.18,0a.09.09,0,0,0,0-.18l.4-.49c2.51-3.15,4.15-10.16,8.54-11.42.42-.12.31-.64-.1-.68-4.41-.46-6.81,2.88-9.28,5.74a.22.22,0,0,0-.26,0,9.61,9.61,0,0,1-5.64,1.6l.24-.3h.07c3.94-.63,5.72-4,7.22-7,.07-.15-.16-.25-.26-.13s-.32.4-.48.59a2.56,2.56,0,0,0-.8-1.33,15.89,15.89,0,0,0,2.44-5.75c.11-.57-.87-.75-1.07-.21A23.47,23.47,0,0,1,288,286.2a2.48,2.48,0,0,0-1.1.1,9,9,0,0,0,.58-4.08c0-.33-.55-.27-.6,0a10.29,10.29,0,0,1-2.81,5.44,14.11,14.11,0,0,1-2.93,2l0-.18a18.38,18.38,0,0,0,4.26-6.67c.11-.26-.28-.42-.46-.21a29.35,29.35,0,0,1-4.16,3.92c0-.16,0-.33,0-.5a29.45,29.45,0,0,1,1.43-6.84.15.15,0,0,0-.26-.12,11.6,11.6,0,0,0-3,6.82,18.23,18.23,0,0,0-.11,2.16l-.13.1-.16.11a4.67,4.67,0,0,0-.38-3.6.21.21,0,0,0-.33,0c-.55.75-1.16,1.45-1.72,2.15a3.09,3.09,0,0,1-.14-.32,8.39,8.39,0,0,0,1.38-5,.26.26,0,0,0-.49-.1,17.5,17.5,0,0,1-1.43,2.58,10.85,10.85,0,0,1,1.94-6.57.32.32,0,0,0-.48-.4,10.19,10.19,0,0,0-3.67,9.51c-.17.16-.36.31-.55.47-.62-.36-1.25-.66-1.85-1a8.19,8.19,0,0,0,2.13-3.67c.08-.34-.38-.81-.73-.46-.69.71-1.35,1.42-2.06,2.08a16.26,16.26,0,0,1,1.23-2.78c1.31-2.54,2.38-4.63,2.26-7.51a.11.11,0,0,0-.22,0c-.51,3.09-3.14,5.34-4.81,7.94a12.27,12.27,0,0,1,.32-2.09,10.25,10.25,0,0,0,2.41-5.74.22.22,0,0,0-.42-.08,18,18,0,0,1-1.27,2.43,9.87,9.87,0,0,0-1.5,2c-.21.21-.44.4-.67.6-.1-1.11-.19-2.22-.28-3.33,0-.2-.38-.23-.42,0a22.77,22.77,0,0,0-.63,4.4c-.2.13-.38.27-.59.39a29.17,29.17,0,0,1-.9-4.29,15.41,15.41,0,0,1,1.23-2.87c.06-.11-.13-.23-.22-.14a12.67,12.67,0,0,0-1.26,1.53v0c0-.06-.12-.08-.14,0s-.05.24-.08.36a15.77,15.77,0,0,0-2.53,6.94c-.39.12-.77.23-1.15.36a9.25,9.25,0,0,0,.69-6.06.1.1,0,0,0-.2,0,12.31,12.31,0,0,1-3.08,6.54,15.05,15.05,0,0,1,1.17-6.8c.07-.16-.17-.33-.31-.2a10,10,0,0,0-2.45,3.56c.42-2,.6-4.08.85-5.84,0-.19-.28-.24-.35-.07-.58,1.33-1.1,2.69-1.61,4-.87,1.1-1.7,2.23-2.56,3.34-.22-2.15-.18-4.2,1.24-5.52a.08.08,0,0,0-.09-.13,5,5,0,0,0-2.78,2.25,12,12,0,0,0-4.09,3.81c-.25-2.26-.29-4.57-.48-6.84,0-.21-.35-.21-.42,0-1.28,3.31-2.34,8.05-1.11,11.76-.07.31-.15.62-.21.93-4.94-4.37-2.83-10.46-1.52-17.13,0-.17-.23-.24-.33-.11-2.65,3.49-4.72,7.81-4.31,12.14-.44.64-1,1.27-1.42,1.87a13.88,13.88,0,0,1-.19-6.28c.06-.34-.48-.5-.67-.22a9.53,9.53,0,0,0-1,9.12c-.16.33-.33.66-.49,1a10.48,10.48,0,0,1-.95-3c-.5-3.54.89-6.7,2.77-9.71a.42.42,0,0,0-.63-.53,11.32,11.32,0,0,0-3.8,4.59c-.14-.79-.28-1.57-.43-2.35a.21.21,0,0,0-.41,0,33.76,33.76,0,0,0-.22,8.77c0,.11,0,.22,0,.34a16,16,0,0,0,2.41,7,21,21,0,0,1-4.33-2.86.14.14,0,0,0-.12-.1,16,16,0,0,1-4.75-7c-.12-.34-.77-.4-.75,0a14,14,0,0,0,3.8,9.07,9.92,9.92,0,0,0-1.19,3.52,13.4,13.4,0,0,1-4-3.64.44.44,0,0,0-.8.36c.17.42.35.83.55,1.22a.2.2,0,0,0-.17.11c-1.11,3-.12,6,1.92,8.46A17.38,17.38,0,0,0,230,312.39c-.26.42-.54.82-.82,1.22-.58-.29-1.16-.59-1.73-.91a20.1,20.1,0,0,0-.61-2.72c-.11-.35-.67-.27-.61.1a14.07,14.07,0,0,1,.19,2c-.14-.09-.29-.16-.42-.25-.69-5.29-4.4-11.23-7-15.48-.26-.43-1.05-.25-.92.28.92,3.87,2.53,7.54,3.76,11.33.14.45.3.91.45,1.38-.34,0-.66.37-.47.68.32.54.67,1.05,1,1.55a8.34,8.34,0,0,1,.13,2.17c-.22,2.54-2,3.94-3.62,5.8a1,1,0,0,0,.79,1.55h.17a24,24,0,0,1-3.26,1.26,22.83,22.83,0,0,1-2.27.57c2.4-1.46,4.19-4.49,5.21-6.63,1.23-2.57,2.43-5.71,1.32-8.17l.15-.42c.11-.34-.33-.52-.55-.3a5.56,5.56,0,0,0-1.83-1.63c-.28-.16-.65.18-.4.42a3.63,3.63,0,0,1,1.07,3.2c-.24.39-.49.76-.75,1.14a26.31,26.31,0,0,0-4.32-9.65.68.68,0,0,0-1.16.35c0,2.92,1.11,5.66,1.83,8.48a10.85,10.85,0,0,1,.47,4.52c-.5.48-1,.93-1.56,1.38a29.27,29.27,0,0,0-.05-6c0-.16-.26-.12-.29,0-.57,2.45-.89,4.95-1.52,7.34a26.45,26.45,0,0,1-4.59,2.27c3-4.06,4.53-9.11,6.28-13.59.08-.21-.27-.39-.39-.18-1,1.67-1.89,3.39-2.87,5.09-2.22.32-4.42,2-6.69,2.47a13.5,13.5,0,0,1-2.25.18c2.49-2,4.49-4.43,4.28-6.65a.27.27,0,0,0-.51,0c-.87,3.42-7.85,6.9-11.22,7.54-.25.05-.48.06-.72.09l.48-.33a17.81,17.81,0,0,0,4.72-1.7,15.48,15.48,0,0,0,7-7.26c.27-.54-.6-.87-1-.45a18.48,18.48,0,0,1-6.71,4.79,35.08,35.08,0,0,0,5.94-10c0-.1-.11-.16-.18-.08-1.81,2.16-3.46,4.45-5.4,6.52a59.1,59.1,0,0,0,1.34-8.3.3.3,0,0,0-.57-.11c-1.23,3.39-2.78,6.71-4.35,10a24.34,24.34,0,0,1-1.16,2.27c-.62.36-1.26.67-1.91,1a8.26,8.26,0,0,0,2.73-4.54c.05-.26-.33-.4-.52-.25-3.15,2.49-6.1,5-10.44,5l.45-.13c6-2,8-7.93,9.71-13,.17-.52-.61-.78-.85-.28-2.22,4.59-5,9.72-10.71,10.86a13.41,13.41,0,0,1-1.87.22c7.33-3.26,12.3-11.51,11.86-19,0-.33-.57-.28-.61,0a19.43,19.43,0,0,1-7,13,20,20,0,0,1-9,3.86c-.09-.43-.18-.86-.25-1.29a12.58,12.58,0,0,0,5.24-1.59,13.51,13.51,0,0,0,4.51-4.82c1.42-2.35,2.6-7.37,5.28-8.67a.17.17,0,0,0,.1-.19c0-.11,0-.21-.05-.32a.67.67,0,0,0-.77-.49c-3.39.91-5,5.1-6.69,7.61s-3.64,4.64-6.81,5.12a7.56,7.56,0,0,1-.82.07c.53-2.73,2.49-4.62,4.59-6.71a69.17,69.17,0,0,1,5.13-4.7,11.19,11.19,0,0,0,1.4-1.06,25.27,25.27,0,0,1,6.18-3.37c.45-.16.2-.85-.27-.74a24.12,24.12,0,0,0-3.17.94,39.93,39.93,0,0,0,2.55-4.48c.09-.18-.21-.31-.33-.15a31.16,31.16,0,0,1-5.32,6,30.75,30.75,0,0,0-2.65,1.57,9.85,9.85,0,0,1-1.66.49c0-.11,0-.22,0-.33a.43.43,0,0,0-.05-.46c0-.22-.05-.43-.07-.64v0c0-.37-.08-.74-.11-1.1.64-.43,1.25-.87,1.84-1.34a27.26,27.26,0,0,0,7.75-9.48c.14-.3-.3-.56-.55-.35-2.51,2.12-4.84,4.4-7.5,6.38-.5.37-1,.72-1.54,1.07a13.29,13.29,0,0,1,1.87-5.68c2-3.42,4.91-6.41,7.52-9.45.25-.28-.2-.59-.49-.4-4.47,3-8.69,6.37-11,11.16a16.32,16.32,0,0,0-1.63,5.79,10.47,10.47,0,0,1-.79-1.32,19.55,19.55,0,0,1,3-8.47c2.34-3.61,6.88-6.44,6-11.08a.22.22,0,0,0-.43,0c-.4,3.95-4,6-6.38,8.91a20.34,20.34,0,0,0-3.13,5.2.2.2,0,0,1,0-.07c.36-4.39,2.4-9,3.77-13.19.05-.15-.19-.29-.28-.13-1.31,2.27-2.78,4.58-4,7a35.27,35.27,0,0,0-.82-8.52.19.19,0,0,0-.37,0,72.85,72.85,0,0,1-1.3,9.87c-.63,2.63-2.12,5-2.95,7.55-.15-.2-.29-.4-.43-.62a41.56,41.56,0,0,0,1.58-12.43.35.35,0,0,0-.69-.05,86.78,86.78,0,0,1-2.44,9.32c-1.59-4.23-1.55-8.89-1.34-13.33,0-.3-.49-.43-.57-.12-1.34,5.16-1.87,10.77,0,15.81l-1.77,1a13.21,13.21,0,0,1-2.45-4.34l2.72-1.69c.09-.05,0-.2-.11-.14l-2.68,1.62a13.32,13.32,0,0,1-.59-3l0,0a.08.08,0,0,0-.05-.16,14,14,0,0,1,0-1.59.31.31,0,0,0-.24-.32l.16-.37c.15-.27-.31-.46-.49-.23a12.09,12.09,0,0,0-2.08,3.57l-3,1.77h0c-.06-.11-.12-.22-.19-.33a.41.41,0,0,0-.76.23c0,.17,0,.35.06.52q-2.42,1.13-4.86,2.18l-.66-.5c2.13-1.22,4.25-2.45,6.39-3.66a.19.19,0,0,0-.18-.33l-6.69,3.64q-.83-.6-1.68-1.11c.81-.5,1.63-1,2.44-1.49q3.65-1.49,7.28-3c.14-.05,0-.24-.1-.19-1.62.62-3.26,1.2-4.89,1.8,2.85-1.82,5.68-3.67,8.47-5.58.22-.15-.06-.43-.28-.29q-5.84,3.74-11.88,7.22c-.8.28-1.61.54-2.42.81a15.67,15.67,0,0,0-2.57-1l2.71-2.75c2.48-.88,5-1.74,7.45-2.58.11,0,0-.22-.06-.18l-6.57,1.91,4.75-4.93,1.33-.62c.26-.11.07-.47-.19-.36l-.34.14.55-.56c.12-.13-.06-.33-.19-.2l-1.05,1.05-6,2.54c.3-.94.57-1.89.81-2.84l.43-.48c.07-.07-.07-.16-.14-.09l-.2.21c.05-.18.1-.36.14-.54a32.73,32.73,0,0,1,7.3-3.15.06.06,0,0,0,0-.12,36.2,36.2,0,0,0-7,2.12c.08-.38.15-.77.22-1.15,1-.52,2-1,3-1.48a.06.06,0,0,0-.05-.11c-1,.29-1.91.62-2.83,1,0-.13,0-.27.05-.4L148,259c.06-.1-.09-.2-.15-.1l-.55.89c.09-.63.18-1.27.24-1.91a19.8,19.8,0,0,1,2.69,1.87,1.44,1.44,0,0,0,1.86.11c3.2-2.35,6.45-.1,8.86-3.75,2-3,3.19-5.48,6.19-7.94,2.13-1.74,4.38-3.38,6.6-5a69.07,69.07,0,0,1,8.24,1.06c.11,0,.22-.12.1-.19a22.6,22.6,0,0,0-6.4-2.3c.66-.47,1.36-.94,2.12-1.43,1.45.73,2.85,1.63,4.35,2.55,5.09,3.14,10.23,6.46,14,11,0,0,0,0,0,0a39.88,39.88,0,0,0-9.37-9.37c-2.09-1.6-4.38-3.84-6.85-5.54,3.23-2.05,6.57-4.33,8-7.11a5.16,5.16,0,0,0,.24-1.08c.68-2.56.83-5,2.78-7.26s5.73-3.54,8.51-5a.12.12,0,0,0-.09-.23c-3.78.92-8,2.53-10.43,5.51a12.35,12.35,0,0,0-1.93,4.3c-1.64,4.73-4.52,6.86-8.61,9.84a12,12,0,0,0-2.75-1.14c-2-.52-3.81-.13-5.77.08a63.71,63.71,0,0,1-10.52.25c-4.77-.28-9.31-.34-13.69,1.64-.53.24-1.06.5-1.58.76-2.56-.38-5.12-.77-7.7-1.08a73.83,73.83,0,0,0-7.43-.41c-.11-.26-.21-.53-.32-.8s-.32,0-.25.12.17.45.25.68c-.85,0-1.71,0-2.56-.08l-.17-.33s0,0,0,0l.15.32c-1,0-2-.1-3-.19a3.13,3.13,0,0,0,.2-.3,15.19,15.19,0,0,0,.91-1.93l.59-.24c1.84-.8,3.66-1.52,5.5-2.12,1.46.14,2.84.38,4.38.58,1.84.23,2.3-.18,4.56.32,1.71.38,2.52,1,4,1.32a8.16,8.16,0,0,0,4.49.25c3.52-.88,6-3.75,7.47-6.67.13-.26-.3-.43-.47-.22A24.31,24.31,0,0,1,151,232.7q-5.7,3.23-9.53,0c-.45-.09-1.07-.57-1.62-.72a12.9,12.9,0,0,0-2-.37c.46,0,.92-.06,1.39-.07,4,1.39,8.1.37,10.18-3.92,0,0-.05-.09-.08,0-3.22,5.08-8.72,4.21-12.83.76l-.27-.23a33.69,33.69,0,0,1,10.45-.26.25.25,0,0,0,.1-.48,25.23,25.23,0,0,0-13.16-1.16c-.57-.24-1.2-.35-1.75-.57a21.08,21.08,0,0,1-6.12-1.82c-.87-.74-1.75-1.48-2.63-2.2-.3-.22-.61-.43-.92-.64a92.25,92.25,0,0,1,14.73.2c6.05.39,11.79-.13,16.16-4.37a0,0,0,0,0,0,0c-7.42,5.46-16.15,3.07-24.58,1.83a32.87,32.87,0,0,0-7.13-.27c.2-.24.4-.5.58-.75,1-1.48,1.34-1.74,3.33-1.88,3.89-.27,9.6.67,12.65-2.21,0,0,0-.09,0-.07-3.76,2.16-9.45,1-13.62,1a2.86,2.86,0,0,0-2.19.63,6.62,6.62,0,0,0-1,1.5,6.48,6.48,0,0,1-2.15,2.09c-.39.06-.79.1-1.17.17a20.74,20.74,0,0,0-10.64-.84l-1.65-1.78c-.47-.51-.92-1-1.38-1.55a33.57,33.57,0,0,0,3.48-4.9,18.34,18.34,0,0,0,1-2.09c.23-.17.45-.35.69-.51a10.11,10.11,0,0,0,2.26-1,31.64,31.64,0,0,0,15.56-3.09c.07,0,0-.12,0-.1-5.91,2.07-11.28,2-17.25,1.74.93-2.3,2-4.89,3.08-7a12.39,12.39,0,0,0,4.73.75,52.47,52.47,0,0,0,10.26,2,0,0,0,0,0,0-.09c-2.49-.69-5-1.43-7.39-2.24.6-.11,1.22-.24,1.86-.41,0,0,0,0,0,0-.66.15-1.31.28-2,.39-2.18-.72-4.33-1.5-6.43-2.36.91-1.44,1.83-2.41,2.72-2.47.07,0,.06-.1,0-.1a5.1,5.1,0,0,0-3.87,1.2l.12-.6s0,0,0,0c-.07.24-.14.49-.2.73a5.66,5.66,0,0,0-.47.52A62.26,62.26,0,0,1,104,190.7a47.44,47.44,0,0,1-4.26-3,5.64,5.64,0,0,1,2.41.1.59.59,0,0,0,.78-.48,10.94,10.94,0,0,0-.36-4.88,6.26,6.26,0,0,0,3-.21c5-1.48,6.87,2.41,8.86,5.8,0,.06.15,0,.13,0-1.15-4.46-4-8.2-9.34-7.2a7.14,7.14,0,0,1-3.57-.32l-.25-.4a.06.06,0,0,0-.1,0c0,.09.08.19.13.29a14.46,14.46,0,0,0-1.55-.33,22.09,22.09,0,0,0-4.67,0,7.72,7.72,0,0,0-4.07,1.2c-.3-.19-.6-.38-.91-.56a23.7,23.7,0,0,0,4.71-1,16.47,16.47,0,0,0,4.58-2.59c.83,0,1.66,0,2.48,0l.69.79s.09,0,.07,0l-.48-.76a38.66,38.66,0,0,0,5.26-.38,35.12,35.12,0,0,0,4.49-1c2.13,2.81,4.22,5.64,6.4,8.41,0,0,.07,0,0,0-1.62-2.89-3.33-5.92-5.26-8.76a29.81,29.81,0,0,0,4.55-1.88l.11.06c1.84,1.16,3.46,3.06,5.08,4.42a75.41,75.41,0,0,0,22.74,13.47c.28.11.52-.31.24-.45-9.65-5-19-10.68-26.19-18.61a27.18,27.18,0,0,0,3.83-2.85s0,0,0,0a26.49,26.49,0,0,1-3.89,2.78l-.09-.1c-2.42-2.7-4.45-5.38-8.65-5.2a12.47,12.47,0,0,0-5.9,2c-1,.12-2.15.46-3.13.55a27.74,27.74,0,0,1-6.17-.19,9.94,9.94,0,0,0-5.34-2.6c-.72-.05-.93,0-1.1.11,0,0,0-.09-.07-.13a3.89,3.89,0,0,1,2.56-1.18,15,15,0,0,1,2.63.54,11.65,11.65,0,0,0,3.43.27,8.2,8.2,0,0,0,4.41-2.28,10.7,10.7,0,0,0,3.15-2c.06-.06,0-.15-.08-.09a9.92,9.92,0,0,1-2.51,1.61c.19-.16.38-.32.58-.47a6.81,6.81,0,0,1,2.15-1.29c1-.29,1.93.07,2.85-.16a2.09,2.09,0,0,0,1.45-.77c1.39-1.58,1.06-4.6.5-6.37,0,0,0,0,0,0,.36,2.5.63,5.93-2.72,6.61-.75.16-1.54-.18-2.35,0-2,.5-3.27,2.17-5,3.13a37.57,37.57,0,0,1-5.6.16l-.55,0a11.87,11.87,0,0,0-4.29-.61,3.05,3.05,0,0,0-2,.87c-.23-.25-.46-.51-.7-.76,0,0,0,0,0,0,.19.34.35.66.52,1a6,6,0,0,0-.82,2.42c0,.17-.06.34-.1.51s-.26.27-.37.42a7.26,7.26,0,0,0-1.34-1.13.09.09,0,0,0-.11.15,9.13,9.13,0,0,1,1.25,1.23c-.1.14-.18.28-.27.42a6.75,6.75,0,0,0-.73.34l-.26.15a6.42,6.42,0,0,1-2.89-1.49c-.07-1.66-.1-3.32-.08-5a36.77,36.77,0,0,0,7.31-1.49A31.58,31.58,0,0,0,100,155.83c3.48-3,5.3-6.38,7.58-10.11a.85.85,0,0,0,0-.83c1.35-1.13.47-2.26,1-3.28.08-.16,1.14-1.31,1.41-1.73l.07-.13a4.51,4.51,0,0,0,.71.32,2.15,2.15,0,0,0,3.16-1.45,8.67,8.67,0,0,0,4.4.82,1.3,1.3,0,0,0,.66-.23,19.17,19.17,0,0,0,5.23.43s0-.06,0-.06a17.6,17.6,0,0,1-4.84-.94,1.19,1.19,0,0,0-1-1.49,10.59,10.59,0,0,1-4.11-1.6,2.39,2.39,0,0,1,2.27-.13c1.37.74,2.25-1.13,1.34-2-1.31-1.28-3.29-1.08-4.88-.4a9.35,9.35,0,0,0-1,.55,8,8,0,0,0-2.09-1.42,6.33,6.33,0,0,0-1.59-.44.63.63,0,0,0-.29-.2,10.92,10.92,0,0,1-1.71-.7l.44-.11c2.33-.53,2.43-.22,4.29.74,2,1,4.51,1.26,6-.52a.67.67,0,0,0,.06-.12,5.09,5.09,0,0,0,.84-.07,1.28,1.28,0,0,0,1.13-1l.15-.56a.33.33,0,0,0-.2-.36,21.09,21.09,0,0,0-2.77-1,9.15,9.15,0,0,0,2.38-1.42,1.33,1.33,0,0,0-1.62-2.12,8.17,8.17,0,0,1-4.34,1.43,4.63,4.63,0,0,1,2.86-2.3,16.71,16.71,0,0,1,4.18-.17.63.63,0,0,0,.49-1,4.47,4.47,0,0,0-2.24-1.51l.74-.38c1.31-.69.15-2.6-1.21-2.15a25.07,25.07,0,0,0-3.11,1.27c.92-1.58,2-3,4.21-3.3a1.07,1.07,0,0,0,.09-2.13,5.37,5.37,0,0,0-2.17.16c.88-1.08,1.44-2.43-.38-3.07a1.13,1.13,0,0,0-1.22.27.69.69,0,0,0-.24.73c.14.45-1.4,1.45-2,1.89a5.09,5.09,0,0,0,.16-3.57c-.34-1-2.26-.94-2.34.19a7.79,7.79,0,0,1-.27,1.47,3.44,3.44,0,0,0-.78-.68c-.4-.24-.94-.31-1.32-.57-1.48-1-.65-2.15.55-2.68.76.35,1.88-.17,1.48-1.07l-.24-.55a1.2,1.2,0,0,0-.87-.69,3.47,3.47,0,0,0-3.17-2.1c.07-.47.14-1,.2-1.43,2,1.18,4.11,2.21,6.14,3.26a12.17,12.17,0,0,0,3.6,5,1,1,0,0,0,1.57-.54,5.77,5.77,0,0,0,0-2c.85,1,1.9,2,2.49,2H120c.34,0,.75-.3.77-.66a4.8,4.8,0,0,0-.35-2.07,1.72,1.72,0,0,0,1-.43c.86,1.77,2,3.41,4.1,3.82a1,1,0,0,0,1.2-.79,10.17,10.17,0,0,0-1.23-4.84,8.34,8.34,0,0,0,4,1,.85.85,0,0,0,.67-1.34,20.35,20.35,0,0,0-4.11-3.6,2.76,2.76,0,0,0,1.28-.44.72.72,0,0,0,.32-.65,3.74,3.74,0,0,0-2-2.23c1.19.24,2.78.66,3.32-.28a1.7,1.7,0,0,0,.24-.85,5.23,5.23,0,0,0,2.42.52,1,1,0,0,0,.95-1,3.53,3.53,0,0,0-.26-1,2.32,2.32,0,0,0,.54-.69,4,4,0,0,0,3-.43.87.87,0,0,0,.34-1,2.49,2.49,0,0,0-.52-.89.85.85,0,0,0,.17-.1l.12-.09a5.13,5.13,0,0,0,.5.58,2.23,2.23,0,0,0,3.53-.06,8.07,8.07,0,0,0,3.59,2.49,1.17,1.17,0,0,0,1.15-2,9.55,9.55,0,0,1-3-3.08,2.35,2.35,0,0,1,2.11.79c.89,1.21,2.55-.12,2.14-1.28-.6-1.68-2.47-2.29-4.23-2.31a9.39,9.39,0,0,0-1.19.09A7.28,7.28,0,0,0,139.29,85a5.69,5.69,0,0,0-1.23-1,.52.52,0,0,0-.17-.29,9.93,9.93,0,0,1-1.22-1.31l.45.07c2.35.44,2.29.77,3.53,2.37s3.5,2.94,5.64,1.91a.43.43,0,0,0,.1-.09,6.12,6.12,0,0,0,.79.28,1.39,1.39,0,0,0,1.47-.42l.4-.45a.33.33,0,0,0,0-.41,19.45,19.45,0,0,0-2-2,9.61,9.61,0,0,0,2.81-.33,1.31,1.31,0,1,0-.48-2.57,8.27,8.27,0,0,1-4.59-.42,5,5,0,0,1,3.66-1,15.9,15.9,0,0,1,3.84,1.51.67.67,0,0,0,.91-.7,4,4,0,0,0-1.33-2.27l.85,0c1.51-.11,1.33-2.29-.11-2.42a22.41,22.41,0,0,0-3.39-.09c1.57-1.06,3.19-1.88,5.33-1.32,1.2.32,2.23-1.18,1.07-1.88a5.32,5.32,0,0,0-2-.72c1.29-.62,2.42-1.62,1.08-2.92a1.14,1.14,0,0,0-1.23-.25.74.74,0,0,0-.55.57c-.09.46-1.94.75-2.65.92A5.39,5.39,0,0,0,152,66.56a1.24,1.24,0,0,0-2.21-.76,7.49,7.49,0,0,1-.93,1.23,2.77,2.77,0,0,0-.38-.93c-.25-.38-.71-.66-.94-1-.88-1.47.42-2.2,1.75-2.2.52.61,1.77.59,1.83-.38l0-.59a1.09,1.09,0,0,0-.47-1c0-2.29-1.6-3.79-4.32-3.4-.64.09-.88.78-1.44.93a6.23,6.23,0,0,1-2.89-.1,23.85,23.85,0,0,1,2.84-3.1,4.29,4.29,0,0,1,3.36-1,56.54,56.54,0,0,0,5.45,7.69,11.38,11.38,0,0,0,.91,6,1,1,0,0,0,1.68.13,6,6,0,0,0,.94-1.82c.32,1.21.78,2.6,1.35,2.77l.08,0a.89.89,0,0,0,1-.29,4.81,4.81,0,0,0,.64-2,1.76,1.76,0,0,0,1.11,0c0,1.93.23,3.87,1.95,5.07a1.08,1.08,0,0,0,1.44-.23,10,10,0,0,0,1.12-4.86A7.9,7.9,0,0,0,169,69.15a.91.91,0,0,0,1.23-.94,18.61,18.61,0,0,0-2.05-4.89,2.82,2.82,0,0,0,1.36.11.76.76,0,0,0,.59-.46,3.45,3.45,0,0,0-.81-2.82c1,.69,2.22,1.7,3.13,1.07a2,2,0,0,0,.62-.67A4.81,4.81,0,0,0,175,62a1.09,1.09,0,0,0,1.35-.58,3.69,3.69,0,0,0,.15-1.93c1.16.74,2.28,1.64,3.77,1.37a.93.93,0,0,0,.77-.77A3.43,3.43,0,0,0,179.54,57a11.94,11.94,0,0,0,2.16-.1,1.36,1.36,0,0,0,.26-2.64c-1.75-.62-3.6-1-5.41-1.46a3,3,0,0,0,1.2-1.4,1.1,1.1,0,0,0-.05-.85c.55-.09,1.09-.2,1.64-.34,2-.5,2.12-3.29-.14-3.48l-1.46-.09a1,1,0,0,0-.23-.18c-1.9-1-3.19-2.48-5-3.35a12,12,0,0,0,3.23,0,1.12,1.12,0,0,0,.94-1.27,5.11,5.11,0,0,0,4.57,1,1.18,1.18,0,0,0,.35-2,23.33,23.33,0,0,0,2.34.73,1.84,1.84,0,0,0,2-.58l.19-.32c.58-1.09-1.22-2.31-3.19-3.28.2,0,.39-.08.59-.12,2.81-.48,7.59.38,8.45-2.94a1.24,1.24,0,0,0-1.07-1.62,9.37,9.37,0,0,0,3.45-3.84l3.23-1.1c-.09.88-.15,1.75-.17,2.56,0,.63.93.75,1.23.25a16.17,16.17,0,0,0,1.56-3.7l1.22-.4h0a1,1,0,0,0,.59.86c.11,0,.31.18.47.14a1.17,1.17,0,0,0,.87-.53c-.22,3.64,2.29,7.41,5.55,9.22.4.22.95-.2.78-.61C208.28,32.1,204,27.69,207,24.62l1.7-.51c-1.3,2.55-1.52,6,.6,8.21a.63.63,0,0,0,1-.45c0-2.32-.23-4.46.58-6.39-.42,3.2.5,8.07,2.73,9.49a.09.09,0,0,0,.12,0c1.71-2.43-.6-5.95-.35-8.69a3.4,3.4,0,0,1,.07-.46,22.63,22.63,0,0,0,2.13,4.33.54.54,0,0,0,.88,0,4,4,0,0,0,.17-3.4c-.28-1-.82-1.83-1.08-2.78a7.81,7.81,0,0,1-.23-.95,12.85,12.85,0,0,1,2-1.4l.3-.09a3.83,3.83,0,0,0-.85.76,3,3,0,0,0-.22,3.2c.54,1.35.66,3.2,1.58,4.33a.39.39,0,0,0,.56,0,3,3,0,0,0,.79-2.6c-.09-1.26-1.25-2.87-.19-3.8a13.93,13.93,0,0,0,3.17,9.4.6.6,0,0,0,1.08-.32c-.1-3.53-2.79-7-1.37-10.4l.32-.13a11.33,11.33,0,0,0,1.9,7.09c0,.29.05.58.1.88,0,.1.16.22.28.13l.18-.15a19.34,19.34,0,0,0,2.21,2.69c.68.69,1.71-.16,1.51-.91a20.31,20.31,0,0,0-1.94-4.12c.29-.58.56-1.19.87-1.82l.09-.18c2.87,3.06,7.42-.91,10.11-2.23a17.78,17.78,0,0,1,2.22-.9,10.16,10.16,0,0,0-1.17,6.64c-2.35,1.17-4.54,2.71-5.21,4.82a.33.33,0,0,0,.35.39c2.34-.25,4.57-1.67,6.77-3-.11.53-.22,1.06-.32,1.59-2.65,2.39-2.49,6.27-3.74,9.31a.66.66,0,0,0,1,.81c3-2,2.14-5.83,4.59-8.14a7.45,7.45,0,0,1,1.73-1.2,5.48,5.48,0,0,0-2.44,3.69.24.24,0,0,0,.25.22,6.53,6.53,0,0,0,2.29-.73c-.23,1-.36,2-.51,3-.32,2.13-1,4.37-.25,6.45a.32.32,0,0,0,.52.1c2.62-3.16,1.18-8,3.72-11.13A5.36,5.36,0,0,1,249,34l.75-.27c-1.29,1.82-1.8,5.11-.58,7a.26.26,0,0,0,.39,0c1-1,1.09-2.26,1.38-3.55a5.06,5.06,0,0,1,1.71-2.95c-.13.39-.24.77-.34,1.16a12.42,12.42,0,0,0-.46,1.74,12.86,12.86,0,0,0-.77,3.85c0,.84,1.2,1,1.63.34a10.54,10.54,0,0,0,1.24-3.2q.45-.93.84-1.89a14.08,14.08,0,0,0,.25,3c.1.51.48,2.61,1.15,2.82l.27.08a.68.68,0,0,0,.8-.47,2.91,2.91,0,0,0,.18-1,14,14,0,0,0,1.08,2.35.39.39,0,0,0,.68-.11c.89-3.32-1.15-6.58-.33-10.08a9.63,9.63,0,0,1,.41-1.32c0,2,.18,4.52,1.25,6a.44.44,0,0,0,.72,0c1.16-1.58.6-3.78.51-5.58.22.57.43,1.13.58,1.64,1.7,5.85-2.57,9.73-3.8,15a.31.31,0,0,0,.47.3,16.27,16.27,0,0,0,5.77-9c-.19.82-.38,1.65-.5,2.53a.37.37,0,0,0,.55.36c2.11-1.1,2.77-3.38,2.82-5.66.14.7.25,1.42.36,2.14a8.3,8.3,0,0,1-.77,1.82c-1.09,2-3.34,4.49-2.93,6.82a.11.11,0,0,0,.14.08c2.53-.89,4.45-4.88,5.53-7a7.09,7.09,0,0,0,.44-1.09c.53,1,1,2,1.47,3.09,1.43,3.46,1.95,7.17,3.34,10.61.19.48,1.11.56,1.18-.05.56-4.88-1.49-10.28-3.67-14.75a19.93,19.93,0,0,1,2.56,5.12c.74,2.1,1.36,4,3,5.65.56.55,1.62-.11,1.34-.8-1.64-4-2.43-8.67-5.28-12.15a33.83,33.83,0,0,0-2.77-2.85l1.53.63a18,18,0,0,1,5.38,3.78A.29.29,0,0,0,279,38c.55-2.37-1.51-4-3.55-5.16,0-.35-.11-.69-.19-1a8.63,8.63,0,0,0,2,1.42c.23.12.6-.06.55-.33-.24-1.57-1.22-2.47-1.85-3.88a6.06,6.06,0,0,1-.5-1.78c.16-.12.32-.24.47-.37-.21,2.26,1.53,4.73,3,6.33.3.32,1.09.26,1-.3-.41-2.59-2.05-4.52-1.06-7.19.12-.34.25-.64.38-.94a4.85,4.85,0,0,0,0,1.07,15.62,15.62,0,0,0,3.9,7.85.46.46,0,0,0,.76-.33c0-2.15-1.15-3.89-1.77-5.92a8.34,8.34,0,0,1-.2-3.45,16,16,0,0,0,2,3.84.67.67,0,0,0,1.21-.36,21.34,21.34,0,0,0-.85-4.72c2.13,1,4.55,1.78,6.49,2.72a22.1,22.1,0,0,1,4.93,3.08c1,.83,1.33,1.49,2.67,1.43a.22.22,0,0,0,.19-.15c.54-2.51-3.77-4.79-5.75-5.83-1-.53-2.13-1.15-3.31-1.77A3.19,3.19,0,0,0,290.9,22c.4-.18.71-.63.39-1A3.58,3.58,0,0,0,289,19.79c-.46-.12-.91-.26-1.36-.4a10,10,0,0,1,3.08.05c3.6.67,4.78,2.81,6.45,5.48a.52.52,0,0,0,.9-.15c1-3.07-1.54-5.54-4.48-6.83-.57-3.23-3.9-6-7.25-6.73A7.12,7.12,0,0,0,285,11a6.39,6.39,0,0,0-2.1-3.08,11.79,11.79,0,0,0,4.87.73.61.61,0,0,0,.28-1.15c-.47-.25-.95-.48-1.44-.7L290,6.29C307.51,3.62,325.13,1.61,342.79,0H0V576H1024Zm-589.74,42a11.67,11.67,0,0,0,1.56-.93,2.71,2.71,0,0,0,1.18-2.58.48.48,0,0,0-.61-.43q-2.08-1.59-.84-3a14.58,14.58,0,0,1,1.07-1.31,4.85,4.85,0,0,1,2.22-1.25c.74-.2,1.38-.2,1.91-.79.25-.29.23-.69.44-1,.79-1,1.46-.68,2.36-.92a5.71,5.71,0,0,0,2-1.28,5.67,5.67,0,0,1,2.33-1.08c-.13.1-.26.19-.38.3a4.74,4.74,0,0,1-2.42,1.47,3.45,3.45,0,0,0-2.18,1.6c-2,2.77-2.78,6-5.17,8.56-.87.94-2.05,1.73-2.5,2.93a3.9,3.9,0,0,0-.16,2.21,10.92,10.92,0,0,1-2.09.44C431.42,443.83,433.4,442.09,434.26,441.58ZM282.32,296.46a9.52,9.52,0,0,0,5.93-2c-1.25,1.32-2.64,2.55-4.05,3.77-.76-.29-1.55-.65-2.34-1C282,297,282.16,296.72,282.32,296.46Zm-1.16,2.24.57.2c.44.16.86.29,1.27.4l-.65.57c-.54,0-1.09,0-1.63,0C280.85,299.49,281,299.09,281.16,298.7Zm-58.89-5.29a11.85,11.85,0,0,0,3.91,4.09,10.08,10.08,0,0,0,1.2,3.52A10.63,10.63,0,0,1,222.27,293.41Zm-109-96.5c1.35.53,2.72,1,4.1,1.42a11.38,11.38,0,0,1-4.41-.81C113,197.32,113.14,197.1,113.25,196.91Zm-14.56-32,.42,0A6.65,6.65,0,0,1,96,165C96.84,165,97.76,165,98.69,164.92ZM291.17,17.15l-.46-.09a12.22,12.22,0,0,0-1.78-.15A11.83,11.83,0,0,0,286,13.53C288.09,14,289.67,15.54,291.17,17.15ZM282,13.8c1.41,1.06,2.68,2.34,4.06,3.39l-1.63.32a10.43,10.43,0,0,1-1.32.18c-.47-.2-.95-.38-1.42-.54a8.35,8.35,0,0,0-3-2.66A31.74,31.74,0,0,0,282,13.8ZM241.52,27.86l-.47.2c.37-2,.55-3.6,1.83-5.2A16.94,16.94,0,0,0,241.52,27.86Zm-6.27-7.61a50.62,50.62,0,0,1,6.06-.78l-1.42.4a23.8,23.8,0,0,0-5.55,2.58l-1.06.7a7.09,7.09,0,0,1-4.12,1.19,5.77,5.77,0,0,0-1,.4C229.77,22.19,232,20.94,235.25,20.25ZM154,45.93l.42.41c.42.4.84.82,1.26,1.23.47,1.73,1.21,3.44,1.58,5.19-1.95-.79-3.86-1.64-5.76-2.53a.56.56,0,0,0,0-.12,3.21,3.21,0,0,0-2.28-1.67C150.75,47.59,152.35,46.75,154,45.93ZM139.65,79.56a2.64,2.64,0,0,0,.19.51c-2.07-.82-2.38,0-4.52-1.52a16.74,16.74,0,0,1,.3-2.11,5.31,5.31,0,0,1,2.56,1.45Zm-5.59-12.84a14.74,14.74,0,0,1,3,.69c1.34.56.09,1.35-.85,1.34-.71,0-1.42-.17-2.12-.26L133,68.35A3.33,3.33,0,0,0,134.06,66.72ZM128.33,77.3a.93.93,0,0,0,.31-.5,10.42,10.42,0,0,1,3.16,2.94,6.68,6.68,0,0,0,1.33,1.41A5.91,5.91,0,0,0,134.25,83c-.72-.48-1.43-.95-2.13-1.44-1.79-1.27-3-2.13-3.8-4.24ZM123,64a14.82,14.82,0,0,1-2.33,3.7,7.39,7.39,0,0,0-3.48,1.64,4.41,4.41,0,0,0-.3-.74A72.79,72.79,0,0,1,123,64Zm-26.4,81.17c-.42-.06-.86-.09-1.34-.11A5.76,5.76,0,0,1,92,144c2-2.12,3.65-4.58,3.92-7.12,1.86,1,2,1.74,1.54,3.58-.36,1.34-.68,1.4-.33,2.78a1,1,0,0,0,.83.75C97.51,144.41,97.08,144.79,96.64,145.16Zm3.34,4a3.31,3.31,0,0,0,0-.33c0-.55-.53-1-1.09-1.12a1.22,1.22,0,0,0-.25-1.7l0,0,2-1.88a8.84,8.84,0,0,0,2.91,1.12,12,12,0,0,0,1.33.31A25.14,25.14,0,0,1,100,149.19Zm5.63-23,2.11.93a3.59,3.59,0,0,0,.4.38c-2.25.09-2.17.92-4.78.43a16.22,16.22,0,0,1-.7-2A5.65,5.65,0,0,1,105.61,126.15Zm-5.43-9c.91.19.23,1.2-.54,1.52l-.64.22C99.4,118.32,99.79,117.74,100.18,117.15ZM96,128.9a11.26,11.26,0,0,1,4.71,1.46,7.33,7.33,0,0,0,1.86.75,6.58,6.58,0,0,0,1.86,1.22c-.86-.15-1.73-.29-2.59-.46-2.2-.44-3.7-.73-5.4-2.33a7.45,7.45,0,0,1-.63-.66Zm-4.51.43a7.14,7.14,0,0,1,1.92,1.33c-.9-.09-1.8-.14-2.68-.14C91,130.12,91.22,129.72,91.48,129.33Zm69.75,148.38-.48.19a8.81,8.81,0,0,1-.36-1.21l.42-.26A9.58,9.58,0,0,0,161.23,277.71Zm-.95-4.64.17-.1a12.25,12.25,0,0,0,.3,3.21l-.41.26A9.3,9.3,0,0,1,160.28,273.07Zm-.24,8.47c.15.22.3.44.47.66l-.61.33C159.94,282.2,160,281.87,160,281.54Zm-4.17,4.88-.87.41-1.08,0c.61-.33,1.2-.68,1.8-1C155.76,286,155.82,286.21,155.87,286.42Zm-.58-3.82c-.45-.47-.91-1-1.38-1.42l1.25-.47C155.2,281.34,155.23,282,155.29,282.6ZM153,277.43l1.93-1.19c.09,1.07.15,2.17.2,3.28-.61.35-1.21.72-1.82,1.06-.27-.27-.56-.53-.84-.79C152.61,279,152.79,278.19,153,277.43Zm0,4.1c-.32.39-.66.76-1,1.13,0-.27.07-.53.11-.8Zm-.9-3.56c-.18.34-.35.69-.51,1l-.49-.43Zm-1.69,1,.86.73c-.25.59-.48,1.2-.68,1.81-.75.23-1.51.45-2.27.66h0c.07,0,0-.16-.09-.12l-.45.28-.52.15a.23.23,0,0,0-.34-.28l-1.14.65c.12-.43.24-.87.34-1.31Zm-22.14,1.2c.79-.64,1.57-1.3,2.34-2l1,.25c-.42.47-.84.95-1.24,1.44l-1.31.39Zm.72,3.95c-.18.18-.34.36-.52.53l-.8.4v0c.32-.31.63-.65.94-1Zm.5-7,1.88-.68c-.36.3-.74.59-1.11.88Zm1.21,4.34.13-.13.77.12c-.6.65-1.2,1.3-1.83,1.93l-.48-.12C129.75,282.66,130.22,282.05,130.69,281.44Zm2,.18.67.11c-.5.41-1,.84-1.51,1.24l-.41.22-.19.09C131.78,282.74,132.25,282.17,132.73,281.62Zm-.58-3.79-.83-.24c.71-.62,1.41-1.25,2.1-1.91l.78-.27c0,.16,0,.33,0,.5-.21.17-.42.34-.62.53C133.05,276.89,132.6,277.35,132.15,277.83Zm2-3.83-3.69,1.07,3.85-1.77,0,.59A.69.69,0,0,0,134.16,274Zm-26.52-24.13c0,.17.1.33.16.5-.76.36-1.53.72-2.31,1.06,0-.12,0-.24,0-.36.3-.15.61-.28.91-.45Zm-.47-4.26-.83-1.92c.88-.52,1.74-1,2.61-1.46.16.74.31,1.48.46,2.23C108.65,244.8,107.9,245.2,107.17,245.61Zm1.82,8.55c.17.58.33,1.16.5,1.75-.12.21-.25.42-.38.63-.66-.52-1.32-1-2-1.55C107.74,254.72,108.37,254.45,109,254.16Zm-.11-4.31-.22-.57c.51-.3,1-.57,1.5-.82,0,.23.08.47.12.7Zm.93-5.56-.57-2.2q.51-.26,1-.48c.23.75.44,1.5.66,2.25C110.55,244,110.17,244.13,109.81,244.29Zm.5-7.15c-.29.08-.57.18-.85.27-.28-.71-.58-1.43-.87-2.14.94.34,1.87.68,2.81,1,0,.2,0,.4.07.6C111.09,236.94,110.7,237,110.31,237.14Zm-1.85-3.43-.47-.16c1-.13,2-.2,3.07-.25.06.49.11,1,.17,1.48C110.3,234.43,109.38,234.05,108.46,233.71Zm2.84-.42c2.51-.11,5-.08,7.5-.3a23.37,23.37,0,0,0-3.71,3,21.26,21.26,0,0,1-3.53-1C111.48,234.37,111.39,233.83,111.3,233.29Zm8.9,2.42a12.43,12.43,0,0,1-2.94.44,19.05,19.05,0,0,0,2.52-1.76Q120,235,120.2,235.71Zm-.22-1.47a8.7,8.7,0,0,1,2.76-1.53l.2,0c-.29.5-.55,1-.83,1.51s-.45.81-.66,1.15c-.32.11-.64.21-1,.3C120.32,235.16,120.16,234.7,120,234.24Zm.32,2.62a5.9,5.9,0,0,1-.5.5h0l-1-.2C119.25,237.08,119.78,237,120.3,236.86Zm-.54,3.61.73.06c-.4,1.08-.79,2.17-1.18,3.25l-.67-.14c.16-.34.32-.69.49-1s-.28-.34-.38-.12-.34.71-.52,1.07a18.67,18.67,0,0,0-3.68-.34C116,242,118,241.38,119.76,240.47Zm-1.65,9.35.45-.17c.1.62.19,1.24.28,1.86l-1.59,1.54C117.52,252,117.81,250.9,118.11,249.82Zm.82,2.29c.1.77.18,1.54.26,2.3-.85.33-1.7.67-2.54,1,.11-.45.23-.9.34-1.35C117.64,253.43,118.29,252.77,118.93,252.11Zm0-2.6.68-.26a14.59,14.59,0,0,1,2-.52c-.77.81-1.57,1.6-2.36,2.39C119.13,250.58,119,250.05,118.92,249.51Zm.93-5.6c.35-1.11.71-2.23,1.08-3.34h.44c.22,1.3.4,2.6.53,3.92C121.22,244.29,120.53,244.09,119.85,243.91Zm2-3.3h.2a24.84,24.84,0,0,1,.73,4.18l-.22-.08C122.4,243.34,122.17,242,121.88,240.61Zm1,20.55c0-.26,0-.52,0-.79.57-.37,1.13-.75,1.69-1.13-.18.34-.37.67-.55,1l-.24.2.24-.19c-.43.8-.86,1.6-1.3,2.4,0-.48.07-1,.1-1.45l.62-.49Zm5.58-9.46-.36.72c-.12.15-.25.3-.38.44l.15-1Zm-.56-.09c0-.24.08-.48.11-.72l.74.23-.15.31Zm.79.42.39-.47.65-.14,2.37.7a27.84,27.84,0,0,0-3.52,3.76c-.52.38-1,.77-1.57,1.14l-.12-.12c.16-.64.31-1.27.45-1.91Zm14.84,9.54c-.13.3-.27.6-.41.9-.75.35-1.49.71-2.21,1.09l.18-.15-.19.15-1.77,1c0-.29,0-.59,0-.88,1.66-1.33,3.33-2.62,5-3.84-.17.54-.35,1.08-.57,1.61l-2.36,1.89C142,262.71,142.78,262.14,143.55,261.57Zm-4.67,8.67c0-.17,0-.35,0-.53.21-.27.39-.55.6-.83.18.12.36.22.54.35s.45-.17.24-.34l-.52-.37c.3-.42.62-.83.9-1.26l3.2-1.95q-1.27,2-2.6,3.92Zm1.48.29-.18.25-.85.86-.32-.49Zm-1.26-4.17c0-.05,0-.11,0-.17,1-.71,2.11-1.39,3.19-2.06-.13.24-.26.48-.4.72C141,265.34,140,265.84,139.1,266.36Zm.07-3.89c0-1.61,0-3.22-.14-4.83.87-.85,1.73-1.71,2.61-2.55a35.65,35.65,0,0,1,5.19,2.37C144.19,259,141.66,260.72,139.17,262.47Zm-.06-6.15.81-1.85.91.32C140.25,255.29,139.69,255.81,139.11,256.32Zm-.18-.38c0-.31-.05-.61-.07-.91.24-.23.48-.45.74-.67l.05,0Zm1.36,18.47.49.95c-.74.68-1.47,1.35-2.22,2l-.55.18c.15-.94.28-1.88.4-2.82A8.12,8.12,0,0,1,140.29,274.41Zm5.82,5.7-.12.49-2.11,1.18c-.06-.22-.12-.43-.19-.65C144.5,280.79,145.31,280.46,146.11,280.11Zm-2,0,2.2-1.26c0,.13-.05.25-.07.38C145.55,279.55,144.85,279.86,144.13,280.14Zm-6.9-10.82.6.91s0,.07,0,.11c-.17.2-.36.39-.54.58l-1.64.7c0-.45,0-.9,0-1.35Zm-1.5-2.87c.87-.73,1.74-1.44,2.61-2.15,0,.23,0,.46,0,.69-.83.48-1.65,1-2.46,1.49Zm5.22,35,1.12.14c.45.32.9.66,1.35,1-.21.31-.41.62-.61.93-.8-.42-1.62-.81-2.43-1.21C140.58,302,140.77,301.72,141,301.43Zm-2.62-11.34.68-.51,3.44.39-.09.2-1.19.72C140.22,290.61,139.27,290.35,138.33,290.09Zm4.18,10.61-.77-.57.11-.19L143,300c.11.29.24.57.37.84Zm.33-11.52-2.54-.39a8.19,8.19,0,0,1,1.33-.57l1.41.55C143,288.91,142.91,289,142.84,289.18Zm-3.1-2.73-1.22-.44.91-.52c1.09-.24,2.16-.53,3.24-.81Zm-.81-1.94c-.69.14-1.39.25-2.08.38l.18-.29.38-.61,1.82-1h0c.59.13,1.18.28,1.77.43Zm-.27-5.24-.29.33-.22.12-.48-.18,0-.19,1-.89.65-.25C139.09,278.57,138.88,278.92,138.66,279.27Zm-1.74-7.16.71-.33-.18,1.27-1.86.53v0C136.05,273.07,136.49,272.59,136.92,272.11Zm-.65,3.58c.14-.09.28-.18.43-.26-.42.55-.85,1.1-1.29,1.64l0-.5Zm.62.68c-.1.55-.22,1.09-.33,1.63l-1.15.36C135.92,277.71,136.39,277,136.89,276.37Zm-1.18,11.53,1.76-.06-.75.46-1.08-.15C135.67,288.06,135.69,288,135.71,287.9Zm1.73,2.94,2.69.66-.12.07c-.95-.17-1.9-.32-2.86-.48Zm2.65,3.47,0,0-1.09.55-1.34-.11c.61-.26,1.22-.53,1.82-.81Zm-2.45,5.32,1.75.13.81.53c-.9-.15-1.81-.27-2.72-.39Zm2.14,1.65-.4.51-.1-.05-.67-.61Zm-2.3,4.4,1.09.49c-.54.07-1,.12-1.2.13l-.59,0C137,306.11,137.26,305.9,137.48,305.68Zm.4-.41,0,0,1.4.24.74.51-.55.06C139,305.79,138.42,305.52,137.88,305.27Zm2.37,2.1-.47.7c-.36-.21-.73-.43-1.1-.63Zm-1.2-3.38.26-.33.4.14L141,305Zm2.22,3.48c1.08.54,2.16,1.08,3.21,1.65l.93.69c-.25.35-.49.7-.75,1l-4.07-2.32Zm4.81,2.83.34.24c.31.34.6.69.9,1,0,.14,0,.29.05.44l-.51.09-1.47-.84C145.62,310.94,145.86,310.63,146.08,310.3Zm.55-2.27-.52-.49a.3.3,0,0,0-.44,0l-.55-.31c.74,0,1.41,0,2,0Zm.18-2.51-1.2-.46c-.68-.4-1.35-.81-2.05-1.18.18-.28.36-.55.53-.83.87.65,1.74,1.31,2.59,2,.2.17.41.32.62.48l0,0Zm-1.54-12.17,1,.2a17,17,0,0,0,1,2h-.1l-3.1-1.3.06-.27C144.56,293.76,144.92,293.56,145.27,293.35Zm-.68-1.4.06-.38.82-.39c0,.13.07.26.11.39l-.84.43Zm3.43,1.21c-.2-.35-.39-.7-.57-1.06l1.5-.87.18.09a15.16,15.16,0,0,0-.61,1.95Zm.22,4.61-.92,0,.19-.32.7.06Zm-.06-9.47a11.35,11.35,0,0,0-1.25-.66l.08-.06,2.67-.06v.1Zm-.86.39-1,.44-.11-.05c-.08-.24-.14-.48-.2-.72l.13-.11A7.2,7.2,0,0,1,147.32,288.69Zm-.75,6.79-2.7-.21c.08-.28.14-.55.21-.83ZM145,297.26l.61.42-1.08,0-.79-.33s0-.09-.05-.13Zm.83,3.49-.21-.25.15-.26c1.16.37,2.31.76,3.46,1.15.13.29.28.57.43.85l-.33-.09C148.21,301.67,147,301.21,145.87,300.75ZM149.8,303c-.14.25-.3.5-.45.75a13.77,13.77,0,0,1-1.66-1.17Zm-.13-16.5-.62-.62.71-.67Q149.69,285.82,149.67,286.46Zm-.15.26-1.44,0c.25-.21.49-.43.73-.65C149.06,286.27,149.29,286.5,149.52,286.72Zm-2.06,0-1.82,0c-.07-.38-.12-.75-.17-1.13l1.55-.89c.52.38,1,.77,1.52,1.18C148.18,286.12,147.83,286.41,147.46,286.69Zm-.53-2.58-.63-.42c1.06-.3,2.11-.6,3.15-.94Zm-.39.21-.29.16-.87-.27c0-.07.05-.14.07-.21l.17-.1.17-.06ZM145.33,283l-.07,0-.8-.47,1.22-.73C145.57,282.22,145.46,282.61,145.33,283Zm-1.6,2.07c0,.23.05.45.07.68l-1.71.88h-.87Zm-2.18-2-1.59-.43c.68-.26,1.34-.54,2-.81l1,.46Zm-1-2.41c-.31-.13-.63-.27-1-.39l.11-.18,2.41-1.42c.13.37.28.73.4,1.11Zm.15-2.33c.14-.26.28-.52.41-.78a.3.3,0,0,0,.08-.08l.42-.15c.06.13.11.27.17.41Zm1.63-.91c0-.11-.08-.22-.13-.33.78-.29,1.57-.58,2.35-.89C143.86,276.63,143.11,277,142.37,277.43Zm-.3-1.66c.2-.38.39-.77.58-1.16l.54.13Zm-.27-2.12a10.2,10.2,0,0,0-1.34-.1,3.37,3.37,0,0,0-.19-.32l2.13-.77C142.21,272.86,142,273.26,141.8,273.65ZM138.4,263c-1,.72-2,1.45-3,2.19,0-.19,0-.38,0-.56,1-2.07,1.91-4.12,2.8-6.12l.32-.32C138.49,259.8,138.47,261.41,138.4,263Zm-5.77-7.53.54-1c.23,1.39.44,2.78.61,4.17-.93.81-1.86,1.62-2.77,2.45l-.11-.12C131.49,259.17,132.06,257.32,132.63,255.48Zm-2.1,5.13-.49-.52c.59-1,1.19-2.09,1.77-3.15C131.39,258.17,131,259.39,130.53,260.61Zm3.35-1c0,.34.07.68.1,1l-.87,1.19-.81.76-.68-.76C132.37,261,133.11,260.29,133.88,259.57Zm0,5.3.45.54c-.1.19-.19.38-.29.56l-.52-.11Zm-.15-11.35.45-.81c1.22.35,2.45.71,3.68,1.09-.38.8-.76,1.61-1.12,2.42-.72.6-1.46,1.18-2.16,1.78C134.31,256.5,134,255,133.71,253.52Zm2.47,3.92c-.07.14-.13.29-.19.43-.41.54-.81,1.09-1.21,1.64,0-.24-.07-.48-.11-.72C135.16,258.33,135.67,257.88,136.18,257.44Zm-1.11,4.13,2.26-2.26q-1,2.13-2.07,4.23-.09-1-.21-1.92Zm.94-2.45c.19-.49.38-1,.58-1.46l1.19-1.62a.13.13,0,0,0,0-.06l.6-.53c0,.49,0,1,.05,1.47C137.62,257.65,136.81,258.39,136,259.12Zm1.4-3.47c.25-.58.5-1.17.76-1.75l.14,0c0,.31,0,.62.05.92C138,255.14,137.73,255.4,137.41,255.65Zm-1.62-5.71a18.67,18.67,0,0,1,2.06-1.14c.08.65.15,1.3.22,2Zm.13-.42.73-1.33c0-.09-.09-.18-.14-.09l-.9,1.57a2.53,2.53,0,0,1-.23.12l-1-.35c-.6-.22-1.23-.47-1.87-.73-.06-.22-.11-.44-.18-.66a16,16,0,0,0,3.58-.77,14.86,14.86,0,0,0,1.63-.71q.15,1,.27,2A19.73,19.73,0,0,0,135.92,249.52Zm-3.16,2.79c.08.39.16.77.23,1.16l-.66,1.94q-1.28,2.19-2.58,4.38c-.56-.59-1.13-1.18-1.71-1.76.62-.92,1.25-1.82,1.94-2.68l.16-.12a.14.14,0,0,0,.05-.1l.34-.29c.05,0,0-.1-.05-.08A26.54,26.54,0,0,1,132.76,252.31Zm-8.89,14.22c.58-.07,1.16-.12,1.74-.17-.9.9-1.79,1.82-2.66,2.75Zm-1.27-1.4c0-.18,0-.37,0-.55q1.35-2.58,2.63-5.19c-.32,1-.66,2-1,2.95Zm1.58.51.23-.65q1.38-1.23,2.73-2.49s0-.09,0-.06c-.82.74-1.68,1.47-2.56,2.19.22-.62.44-1.24.65-1.87.85-1.54,1.76-3.07,2.74-4.55l1.7,1.81c-1.1,1.83-2.19,3.65-3.3,5.47Zm2.51-11.2c-.14.57-.29,1.15-.45,1.73l0,0-.56-.55Zm-1.22,1-.19-.19c.61-1.09,1.24-2.17,1.92-3.22h0c-.12.63-.26,1.25-.4,1.88Zm1-3.45c-.9.25-1.79.52-2.68.8.11-1.12.19-2.24.22-3.35,1,.38,2,.75,3,1.09l.38.12C127,251.11,126.74,251.57,126.43,252Zm-.22.31c-.53.78-1,1.55-1.55,2.34l-.47-.46c0-.05-.13,0-.08.07s.32.34.49.5c-.49.78-1,1.56-1.42,2.35.22-1.34.41-2.68.55-4C124.55,252.83,125.38,252.57,126.21,252.33ZM124,257.65c.53-.63,1.06-1.25,1.58-1.88l.58.59c-.33.65-.67,1.3-1,1.95L123,259.7a.66.66,0,0,0,0-.14C123.33,258.92,123.65,258.28,124,257.65Zm-.57,16.05c.23-.26.47-.51.71-.76l.3.37-.39.52-2,1.44h0C122.48,274.73,122.94,274.21,123.41,273.7Zm.47-2.87c.46-.77.9-1.55,1.35-2.32.69-.77,1.4-1.51,2.1-2.27.38,0,.76,0,1.14,0C126.92,267.72,125.39,269.27,123.88,270.83Zm4.21-5.4c.39-.42.76-.84,1.16-1.26-.15.42-.31.84-.47,1.26Zm-.44-1.1c.76-1.33,1.5-2.66,2.25-4l.53.57c-.14.38-.26.76-.4,1.14C129.22,262.79,128.44,263.57,127.65,264.33Zm2.56-1.18L131.4,262c.23.25.45.51.68.77-.84.79-1.69,1.57-2.52,2.38C129.78,264.48,130,263.81,130.21,263.15Zm2.72.59.39.47c-.2.51-.41,1-.61,1.51-.51-.08-1-.14-1.53-.19Zm1.46,7.25c0,.39,0,.78,0,1.16l-3.68,1.56h0l.46-.8Zm1.55,21.24,1.38.66L134.55,294l-.31-.11C134.8,293.35,135.37,292.79,135.94,292.23Zm-.61,11.18,1.87.88-.06.06-2.09-.48C135.14,303.72,135.23,303.56,135.33,303.41Zm.38,1.45.59.27c-.23.2-.44.41-.67.6l-1.27-.71c.07-.13.14-.25.22-.37Zm.54,2.7h.17l2.73,1.45-.52.78-.66-.5C137.41,308.7,136.83,308.13,136.25,307.56Zm1.63,3.32-.47.7-.9-.68a11.26,11.26,0,0,0-.3-1.72C136.78,309.73,137.32,310.32,137.88,310.88Zm.68.7c.49.5,1,1,1.47,1.5l-.58.06-1.28-1Zm.52,2.88h.24l1.62,1.2-.52.6c-.5-.59-1-1.19-1.5-1.77Zm.31-4.1c.2-.3.41-.6.61-.91l4.09,2.18-.79,1.05-.73.11C141.49,312,140.44,311.15,139.39,310.36Zm7.47,2.75.81.43c0,.16.09.31.13.47-1.31-.13-2.62-.24-3.93-.31C144.87,313.51,145.87,313.32,146.86,313.11Zm.43-4.65c.22-.34.46-.68.68-1l1.05.5c.75.48,1.49,1,2.23,1.48,0,.44,0,.88,0,1.31C149.91,310,148.61,309.2,147.29,308.46Zm1.51-22.84c-.46-.4-.93-.8-1.43-1.17l2.82-1.6a17.92,17.92,0,0,0-.38,1.91C149.48,285.05,149.15,285.34,148.8,285.62Zm1-7.15,0,0c-1.13.64-2.28,1.27-3.41,1.9,0-.14.06-.29.09-.44C147.57,279.47,148.68,279,149.77,278.47Zm-2.92-2.09c.43.26.85.54,1.26.83l-.81.45-.55.25C146.8,277.4,146.83,276.89,146.85,276.38Zm1.76,1.19.58.44c-.87.37-1.73.75-2.6,1.11l.06-.42Zm-2.16-1.43.19.11c0,.6-.09,1.19-.17,1.79-1.09.5-2.19,1-3.29,1.47-.14-.4-.29-.79-.44-1.18C144,277.6,145.22,276.89,146.45,276.14Zm-2.61-1.21c.32.11.63.24.94.37l-2.07.7Zm-1-3.45-3.08.89c.44-.64.87-1.29,1.3-1.94l.36-.4,2.56-1.17C143.65,269.74,143.27,270.61,142.87,271.48Zm-.14-2.86,2.34-2.6c-.22.64-.44,1.27-.69,1.9Zm.74,4.23.39-.91.91-.32Zm7.22-7.06c-1.62,1.63-3.26,3.24-4.91,4.85l-1.56.45c.38-.93.73-1.87,1.05-2.81Zm-5.47-.24q-1.49,1.57-3,3.13,1.22-1.9,2.37-3.81l1-.63C145.51,264.68,145.36,265.11,145.22,265.55Zm0-2.29c-1,.45-2,.92-3,1.42.13-.24.25-.49.37-.74,1.11-.68,2.24-1.33,3.38-2C145.72,262.41,145.45,262.83,145.18,263.26Zm1.28-2.22c-1.08.41-2.11.87-3.13,1.34.13-.31.26-.62.38-.94l1-.76c.06-.05,0-.13-.08-.09l-.87.69c.2-.51.37-1,.52-1.56.9-.65,1.81-1.29,2.71-1.9C146.86,258.9,146.68,260,146.46,261Zm17.74-21.62c2.08,0,4-.45,6.06-.65a12.72,12.72,0,0,1,5.87.78c-.86.6-1.76,1.19-2.66,1.79-6.48-.88-13.51-.05-19.85-.59-1.67-.14-3.34-.34-5-.56C153.67,238.66,158.81,239.51,164.2,239.42Zm-19.35,2.42,2.13.27c8.09,1,16,.51,24,.88a45.3,45.3,0,0,0-9.13,7.47c-2.58,3-2.42,4.87-7.52,6.24a20.69,20.69,0,0,0-2.93.74c-.58-.48-1.18-.93-1.79-1.35a.13.13,0,0,0-.19-.14h0c-.56-.38-1.14-.73-1.72-1.06,0-.81,0-1.62-.06-2.44,0-.19-.32-.22-.32,0,0,.75,0,1.49,0,2.23-1.11-.62-2.25-1.18-3.42-1.69,1.55-1.47,3.1-2.94,4.68-4.39a.11.11,0,0,0-.15-.16c-1.75,1.41-3.45,2.85-5.16,4.29-1.28-.54-2.6-1-3.92-1.51a.15.15,0,0,0-.12-.05l-.77-.27c-.09-.74-.2-1.48-.31-2.21.45-.21.89-.42,1.37-.59,0,0,0-.1,0-.09-.48.15-.92.33-1.36.51-.1-.69-.22-1.37-.33-2C140.3,245.16,142.39,243.28,144.85,241.84Zm-4.08-.53c-1.2.64-2.4,1.26-3.65,1.79-.16-.75-.32-1.49-.5-2.23C138,241,139.39,241.13,140.77,241.31Zm-4.22-.44c.16.75.31,1.51.45,2.27a19.26,19.26,0,0,1-3.47,1.12c.32-.31.64-.62,1-.92.07-.06,0-.16-.1-.1-.44.36-.87.73-1.29,1.1-.35.06-.71.09-1.06.13l1.64-3.76C134.66,240.73,135.61,240.79,136.55,240.87Zm-4.7-.18c.6,0,1.19,0,1.78,0-.57,1.26-1.15,2.52-1.73,3.77l-.6.08c-.42-1.29-.87-2.57-1.34-3.85Zm-2.25,0q.68,1.92,1.26,3.87l-.37,0-2.44,0a20.76,20.76,0,0,0-.84-3.89Zm-2.54,0a19.4,19.4,0,0,1,.67,3.9c-1.38,0-2.69.05-4,.15a22.24,22.24,0,0,0-.92-4.13C124.24,240.7,125.64,240.72,127.06,240.73Zm-.55-7.42c-.48.18-1,.37-1.43.57a3.16,3.16,0,0,1,1.87-.73Zm7-4.57a22.39,22.39,0,0,1,3.21,1.61,13,13,0,0,0,2.11,1.06c-1.17,0-2.33,0-3.48,0s-2.17-.12-3.27-.28c1-.26,1.91-.55,2.87-.81a0,0,0,0,0,0-.06,32.78,32.78,0,0,1-4.88.39,5.45,5.45,0,0,0-1.15-.53C130.47,229.6,132,229.13,133.51,228.74Zm-10.23-4.33a27.16,27.16,0,0,0,6.4,2.92l-.21.07c-4.28,1.58-6.75,3.64-11.67,3a42.5,42.5,0,0,0-10.49-.41,22.61,22.61,0,0,1-3.53.07c1.06-1,2.16-2,3.33-2.92.88,0,1.82.27,2.8.42,4.21.62,6.85-2.83,9.9-5.16A30.2,30.2,0,0,1,123.28,224.41Zm-5-2.76,1.12.5c-3.09,1.95-5.86,4.85-9.67,4.18a8.67,8.67,0,0,1-1.2-.32A25.52,25.52,0,0,1,118.25,221.65Zm-5.54-1.46c-.68.26-1.36.53-2,.83l0,0a6.4,6.4,0,0,1-1.27-.85A16.94,16.94,0,0,1,112.71,220.19Zm-4.25.1a8,8,0,0,0,1.46,1.11,39.28,39.28,0,0,0-8.34,6.13,5.33,5.33,0,0,0,.07-3.44,9.72,9.72,0,0,0-.68-1.42c1-.31,2-.72,3.17-1.2A20,20,0,0,1,108.46,220.29Zm-2.71-2.91c.22.23.44.48.67.74-.48.1-1,.23-1.45.37-1.26.38-2.42,1.14-3.66,1.49l-.88.22a6.87,6.87,0,0,1,.93-2.69c.09-.19.19-.36.28-.54a17,17,0,0,0,2-1.85C104.36,215.88,105,216.64,105.75,217.38ZM102.62,213c-.7-.83-1.41-1.66-2.09-2.5a37.75,37.75,0,0,0-3-3.8,5.16,5.16,0,0,0,.46-.29,14,14,0,0,0,3.85.59,16.19,16.19,0,0,0,1.71-.13,8.19,8.19,0,0,0,3.35.67A24,24,0,0,1,102.62,213Zm-1.77-8.89a4.39,4.39,0,0,1,1.36-.59,3.21,3.21,0,0,1-.74.71C101.26,204.17,101.06,204.12,100.85,204.08Zm6.16,3.21a8.19,8.19,0,0,1-2.92-.53c1.17-.16,2.33-.38,3.51-.53Zm1.36-2.64-.74,0c-1.48-.06-2.82-.07-4.14-.17a4.83,4.83,0,0,0,.89-1.17,7.88,7.88,0,0,0,3.55-.54,6.51,6.51,0,0,0,1.67-1.15C109.24,202.6,108.84,203.63,108.37,204.65Zm2.16,1.45.91,0a9.23,9.23,0,0,1-2,.81h0l-.63.15q.2-.5.42-1A11.12,11.12,0,0,1,110.53,206.1Zm.93-9.93c-.08.16-.14.35-.21.52-.81-.52-1.57-1.09-2.33-1.67C109.76,195.42,110.6,195.81,111.46,196.17Zm-3.89-1.83,1.72,1.31a15.36,15.36,0,0,0,1.88,1.22,24.22,24.22,0,0,0-.85,2.49c-.06.22-.14.44-.21.65a6,6,0,0,1-5.23,2.11c.93-2.87.31-6.78-.36-9.53C105.52,193.21,106.53,193.79,107.57,194.34Zm-3.51-2c.22,2.53.7,5.71-.13,7.83a20.56,20.56,0,0,1-.89,2h-.28a4.56,4.56,0,0,0-2.89,1.31c-.66-.81-1.26-1.66-1.89-2.48a26.24,26.24,0,0,0-5.66-5.52,12.34,12.34,0,0,1,5-6.84,6.24,6.24,0,0,1,.82.16,9.11,9.11,0,0,1,1.34.5C101,190.31,102.52,191.33,104.06,192.3ZM89.4,193.73c.66-.69,1.3-1.46,2-2.33a7.66,7.66,0,0,1,3.35-2.56c-1.41,1.68-2.66,4.19-4.3,5.44C90.1,194.09,89.76,193.9,89.4,193.73Zm.31,1a2.89,2.89,0,0,1-1.07.29c0-.16,0-.33,0-.5l.25-.22C89.14,194.42,89.42,194.57,89.71,194.72Zm4.78-12.54a17.68,17.68,0,0,1,5.24-.26,22.56,22.56,0,0,1,2.38.38c.42,1.52.5,3.19-1,3.93-.39.2-1.22-.25-1.67-.09l-1.15.38c-1.66-1.34-3.31-2.68-5-3.91A4.94,4.94,0,0,1,94.49,182.18Zm-3.19,3.25a10.31,10.31,0,0,1,.39-1.08c1.67.89,3.28,1.89,4.87,2.94a6.11,6.11,0,0,0-.81.55,2.52,2.52,0,0,0-.25.21,5.16,5.16,0,0,0-2.29.84c-1.81,1.2-2.77,3.12-4.17,4.67l-.65-.3c-.21-1.13-.52-2.25-.84-3.36a3.27,3.27,0,0,0,1-.33C90.17,188.71,90.82,187,91.3,185.43Zm-5.43-1c.1-.82.17-1.63.24-2.45.61.18,1.22.37,1.83.61s1,.44,1.57.68c-.43,1.18-.52,2.95-1.45,3.72a1.83,1.83,0,0,1-1.28.38C86.48,186.43,86.17,185.45,85.87,184.44Zm.06,2.79a5.43,5.43,0,0,1-.53-.17c.07-.28.15-.54.2-.84Zm14.26-10.7.76-.61.61.69Zm17.41-3.14a31.18,31.18,0,0,1-4.54,1.77,44.67,44.67,0,0,0-2.73-3.63l-.53-.62C112.26,170.73,114.76,171.64,117.6,173.39Zm-13.5-.07a12.91,12.91,0,0,1,3-1.74,8.44,8.44,0,0,1,4.21,3.17c.2.25.39.5.58.76a36.21,36.21,0,0,1-7.22,1.12c-.86,0-1.76,0-2.66,0-.21-.32-.43-.65-.67-1C102.2,174.87,103.11,174.08,104.1,173.32ZM98,171.47c1.36-.06,2.64-.19,3.85-.27-.88.63-1.74,1.23-2.61,1.78-.43-.51-.88-1-1.35-1.51Zm-9.61-.39a8.38,8.38,0,0,1-.51,1l0,.06a6.86,6.86,0,0,0-.12-.91A5.7,5.7,0,0,1,88.39,171.08Zm1,.56a6.64,6.64,0,0,0,.3-.76l.2,0a58.54,58.54,0,0,1,6.49.58,26.48,26.48,0,0,1,2.2,1.95,23.38,23.38,0,0,1-8.93,3.42l-2.72.41A41.5,41.5,0,0,1,89.4,171.64Zm-4.69,1.59c.22-.19.43-.37.65-.54a8.35,8.35,0,0,1-.8,1.39C84.6,173.79,84.65,173.51,84.71,173.23Zm1.4,1.62a9.69,9.69,0,0,0,1.3-3.32,6.31,6.31,0,0,1,.12,1.22,16,16,0,0,0-1.6,3.75c-.09.31-.16.62-.22.94-.41.07-.81.15-1.21.24q0-.56-.06-1.11A6.85,6.85,0,0,0,86.11,174.85ZM82,170.25c.36.18.71.37,1.07.53a12.14,12.14,0,0,1-1,.77C82.1,171.12,82.07,170.68,82,170.25Zm.41,4.61a10.77,10.77,0,0,0,1.47-1c-.07.38-.12.76-.16,1.15a7,7,0,0,1-1.19.94Zm.38,3.19-.06-.49c.31-.15.62-.31.91-.48,0,.23,0,.47,0,.71,0,0,0,.07,0,.11-.22.06-.45.11-.67.18A1.52,1.52,0,0,0,82.83,178.05Zm1.41,8.6c-.21-1.08-.4-2.17-.59-3.25a14.7,14.7,0,0,1,.72-1.43c.16.7.35,1.39.56,2.07-.1.91-.23,1.81-.41,2.7Zm.51,2.58a8.51,8.51,0,0,0,2,.69c.28,1,.55,2,.75,3a16.37,16.37,0,0,0-2.1-.57C85.18,191.32,85,190.28,84.75,189.23Zm.84,4a19,19,0,0,1,2.08.61c0,.16.06.32.09.49s0,.25,0,.37a1.45,1.45,0,0,1-.26.17,2,2,0,0,1-.33-.09,6,6,0,0,1-1.45-.82C85.7,193.72,85.64,193.48,85.59,193.23Zm.72,3.2a11.49,11.49,0,0,0,1.57.32,10.11,10.11,0,0,1-.7,3.41C86.88,198.92,86.59,197.68,86.31,196.43Zm1.43,6.09c-.07-.31-.15-.62-.22-.93a10.15,10.15,0,0,0,1.19-4.76c.86.06,1.72.07,2.53,0a.89.89,0,0,0,.92-.73,21.47,21.47,0,0,1,2.7,2.18c1.67,1.59,3,3.65,4.64,5.43-.14,0-.28-.07-.42-.12-1.93-.59-3.51-1.4-5.57-1.59a17.15,17.15,0,0,0-5.74.5Zm6,2.89a2.51,2.51,0,0,0-.67.3.39.39,0,0,0-.1.08,6.9,6.9,0,0,1-1-.27c-.13,0-.26-.1-.38-.15a11.91,11.91,0,0,1,1.69,0Zm-5.14.47.3-.09a10.76,10.76,0,0,0,2.81,1.32,4.62,4.62,0,0,1-2.41,1.64C89,207.79,88.78,206.84,88.55,205.88Zm.88,3.62a3.8,3.8,0,0,0,2.1-.81c.29-.24.45-.64.74-.85l.29-.52a7.87,7.87,0,0,0,1.38.14c-.57,1.61-.3,3.58-2.92,3.63a4.26,4.26,0,0,1-1.36-.64C89.58,210.13,89.5,209.81,89.43,209.5Zm.77,3.19c1.27.34,1.29.57,2.57.09,1.86-.69,1.87-3,2.77-4.22a12.63,12.63,0,0,1,1.09-1.34H97c1,.53,2,2.48,2.64,3.27q1.21,1.47,2.49,2.91A13.84,13.84,0,0,1,92.59,217c-.45,0-.9,0-1.35-.08C90.89,215.54,90.55,214.12,90.2,212.69Zm10.11,5.19a6.28,6.28,0,0,0-.75,2.48,7.38,7.38,0,0,1-4.88-.87,12.67,12.67,0,0,0,5.37-1.44Zm-6.73,8.74-1.2-5c.65.21,1.35.48,2.12.77a8.71,8.71,0,0,0,5.75.45c.93,2.28,1,4.15-.55,6.28-1.58-.57-3.19-1.38-5.48-2.31Zm1.45,6c-.1-.42-.2-.83-.31-1.25.49.18,1,.37,1.42.56Q95.6,232.25,95,232.58Zm1.46,3.62c.63-.42,1.23-.85,1.82-1.31a8.25,8.25,0,0,1,3-1,9.33,9.33,0,0,1-2.88,4.7C97.77,237.79,97.11,237,96.49,236.2Zm6.23,4.45-.37.21-.09-.27s-.07,0-.06,0,.06.2.09.29c-.49.28-1,.56-1.47.83-.58-.79-1.18-1.56-1.79-2.32a10,10,0,0,0,1.24-1.2,10.22,10.22,0,0,0,2.12-4.35,18,18,0,0,1,5.73,1.25c.29.82.58,1.65.85,2.47a30.84,30.84,0,0,0-4.44,2.07c-.24-.51-.47-1-.71-1.54,0-.1-.25,0-.21.07l.57,1.66-1.31.74-.33-3c0-.05-.08,0-.07,0C102.56,238.61,102.64,239.63,102.72,240.65Zm.62,24.79-.35.31,0-.12a11.76,11.76,0,0,1-.07-1.44l.34-.1.14-.06Zm.36-20.2c.67-.38,1.33-.77,2-1.15.23.66.45,1.32.68,2-.71.4-1.42.77-2.11,1.11C104.06,246.52,103.89,245.88,103.7,245.24Zm1.65,10.5.13-.05c.2.48.39,1,.58,1.44.12.79.22,1.59.32,2.39-.19.15-.38.3-.58.44-.4-.63-.8-1.26-1.21-1.88A17.74,17.74,0,0,0,105.35,255.74Zm-.67,10.09,1.3-1.22c.35.29.71.57,1,.86,0,.33,0,.65.06,1-.23.48-.48.95-.71,1.43-.55.1-1.1.19-1.64.3Zm.09,3.91c0-.11,0-.22,0-.33l.93-.16-.52,1C105,270.1,104.91,269.92,104.77,269.74Zm.75,6.31.86-1.08a3.62,3.62,0,0,1,.22.32l-1,1C105.57,276.2,105.54,276.13,105.52,276.05Zm1.79,1.25-1.13.83c-.08-.22-.14-.45-.21-.67.41-.42.83-.83,1.24-1.26l.12.18C107.33,276.69,107.32,277,107.31,277.3Zm-.47-4.74-1-1.29,0-.1,1.38-.91c0,.64,0,1.29,0,1.93Zm-.39-16.82c.7.54,1.37,1.1,2,1.66a12.39,12.39,0,0,1-.88,1C107.25,257.52,106.87,256.62,106.45,255.74Zm1.47,11.12.21-.46.38.32.42.74-.94.14C108,267.36,107.94,267.11,107.92,266.86Zm.25,2.83,1.3-.83c.07.32.13.65.19,1q-.7.75-1.38,1.5C108.24,270.78,108.21,270.23,108.17,269.69Zm1.76,1.61c0,.2.06.4.09.59-.4.41-.79.82-1.2,1.22l-.45,0c0-.17,0-.34,0-.51Zm.48,3.47,0,.29-1.21.87-.73-1.05.25-.27Zm-.48,5.87c-.52,0-1.05,0-1.58,0,0-.19,0-.38,0-.57l1.38,0,.23.35C110,280.47,110,280.55,109.93,280.64Zm.51-3L110,277l.63-.51a2,2,0,0,0,0,.23C110.55,277,110.5,277.36,110.44,277.68Zm1.14-11.16c-.53-.46-1.06-.91-1.6-1.35-.16-.55-.35-1.1-.53-1.64.42-.93.85-1.85,1.27-2.77.43,1.86.82,3.72,1.11,5.61Zm-.18-23.82c-.16-.45-.31-.91-.48-1.36l.94-.34c0,.3,0,.59.07.89A4.5,4.5,0,0,0,111.4,242.7Zm.46-5.89-.06-.41c.33.11.65.21,1,.3C112.48,236.73,112.17,236.76,111.86,236.81Zm3.28,14.34c.66-.31,1.33-.63,2-.92-.44,1.35-.84,2.72-1.24,4.08l-.73.69c-.22-.82-.44-1.64-.67-2.46Zm-.46,12.8c.07-.32.13-.64.2-1l.68.69,0,.2-.81.77-.07,0C114.7,264.44,114.7,264.19,114.68,264Zm.06,1.62,1-.64.15.91-.72.77-.43.05Zm1.54,5.18c-.46-.45-1-.88-1.42-1.32,0-.44,0-.87,0-1.31l.35-.39,1-.14h.08c.14.83.29,1.65.41,2.47C116.51,270.29,116.4,270.52,116.28,270.75Zm-.3-12.58c.19-.8.39-1.59.59-2.39.88-.37,1.76-.73,2.65-1.08.18,1.83.28,3.66.33,5.5-.87.78-1.74,1.57-2.59,2.37C116.65,261.1,116.34,259.63,116,258.17Zm3.6,5.85c-.23.49-.47,1-.72,1.45l-.62-.63,1.35-1C119.58,263.87,119.59,264,119.58,264Zm0-.42-1.53,1.07-.08-.08c.54-.62,1.08-1.23,1.61-1.85Zm-2.48-.32a1.06,1.06,0,0,0,0-.19c.82-.81,1.65-1.6,2.5-2.39,0,.37,0,.73,0,1.1Zm2.23-11.58c.92-1,1.84-1.95,2.74-2.94l.06,0c0,1.52,0,3,0,4.57q-1.18.42-2.37.87Q119.55,253,119.34,251.7Zm.43,2.79c.77-.29,1.54-.58,2.32-.85,0,1-.07,2-.13,2.92-.11.62-.26,1.23-.38,1.85l-1.32,1.15C120.15,257.87,120,256.18,119.77,254.49Zm.52,5.54,1.17-1c-.09.41-.17.81-.25,1.22-.29.3-.56.62-.85.92C120.34,260.76,120.32,260.39,120.29,260Zm1.58,21.67-1.12-.17L122,280.3l.25,0a1.54,1.54,0,0,0,.17.19ZM123,292.53c0-.11-.09-.22-.13-.33l.63-.33.6.17Zm1.05-7-1.14-.42c.51-.61,1-1.22,1.53-1.86l.33-.1h.06l.34.39c-.28.6-.58,1.2-.87,1.79Zm1.72,8-.78-.16h0l-.07,0,1.17-.59.59.4Zm-.22-13.75c-.5-.07-1-.12-1.51-.18l0,0c.1-.21.2-.41.29-.62l2.51-.89C126.4,278.63,126,279.2,125.54,279.77Zm-.43-6.84c.5-.65,1-1.3,1.51-2l-.51,1.28-1,.73Zm1.93-3c-.7.92-1.41,1.83-2.12,2.74l-.25-.33c.82-.89,1.64-1.77,2.47-2.65Zm1.26-1.15,1.07-1.41c.37-.39.75-.77,1.12-1.15.66,0,1.3.08,1.94.16l-.61,1.5-4.41,3.37C127.71,270.44,128,269.62,128.3,268.79Zm.38,20.18c.33.14.66.26,1,.41l-.86.43-1.3-.17Zm2.3,31.66-2.29.41a10,10,0,0,1,.41-1.65,2.85,2.85,0,0,1,1.31-.26c.21.47.42.93.64,1.4A.61.61,0,0,0,131,320.63Zm2-17.58-.47-.2a14.73,14.73,0,0,0-1.05-1l-.37-.31c1.18.5,2.36,1,3.53,1.56l-.36.56Zm2.75,16.82c-.51-.52-.9-1.12-1.36-1.68.71.51,1.41,1,2.1,1.57Zm1.9-.39c-.75-.89-1.5-1.78-2.28-2.65a9.37,9.37,0,0,0,.55-1.27l.54-.78,1.55-.18c.67.73,1.32,1.48,2,2.23-.35.41-.69.82-1,1.23Zm1.36-.08c.54-.61,1.09-1.22,1.61-1.85l1.25,1.48Zm3.68-.47c-.53-.65-1-1.3-1.59-1.95l.65-.78c1.12.82,2.23,1.65,3.35,2.45h0Zm4.45-.46-.54,0-1.11-.83c-.83-1-1.7-2-2.57-3l.21-.27h.48c1.44,1.1,2.88,2.24,4.3,3.41C147.6,318.05,147.34,318.26,147.08,318.47Zm-2.43-4c1.12,0,2.23.06,3.34.11a13.36,13.36,0,0,0,1,2.21h0l-.69.67Q146.48,315.91,144.65,314.44Zm4.6,3.84-.74-.64c.2-.25.39-.51.57-.77a15,15,0,0,0,.88,1.36Zm.55-5.84.08,0,.11.08c.44.38.89.75,1.34,1.11l0,.17Zm.18-8.38.43-.71a14.89,14.89,0,0,0,1.18,1.47A14.82,14.82,0,0,1,150,304.06Zm2-21.13c.44-.49.86-1,1.27-1.48h0c.73.65,1.44,1.32,2.14,2,0,.45.11.89.18,1.33l-1,.47c.22-.31.45-.63.69-.93.39-.5-.42-1.21-.89-.74a28.5,28.5,0,0,0-2.5,2.88A18.13,18.13,0,0,1,152,282.93Zm3,10.1a8.55,8.55,0,0,1-1.37-1.6l1.58.24C155.06,292.12,155,292.58,154.93,293Zm.29-1.75-2-.36a9.12,9.12,0,0,1-.78-1.68c1-.59,2.08-1.19,3.11-1.75h.5C155.74,288.73,155.45,290,155.22,291.28Zm.79-15.72,1.83-1.14.7-.39a8.34,8.34,0,0,0-.15,3.57l-1.35.79A13.92,13.92,0,0,0,156,275.56Zm1.1,3.14,1.33-.81a8.67,8.67,0,0,0,.22.84l-1.42.52C157.2,279.07,157.16,278.89,157.11,278.7Zm.25,1.14q.69-.27,1.38-.57c-.3.81-.64,1.74-1,2.76Q157.57,280.94,157.36,279.84ZM158.74,295l-.65-.15a25.23,25.23,0,0,1,.26-2.74l.49.08.18.2A25.68,25.68,0,0,0,158.74,295Zm1.2-6.44a7.13,7.13,0,0,1-.52-.85.19.19,0,0,0,.24-.22h.65C160.18,287.88,160.05,288.23,159.94,288.59Zm.55-1.52-1.24-.06,0,0c.08-.51.17-1,.25-1.54.78-.4,1.57-.79,2.35-1.16A23.16,23.16,0,0,0,160.49,287.07Zm-.9-2.38.18-1.24,1.18-.7c.27.32.56.64.87.95Zm3.06-3.65a10.47,10.47,0,0,1-1.72-2.72l.46-.21a13.19,13.19,0,0,0,1.62,2.73Zm1.67,1.6-.58-.48a.26.26,0,0,0-.27-.25l-.43-.43.32-.2a15.55,15.55,0,0,0,1.17,1.28Zm2.45-2-.45,1.14a17.54,17.54,0,0,1-1.43-1.43l1.59-1c.13.33.27.64.42,1C166.85,280.38,166.82,280.5,166.77,280.61Zm6,2.49a11.39,11.39,0,0,1,.55-3q0,.44,0,.87a11.9,11.9,0,0,0,.67,3A15.28,15.28,0,0,1,172.77,283.1Zm37.76,38.52c-.19.13-.38.26-.56.4a.84.84,0,0,0-.3.87l-.34.44c-.42,0-.85-.05-1.28-.1-1.17-.13-2.28-.38-3.37-.58a14.27,14.27,0,0,0,6.4-2C210.91,320.94,210.73,321.28,210.53,321.62Zm14.94-3.89-.22.18a1,1,0,0,1-.08-.14A9.11,9.11,0,0,0,226,315l.18.14A16.11,16.11,0,0,1,225.47,317.73ZM239,287.07a8.59,8.59,0,0,1-.64-.85c.27-.54.55-1.07.85-1.59a10,10,0,0,0,5.13,5.62,2.09,2.09,0,0,0,0,.25C242.67,289.31,240.38,288.65,239,287.07ZM243.15,338a7.19,7.19,0,0,1,2.88-.51l.1.24C245.14,337.86,244.15,338,243.15,338Zm5.53-.61c-.25-1.35-.67-2.67-1-4a9.29,9.29,0,0,0,.93.33c.15.45.31.89.46,1.3a15.16,15.16,0,0,0,1,2.14Zm1.43-54a18.9,18.9,0,0,1-1.5,1.34l-.61,0a18.78,18.78,0,0,1,2.18-5.27c0,.2-.06.39-.08.59a22.3,22.3,0,0,0,.11,3.27Zm2.19,53.3c-.28-.68-.54-1.37-.77-2.05.6.62,1.24,1.22,1.9,1.78C253.06,336.55,252.68,336.65,252.3,336.73Zm.72-50.89c0-.14,0-.28,0-.42a4.31,4.31,0,0,0,.5-.43,9.89,9.89,0,0,0,2.13-3.72,10.65,10.65,0,0,0-.1,2.2c0,.3,0,.62.07.94a9.86,9.86,0,0,1-.94.58C254.11,285.31,253.53,285.52,253,285.84Zm2.94,50c-.38-.36-.76-.73-1.12-1.11H255l1.13.16c.22.24.47.46.71.69Zm23.31-44.65,0,.1a.46.46,0,0,0,.25.49l0,.05a1.47,1.47,0,0,0-.1.13h0c-.27-.09-.54-.19-.8-.3Zm-3.77,7.65a.83.83,0,0,1,.08.12c-.07.21-.13.43-.2.65-.48-.54-.94-1.1-1.36-1.68a8.82,8.82,0,0,0,.89,0C275.11,298.17,275.32,298.48,275.5,298.8ZM274,288.85a6.11,6.11,0,0,0,.46.67,5,5,0,0,0-.22.65,6.06,6.06,0,0,0-1.59,0,.89.89,0,0,0,0-.23A12.88,12.88,0,0,0,274,288.85Zm-.61,13.63c.09.27.19.54.28.82-.51-.16-1-.32-1.5-.51A10.87,10.87,0,0,1,273.34,302.48Zm1.92,8.16a20,20,0,0,0,1.43,3.6,9.16,9.16,0,0,1-1.65-.48l-.41-.19a7.47,7.47,0,0,1-3.33-3.52A29.08,29.08,0,0,1,275.26,310.64Zm-6.73-.74a12.06,12.06,0,0,0,1.76,2.2c-.3-.07-.59-.16-.9-.22a29.33,29.33,0,0,0-3.35-.37,12.27,12.27,0,0,1-1.13-1.67C266.11,309.85,267.32,309.86,268.53,309.9Zm-4-26.77a9.41,9.41,0,0,0,1,1.87,10.66,10.66,0,0,0,1.2,1.38l-.64.23c0-.11.07-.23.1-.35s-.13-.2-.19-.09-.25.41-.38.62l-.33.12a16.25,16.25,0,0,1-1.18-3.57C264.24,283.28,264.37,283.2,264.51,283.13Zm1.3,30a18.8,18.8,0,0,0,3.29,2.39l-.28.14a14.65,14.65,0,0,1-2.41-.76,8,8,0,0,1-2.69-1.83C264.42,313.14,265.14,313.14,265.81,313.14Zm-3.42,20.37c-.51-.17-1-.3-1.56-.43l.72-.14.34-.05.93.43Zm6.21-3.17a38.4,38.4,0,0,0-6,0c-1.05-.84-2-1.77-3-2.68,2.66,1.79,6.38,2.28,9.94,2C269.26,329.92,268.94,330.14,268.6,330.34Zm3.71-2.47a29,29,0,0,1-6.49-.72c-.46-.1-.91-.23-1.35-.36.52-.13,1-.29,1.54-.47.72-.14,1.42-.3,2.07-.45a22.85,22.85,0,0,0,7.12-2.77c.45-.28,0-.85-.42-.81-2.61.28-5.16.83-7.76,1.18-1,.12-2,.17-3,.26a6.51,6.51,0,0,0,.81-1.05c3.09-.52,5.9-2.77,8.81-3.72.24-.08.1-.43-.14-.38-2.25.43-5,1.61-7.48,2a7.43,7.43,0,0,1,.54-.83,21.69,21.69,0,0,1,1.68-1.93,18.92,18.92,0,0,0,6.25-.22.36.36,0,0,0,.06-.7c-.77-.21-1.55-.38-2.33-.53-.52-.25-1-.53-1.52-.82l.18-.15c.27-.22,0-.59-.34-.47s-.32.15-.49.21a17.48,17.48,0,0,1-2.49-1.94,29.33,29.33,0,0,1,5,.59,8.67,8.67,0,0,0,3.42,1c.4.14.81.3,1.21.46a29.33,29.33,0,0,0,2.86,4.08,15.31,15.31,0,0,1,3.32,6.58C279.55,324.4,275.55,325.51,272.31,327.87ZM296,375.23a72,72,0,0,1-6.73-15,40.69,40.69,0,0,1,6.27-2,26.07,26.07,0,0,0,7.18-3c-2.52,5.49-3.35,11.17-5.38,16.83A33.8,33.8,0,0,1,296,375.23Zm11.86,10.62a33.52,33.52,0,0,1-2.72,3.5q-2.58-3.68-5-7.42a45.22,45.22,0,0,0,2.25-4.65c2.14-5.15,2.5-10.66,3.95-15.94a34.26,34.26,0,0,0,1.44,9.81C309.11,376.07,310.91,381.17,307.86,385.85Zm116,46a6.07,6.07,0,0,0-.5-2.16c-.14-.36-.65-1.34-.47-1.62l1.46,0c0,.17,0,.34.07.52a11.33,11.33,0,0,0,.7,1.26c.58.68,1.37,1.13,1.89,1.86s.71,1.56,1.28,2.24a4.49,4.49,0,0,1,1.4,2.82c.11,1,.68,1.75.46,2.78a1.65,1.65,0,0,0-.75-.31,2.39,2.39,0,0,0-1.29.22c-.75.32-.81.85-1.16-.06-.18-.46.08-.94-.22-1.46a5.9,5.9,0,0,0-1.22-1.17,1.89,1.89,0,0,1-.84-1.57,2.69,2.69,0,0,0-.05-.57A7.36,7.36,0,0,1,423.88,431.81Z"/></svg>