<svg xmlns="http://www.w3.org/2000/svg" viewBox="0 0 1174 474.49"><defs><style>.cls-1{fill:#00346d;}</style></defs><g id="Layer_2" data-name="Layer 2"><g id="Layer_1-2" data-name="Layer 1"><path class="cls-1" d="M491.26,267.72c-1.18,2.92-.56,4,.82,5.47.53.55,1.18,1.15,1.88,1.9,2.79,3,.8,8.41.8,8.41h-6.62c.77-3.31-.36-5.2-2.5-7.12-.79-.71-1.72-1.43-2.75-2.22-1.42-1.1-.77-3,.42-5.3h0c1.48-2.83,3.8-6.18,4.06-9.13a4.68,4.68,0,0,0-.6-2.86,4.63,4.63,0,0,0-.52-.74,5.14,5.14,0,0,0-3.4-1.71,22.63,22.63,0,0,0-5.78.41c-1.93.27-3.47.34-3.87-.82-1-2.78,6.52-7.42,8.35-11a3.48,3.48,0,0,0,.4-1.25,3.82,3.82,0,0,0-.73-2.59,5.77,5.77,0,0,0-1.5-1.36,17.25,17.25,0,0,0-4.56-1.84l-.12,0h0c-2.6-.8-1.45-2.74-.59-5.23a1.39,1.39,0,0,0,.06-.19,2.78,2.78,0,0,0,0-2.09,2.43,2.43,0,0,0-1.2-1.07,13.81,13.81,0,0,0-3.57-.89c-.49-.08-1-.18-1.45-.28a3.69,3.69,0,0,1-3.09-4.75c.43-2.15,2.06-4.71,4.61-7,.29-.26.57-.52.85-.8h0c.52-.52,1-1.06,1.51-1.64,4.05-4.81,6.53-11.34,2-14.28,6.26,3.24,8.47,6.65,8.58,9.94a9.84,9.84,0,0,1-.89,4.23,22.67,22.67,0,0,1-2.55,4.29c-.93,1.27-1.92,2.46-2.79,3.55-4.24,5.28,4.64-.68,7,2a4.25,4.25,0,0,1,.51.67,4.06,4.06,0,0,1,.16,4.19c-.64,1.39-1.7,2.68-2.22,3.82-1.66,3.64,4,1.59,7.46,3.76a4.6,4.6,0,0,1,1.11,1,4.43,4.43,0,0,1,.62.93,5,5,0,0,1,.63,2.89,4.69,4.69,0,0,1-.83,2.07c-1.2,1.78-3.24,3.22-3.38,5.54-.23,3.65,5.26-1.43,8.11,1.78a4.77,4.77,0,0,1,.79,1.27c.1.24.19.47.27.71a8.79,8.79,0,0,1,.47,2.89,11.78,11.78,0,0,1-.35,2.62c-.87,3.53-3.2,7-4.91,10.43C491.67,266.79,491.44,267.28,491.26,267.72Z"/><path class="cls-1" d="M569,268.68a11.58,11.58,0,0,1-1.64.52l-.42.1a32.44,32.44,0,0,1-11.36.68,16.5,16.5,0,0,1-2.11-.38,58.76,58.76,0,0,1-7.29-6.31c-4.62-4.89-3.22-6.63-.09-4.71-3.19-5.72-.24-5.54,3.15-2.6-5.55-9.48-6.13-15-6.1-17a.53.53,0,0,1,.81-.44l.32.21c2.26,1.54,7.56,5.59,9.69,11.21-.92-3.33-1.4-5.5-1.66-6.9a.65.65,0,0,1,1.21-.43,10,10,0,0,1,.69,1.58,14.73,14.73,0,0,1,.07-4.39.65.65,0,0,1,1.1-.29c1.86,2,3.34,8.33,3.34,8.33a18,18,0,0,1,4.83-6.72,16.28,16.28,0,0,1,1.57-1.21,17.73,17.73,0,0,1,5.88-2.66.55.55,0,0,1,.67.58,16,16,0,0,1-.37,2.41,16.89,16.89,0,0,1-3.35,7,11.13,11.13,0,0,1,4.17-2.54.54.54,0,0,1,.65.63,4.88,4.88,0,0,1-2.08,2.82,22.78,22.78,0,0,1,7.88-1.34,12.63,12.63,0,0,1,1.94.2,1,1,0,0,1,.83,1.2c-.82,4.75-8.49,10.09-8.49,10.09,5.27-1.64,5.25,1.58.6,3.58C581.65,261,579.62,264.35,569,268.68Z"/><path class="cls-1" d="M362.89,303.23c-1.24-1.59-4.18-2.71-6.27-3.93a8,8,0,0,1-1.44-1l-.36-.37a6.88,6.88,0,0,0-1.24-1.19l-.09-.06c.82-.82,1.7-1.9,1.67-2.78a.88.88,0,0,0,0-.17c-.34-1.9-1.82-1.12-.23-2.55a18,18,0,0,0,1.56-1.6c2-2.4,3-5,1.64-6.62a3.25,3.25,0,0,0-1.15-.86c-.23-.12-.45-.21-.67-.3a13,13,0,0,0-3.35-.63h0c-.49-.1-.54-.35,0-1.32a9.26,9.26,0,0,1,.89-1.35c1.07-1.37,2.3-2.51,2-3.73a2.08,2.08,0,0,0-.27-.57c-.09-.13-.19-.26-.29-.38a3.46,3.46,0,0,0-2.18-1.14h0c-1-.16-1.74,0-1.7-.49,0-.24.45-.6,1-1.05h0a10.83,10.83,0,0,0,2.84-2.81,2.76,2.76,0,0,0,.34-.93,2.23,2.23,0,0,0-.14-1.18,4.47,4.47,0,0,0-.25-.49,2.83,2.83,0,0,0-1.05-1c-2.36-1.3-6.45.58-7-.91-.24-.65.55-1.77,1.54-3.12,1.82-2.51,4.3-5.84,2-8.46,1.24,2.27.1,3.84-2.77,6.76-.17.18-.35.37-.54.55-.41.41-.78.8-1.11,1.16a9.07,9.07,0,0,0-2.24,3.21,2,2,0,0,0,.6,2.1,2.85,2.85,0,0,0,2.18.6,6.63,6.63,0,0,1,2.86.24h0a1.62,1.62,0,0,1,.55.43,2.32,2.32,0,0,1,.48,1.13,2.53,2.53,0,0,1-.23,1.55,10.11,10.11,0,0,1-1.82,2.25,1.53,1.53,0,0,0-.51,1,.82.82,0,0,0,.4.61,4.77,4.77,0,0,0,1.06.59c.92.39,1.58.48,1.65,1.68a6.65,6.65,0,0,1-.07,1.1,6,6,0,0,1-.76,2.1,20.62,20.62,0,0,0-1.43,2.35,1.18,1.18,0,0,0,.17,1.28,2.26,2.26,0,0,0,1.9.48h0a6.17,6.17,0,0,1,3,.2,2.11,2.11,0,0,1,1.07,1.4c.52,1.74-1.58,3.28-3.37,4.74h0c-1.41,1.16-2.61,2.27-2.22,3.42a4.37,4.37,0,0,1,.25,1.55,4.75,4.75,0,0,1-.1.94,22.61,22.61,0,0,0-2.95.23l-.49.08a3,3,0,0,0-.4-.55c-.42-.45-.81-.81-1.12-1.14-.83-.85-1.2-1.52-.49-3.26.11-.27.24-.56.4-.88,1-2,2.42-4.12,2.94-6.23a6.36,6.36,0,0,0,.2-1.56,5,5,0,0,0-.27-1.73,3.69,3.69,0,0,0-.17-.42,2.53,2.53,0,0,0-.47-.76c-1.7-1.92-5,1.12-4.84-1.06.08-1.39,1.3-2.25,2-3.31a2.79,2.79,0,0,0,.49-1.24,3,3,0,0,0-.37-1.72,2.86,2.86,0,0,0-.37-.56,2.94,2.94,0,0,0-.66-.57c-2.06-1.3-5.45-.07-4.46-2.25.31-.68.94-1.45,1.32-2.28a2.4,2.4,0,0,0-.09-2.5,2.67,2.67,0,0,0-.3-.41c-1.42-1.6-6.73,2-4.2-1.19.52-.65,1.11-1.36,1.67-2.12a13.38,13.38,0,0,0,1.52-2.56,5.89,5.89,0,0,0,.53-2.52c-.07-2-1.38-4-5.13-5.94,2.72,1.75,1.24,5.65-1.18,8.52a12.16,12.16,0,0,1-.9,1h0c-.16.17-.33.32-.5.48a8.27,8.27,0,0,0-2.75,4.17,2.2,2.2,0,0,0,1.84,2.84l.87.17a8.3,8.3,0,0,1,2.13.53,1.51,1.51,0,0,1,.72.64,1.65,1.65,0,0,1,0,1.25.61.61,0,0,1,0,.11c-.51,1.49-1.2,2.65.35,3.12h0l.07,0a9.78,9.78,0,0,1,2.73,1.1,3.15,3.15,0,0,1,.89.81,2.25,2.25,0,0,1,.44,1.54,2.11,2.11,0,0,1-.24.75c-1.09,2.13-5.57,4.91-5,6.57.24.69,1.16.65,2.31.49a13.72,13.72,0,0,1,3.46-.25,3,3,0,0,1,2,1,2.92,2.92,0,0,1,.32.44,2.84,2.84,0,0,1,.35,1.71c-.15,1.77-1.53,3.77-2.42,5.45h0c-.71,1.36-1.1,2.5-.25,3.16.61.47,1.17.9,1.64,1.33a5.55,5.55,0,0,1,1.15,1.31,10.28,10.28,0,0,0-2,1.55,11.15,11.15,0,0,0-.84.95l-.39.53a8.52,8.52,0,0,0-2.08-1.19,6,6,0,0,0-2.4-.38,11.3,11.3,0,0,0-2,.31,6.51,6.51,0,0,1,.21-3.78,9.58,9.58,0,0,1,2.25-3.2,2.93,2.93,0,0,0,1-2.19,2.55,2.55,0,0,0-.86-1.7,4,4,0,0,0-1.21-.77,4.2,4.2,0,0,0-.66-.21c-1.79-.4-3.47-.58-3.88-2.11A1.91,1.91,0,0,1,329,285a11.81,11.81,0,0,1,.59-3.53c.43-1.69.82-3.37.25-4.08a1.91,1.91,0,0,0-2.39-.5A1.35,1.35,0,0,1,329.2,278a5.66,5.66,0,0,1-.68,3.41c-.1.2-.19.39-.27.58h0a9.86,9.86,0,0,0-1.06,5.37,2.22,2.22,0,0,0,1.1,1.65,5.27,5.27,0,0,1,1.53,1.19,3.61,3.61,0,0,1,.48.72,4.26,4.26,0,0,1,.27,2.89,9.79,9.79,0,0,1-.9,2.45,17.23,17.23,0,0,0-1.09,2.61h0a4.37,4.37,0,0,0-.26,2.21c-.37.25-.73.52-1.07.8s-.7.59-1,.91-.48.48-.71.73-.62.71-.9,1.08c-.52.67-1.67,2.58.6,3.78s10.38.09,14.21.42c3.42.29,6,1,6.71-.64,1.2-.11,2.26-.2,3-.2,3.28,0,2.21,1.07,6.05,1.07h.2c3.79,0,8-.93,8.12-4.11A2.52,2.52,0,0,0,362.89,303.23Z"/><path class="cls-1" d="M240.14,254.78c-1.25-1.59-4.19-2.72-6.27-3.93a9.16,9.16,0,0,1-1.45-1c-.13-.12-.25-.25-.36-.37a6.5,6.5,0,0,0-1.24-1.18l-.09-.07c.83-.82,1.7-1.9,1.67-2.78a1.11,1.11,0,0,0,0-.17c-.33-1.9-1.81-1.11-.23-2.55a18.17,18.17,0,0,0,1.57-1.6c2-2.4,3-5,1.63-6.62a3.2,3.2,0,0,0-1.14-.86c-.24-.11-.46-.21-.68-.29a12.05,12.05,0,0,0-3.35-.63h0c-.49-.1-.55-.36,0-1.33a9.44,9.44,0,0,1,.89-1.34c1.07-1.38,2.3-2.51,2-3.73a1.81,1.81,0,0,0-.26-.57,4.18,4.18,0,0,0-.29-.38,3.52,3.52,0,0,0-2.19-1.15h0c-1-.16-1.75,0-1.71-.48,0-.24.46-.6,1-1.05h0a10.68,10.68,0,0,0,2.85-2.8,2.83,2.83,0,0,0,.34-.93,2.21,2.21,0,0,0-.15-1.18,3.33,3.33,0,0,0-.25-.5,2.8,2.8,0,0,0-1-1c-2.37-1.3-6.45.58-7-.91-.24-.64.56-1.76,1.54-3.12,1.82-2.51,4.3-5.84,2-8.45,1.24,2.26.1,3.83-2.76,6.76l-.55.55-1.11,1.15a9,9,0,0,0-2.24,3.22,2,2,0,0,0,.61,2.09,2.84,2.84,0,0,0,2.18.6,6.81,6.81,0,0,1,2.86.24h0a1.53,1.53,0,0,1,.55.43,2.23,2.23,0,0,1,.48,1.13,2.58,2.58,0,0,1-.22,1.55,9.89,9.89,0,0,1-1.82,2.25,1.55,1.55,0,0,0-.52,1,.89.89,0,0,0,.4.6,5,5,0,0,0,1.06.59c.92.39,1.59.48,1.65,1.68a5.67,5.67,0,0,1-.07,1.1,5.82,5.82,0,0,1-.75,2.1,21.53,21.53,0,0,0-1.43,2.35,1.16,1.16,0,0,0,.17,1.28,2.23,2.23,0,0,0,1.89.48h0a6.12,6.12,0,0,1,3,.2,2.11,2.11,0,0,1,1.07,1.4c.52,1.74-1.57,3.28-3.36,4.75h0c-1.4,1.16-2.61,2.27-2.22,3.42a4.62,4.62,0,0,1,.26,1.55,5.5,5.5,0,0,1-.11.94,22.93,22.93,0,0,0-3,.24l-.49.07A2.9,2.9,0,0,0,223,247c-.42-.45-.81-.8-1.13-1.13-.82-.85-1.19-1.53-.49-3.27.11-.27.25-.56.41-.88,1-2,2.41-4.11,2.93-6.22a7.05,7.05,0,0,0,.21-1.57,5.16,5.16,0,0,0-.28-1.72c-.05-.15-.1-.29-.16-.43a3.19,3.19,0,0,0-.47-.76c-1.71-1.92-5,1.12-4.85-1.06.09-1.38,1.3-2.24,2-3.31a2.89,2.89,0,0,0,.5-1.23,3,3,0,0,0-.38-1.73,3.2,3.2,0,0,0-.37-.56,2.74,2.74,0,0,0-.66-.57c-2.06-1.29-5.45-.07-4.46-2.24.31-.69,1-1.46,1.33-2.28a2.44,2.44,0,0,0-.1-2.51,2.61,2.61,0,0,0-.3-.4c-1.42-1.6-6.73,2-4.2-1.19.53-.66,1.12-1.37,1.67-2.12a13.73,13.73,0,0,0,1.53-2.57,5.7,5.7,0,0,0,.52-2.52c-.06-2-1.38-4-5.12-5.94,2.71,1.75,1.23,5.66-1.18,8.53-.29.34-.6.67-.91,1h0l-.51.48a8.36,8.36,0,0,0-2.75,4.18,2.2,2.2,0,0,0,1.85,2.83c.28.07.57.12.86.17a8.19,8.19,0,0,1,2.13.53,1.42,1.42,0,0,1,.72.64,1.64,1.64,0,0,1,0,1.25.56.56,0,0,1,0,.12c-.51,1.48-1.2,2.64.35,3.12h0l.06,0a10.42,10.42,0,0,1,2.73,1.1,3.47,3.47,0,0,1,.89.81,2.23,2.23,0,0,1,.44,1.55,1.94,1.94,0,0,1-.24.74c-1.09,2.14-5.56,4.91-5,6.57.24.69,1.15.65,2.31.49a13.16,13.16,0,0,1,3.45-.24,3,3,0,0,1,2,1,2.24,2.24,0,0,1,.31.43,2.79,2.79,0,0,1,.36,1.72c-.15,1.76-1.54,3.76-2.43,5.45h0c-.71,1.36-1.09,2.51-.25,3.17.62.47,1.17.89,1.65,1.32a6,6,0,0,1,1.14,1.31,10.45,10.45,0,0,0-2.83,2.51c-.13.17-.26.34-.38.53a8.25,8.25,0,0,0-2.08-1.19,5.71,5.71,0,0,0-2.41-.38,10.58,10.58,0,0,0-2,.3,6.59,6.59,0,0,1,.21-3.78,9.74,9.74,0,0,1,2.25-3.19,3,3,0,0,0,1-2.2,2.51,2.51,0,0,0-.86-1.7,4,4,0,0,0-1.21-.77,4.45,4.45,0,0,0-.65-.21c-1.8-.4-3.48-.58-3.89-2.11,0-.11-.05-.23-.07-.35a12,12,0,0,1,.6-3.54c.42-1.68.82-3.37.24-4.08a1.91,1.91,0,0,0-2.39-.5,1.35,1.35,0,0,1,1.72,1.11,5.7,5.7,0,0,1-.68,3.42c-.09.19-.18.38-.26.58h0a9.92,9.92,0,0,0-1.07,5.38,2.27,2.27,0,0,0,1.1,1.65,5.07,5.07,0,0,1,1.53,1.18,3.47,3.47,0,0,1,.48.72,4.28,4.28,0,0,1,.28,2.9,10.3,10.3,0,0,1-.9,2.44,16.63,16.63,0,0,0-1.09,2.61h0a4.45,4.45,0,0,0-.26,2.2c-.36.25-.72.52-1.07.8s-.7.6-1,.91-.48.48-.7.73-.62.71-.91,1.08c-.51.67-1.67,2.58.6,3.78s10.38.1,14.21.42c3.42.29,6,1,6.72-.64,1.2-.1,2.26-.2,3-.2,3.27,0,2.2,1.07,6,1.07h.21c3.79,0,8-.93,8.12-4.12A2.5,2.5,0,0,0,240.14,254.78Z"/><path class="cls-1" d="M671.49,291.11c-1-1.32-3.48-2.26-5.21-3.27a7.38,7.38,0,0,1-1.2-.83c-.11-.1-.21-.21-.3-.31a5.53,5.53,0,0,0-1-1l-.07-.05a4,4,0,0,0,1.39-2.31c0-.05,0-.1,0-.15-.28-1.58-1.51-.92-.19-2.12a14.54,14.54,0,0,0,1.29-1.32c1.7-2,2.48-4.17,1.36-5.5a2.77,2.77,0,0,0-1-.72l-.56-.24a10.17,10.17,0,0,0-2.78-.52h0c-.41-.09-.46-.3,0-1.11a7.39,7.39,0,0,1,.74-1.11c.88-1.14,1.9-2.09,1.63-3.1a1.52,1.52,0,0,0-.22-.47,1.91,1.91,0,0,0-.24-.32,2.93,2.93,0,0,0-1.81-.95h0c-.8-.13-1.45,0-1.41-.4,0-.2.37-.5.86-.87h0a8.86,8.86,0,0,0,2.36-2.33,2.59,2.59,0,0,0,.29-.77,1.88,1.88,0,0,0-.13-1,3.13,3.13,0,0,0-.2-.41,2.42,2.42,0,0,0-.87-.82c-2-1.08-5.36.48-5.83-.76-.2-.53.46-1.47,1.28-2.59,1.51-2.09,3.57-4.85,1.67-7,1,1.88.09,3.19-2.3,5.61l-.44.46q-.51.51-.93,1a7.45,7.45,0,0,0-1.86,2.67,1.68,1.68,0,0,0,.5,1.74,2.4,2.4,0,0,0,1.81.5,5.41,5.41,0,0,1,2.38.2h0a1.31,1.31,0,0,1,.46.35,1.94,1.94,0,0,1,.4.94,2.15,2.15,0,0,1-.19,1.29,8.4,8.4,0,0,1-1.51,1.87,1.22,1.22,0,0,0-.42.83.64.64,0,0,0,.32.5,4.28,4.28,0,0,0,.88.5c.77.32,1.32.4,1.37,1.39a4.46,4.46,0,0,1,0,.92,5.14,5.14,0,0,1-.63,1.74,19.41,19.41,0,0,0-1.19,1.95,1,1,0,0,0,.15,1.06,1.85,1.85,0,0,0,1.57.4h0a5.08,5.08,0,0,1,2.47.17A1.75,1.75,0,0,1,665,276c.43,1.45-1.31,2.72-2.79,3.94h0c-1.16,1-2.17,1.89-1.84,2.85a4,4,0,0,1,.21,1.28,3.79,3.79,0,0,1-.09.78,17.84,17.84,0,0,0-2.44.2l-.41.06a3.54,3.54,0,0,0-.33-.46c-.35-.37-.67-.67-.94-.94-.68-.7-1-1.27-.4-2.71.09-.22.2-.46.33-.73a26.66,26.66,0,0,0,2.44-5.17,5.27,5.27,0,0,0,.17-1.3,4.16,4.16,0,0,0-.23-1.43c0-.12-.08-.24-.13-.36a2.84,2.84,0,0,0-.39-.63c-1.42-1.59-4.14.93-4-.88.07-1.15,1.08-1.86,1.68-2.75a2.23,2.23,0,0,0,.41-1,2.51,2.51,0,0,0-.31-1.44,2.47,2.47,0,0,0-.31-.46,2.22,2.22,0,0,0-.55-.47c-1.71-1.08-4.52-.06-3.7-1.87.26-.57.78-1.2,1.1-1.89a2,2,0,0,0-.08-2.08,3.25,3.25,0,0,0-.25-.34c-1.18-1.33-5.59,1.63-3.48-1,.43-.54.92-1.13,1.38-1.76a11.31,11.31,0,0,0,1.27-2.13,4.94,4.94,0,0,0,.44-2.09c-.06-1.64-1.16-3.33-4.26-4.93,2.25,1.45,1,4.69-1,7.08-.24.28-.5.56-.75.81h0l-.42.4A6.92,6.92,0,0,0,643,258a1.83,1.83,0,0,0,1.53,2.36l.72.14A7,7,0,0,1,647,261a1.16,1.16,0,0,1,.6.53,1.38,1.38,0,0,1,0,1l0,.1c-.43,1.23-1,2.19.29,2.59h0l.06,0a8.28,8.28,0,0,1,2.26.92,2.69,2.69,0,0,1,.75.67,1.88,1.88,0,0,1,.36,1.28,1.73,1.73,0,0,1-.2.62c-.91,1.77-4.62,4.08-4.14,5.46.2.57,1,.54,1.92.4a11.37,11.37,0,0,1,2.87-.2,2.49,2.49,0,0,1,1.68.85A2.3,2.3,0,0,1,654,277c-.13,1.47-1.28,3.13-2,4.53h0c-.59,1.13-.91,2.09-.2,2.63.51.39,1,.75,1.36,1.1a4.76,4.76,0,0,1,1,1.09,8.29,8.29,0,0,0-1.65,1.29c-.24.24-.47.51-.7.79s-.21.29-.32.44a7,7,0,0,0-1.73-1,4.93,4.93,0,0,0-2-.31,9.44,9.44,0,0,0-1.69.25,5.38,5.38,0,0,1,.18-3.14,7.93,7.93,0,0,1,1.87-2.65,2.51,2.51,0,0,0,.84-1.83,2.11,2.11,0,0,0-.72-1.41,3.17,3.17,0,0,0-1-.64,3.74,3.74,0,0,0-.54-.17c-1.49-.34-2.89-.48-3.23-1.75a1.33,1.33,0,0,1-.06-.3,10,10,0,0,1,.5-2.93c.35-1.4.68-2.8.2-3.39a1.57,1.57,0,0,0-2-.42,1.12,1.12,0,0,1,1.42.92,4.7,4.7,0,0,1-.56,2.84c-.08.16-.15.32-.22.48h0a8.23,8.23,0,0,0-.89,4.46,1.9,1.9,0,0,0,.92,1.37,4.29,4.29,0,0,1,1.27,1,2.78,2.78,0,0,1,.4.59,3.58,3.58,0,0,1,.23,2.41,9,9,0,0,1-.75,2,13.7,13.7,0,0,0-.91,2.17h0a3.51,3.51,0,0,0-.21,1.83q-.46.31-.9.66c-.29.24-.58.5-.85.76s-.4.4-.59.61-.51.59-.75.89c-.43.56-1.38,2.15.5,3.14s8.62.08,11.8.36c2.84.23,5,.85,5.58-.54,1-.08,1.88-.17,2.48-.17,2.71,0,1.82.89,5,.89h.16c3.15,0,6.64-.77,6.75-3.42A2.08,2.08,0,0,0,671.49,291.11Z"/><path class="cls-1" d="M1097.29,231.56c-1-1.32-3.47-2.26-5.2-3.27a7,7,0,0,1-1.2-.83c-.11-.1-.21-.21-.3-.31a5.53,5.53,0,0,0-1-1l-.08,0a3.91,3.91,0,0,0,1.39-2.31.59.59,0,0,0,0-.14c-.28-1.59-1.5-.93-.19-2.13a13.45,13.45,0,0,0,1.3-1.32c1.69-2,2.48-4.17,1.36-5.5a2.77,2.77,0,0,0-1-.72l-.56-.24a10.23,10.23,0,0,0-2.78-.52h0c-.41-.09-.45-.3,0-1.11a8.24,8.24,0,0,1,.74-1.11c.89-1.14,1.91-2.09,1.64-3.1a1.52,1.52,0,0,0-.22-.47c-.08-.12-.16-.22-.24-.32a3,3,0,0,0-1.82-.95h0c-.8-.13-1.45,0-1.42-.4,0-.2.38-.5.86-.87h0a9,9,0,0,0,2.36-2.33,2.24,2.24,0,0,0,.28-.77,1.78,1.78,0,0,0-.12-1,2.25,2.25,0,0,0-.21-.41,2.4,2.4,0,0,0-.86-.82c-2-1.08-5.36.48-5.83-.76-.2-.53.46-1.47,1.28-2.59,1.51-2.09,3.57-4.85,1.67-7,1,1.88.08,3.19-2.3,5.61l-.45.46c-.34.34-.65.66-.92,1a7.4,7.4,0,0,0-1.86,2.67,1.66,1.66,0,0,0,.5,1.74,2.39,2.39,0,0,0,1.81.5,5.35,5.35,0,0,1,2.37.2h0a1.41,1.41,0,0,1,.46.35,2,2,0,0,1,.39.94,2.07,2.07,0,0,1-.18,1.29,8.69,8.69,0,0,1-1.51,1.87,1.24,1.24,0,0,0-.43.83.68.68,0,0,0,.33.5,4,4,0,0,0,.88.5c.76.32,1.32.4,1.37,1.39a5.46,5.46,0,0,1-.06.92,4.86,4.86,0,0,1-.62,1.74,17.71,17.71,0,0,0-1.19,1.95,1,1,0,0,0,.14,1.06,1.88,1.88,0,0,0,1.58.4h0a5.08,5.08,0,0,1,2.47.17,1.75,1.75,0,0,1,.89,1.16c.43,1.45-1.31,2.72-2.8,3.94h0c-1.17,1-2.17,1.89-1.84,2.85a4,4,0,0,1,.21,1.28,4.64,4.64,0,0,1-.09.78,19.88,19.88,0,0,0-2.45.2l-.41.06a2.31,2.31,0,0,0-.33-.46c-.35-.37-.67-.66-.93-.94-.69-.7-1-1.27-.41-2.71.09-.22.21-.46.34-.73a27.26,27.26,0,0,0,2.44-5.17,6.44,6.44,0,0,0,.17-1.3,4.41,4.41,0,0,0-.23-1.43c0-.12-.09-.24-.14-.36a2.26,2.26,0,0,0-.39-.63c-1.42-1.59-4.14.93-4-.88.07-1.15,1.08-1.86,1.67-2.75a2.23,2.23,0,0,0,.41-1,2.36,2.36,0,0,0-.31-1.44,3,3,0,0,0-.3-.46,2.22,2.22,0,0,0-.55-.47c-1.71-1.08-4.53-.06-3.71-1.87.26-.57.79-1.2,1.11-1.89a2,2,0,0,0-.08-2.08,3.25,3.25,0,0,0-.25-.34c-1.18-1.33-5.59,1.63-3.49-1,.43-.54.93-1.13,1.38-1.76a10.8,10.8,0,0,0,1.27-2.13,4.79,4.79,0,0,0,.44-2.09c0-1.64-1.15-3.33-4.26-4.93,2.26,1.45,1,4.69-1,7.08-.24.28-.49.56-.75.81h0l-.42.4a7,7,0,0,0-2.29,3.47,1.84,1.84,0,0,0,1.53,2.36l.73.14a7,7,0,0,1,1.76.44,1.16,1.16,0,0,1,.6.53,1.33,1.33,0,0,1,0,1,.3.3,0,0,1,0,.1c-.43,1.24-1,2.2.29,2.59h0l0,0a8.34,8.34,0,0,1,2.27.92,2.65,2.65,0,0,1,.74.67,1.83,1.83,0,0,1,.36,1.28,1.53,1.53,0,0,1-.19.62c-.91,1.77-4.63,4.08-4.15,5.46.21.57,1,.54,1.92.4a11.4,11.4,0,0,1,2.87-.2,2.52,2.52,0,0,1,1.69.85,3.32,3.32,0,0,1,.26.36,2.36,2.36,0,0,1,.29,1.43c-.12,1.46-1.27,3.12-2,4.52h0c-.59,1.13-.91,2.09-.21,2.63.51.39,1,.75,1.37,1.1a5,5,0,0,1,1,1.09,8,8,0,0,0-1.65,1.29,9,9,0,0,0-.7.79c-.11.14-.22.29-.32.44a7.2,7.2,0,0,0-1.73-1,5,5,0,0,0-2-.31,9.33,9.33,0,0,0-1.68.25,5.47,5.47,0,0,1,.17-3.14,7.93,7.93,0,0,1,1.87-2.65,2.41,2.41,0,0,0,.84-1.82,2.06,2.06,0,0,0-.71-1.42,3.33,3.33,0,0,0-1-.64,3.38,3.38,0,0,0-.54-.17c-1.49-.33-2.88-.48-3.22-1.75a1.33,1.33,0,0,1-.06-.3,9.91,9.91,0,0,1,.49-2.93c.36-1.4.68-2.8.21-3.39a1.6,1.6,0,0,0-2-.42,1.13,1.13,0,0,1,1.43.92,4.72,4.72,0,0,1-.57,2.84l-.22.48h0a8.3,8.3,0,0,0-.88,4.46,1.87,1.87,0,0,0,.92,1.37,4.42,4.42,0,0,1,1.27,1,2.48,2.48,0,0,1,.39.6,3.49,3.49,0,0,1,.23,2.4,8.15,8.15,0,0,1-.75,2,13.5,13.5,0,0,0-.9,2.17h0a3.68,3.68,0,0,0-.22,1.83c-.31.21-.6.43-.89.66s-.58.5-.85.76-.4.4-.59.61-.52.59-.75.89c-.43.56-1.39,2.15.5,3.14s8.62.08,11.8.36c2.84.24,5,.86,5.57-.54,1-.08,1.88-.17,2.48-.17,2.72,0,1.83.89,5,.89h.17c3.15,0,6.64-.77,6.74-3.42A2,2,0,0,0,1097.29,231.56Z"/><path class="cls-1" d="M154.5,115.78c4.39-4.79,6.32-4.1,2.55,2.65,2.12-1.48,11.32-13.32,12.76-10.19,5.7,12.46-17.42,31.85-17.42,31.85s12.51-4.89,4.72,1.23c1.81-.27,17.34-9.27,16.2-6S167,142.25,156,149.15c3.22-.12,14.93-7.88,14.92-6.17,0,1.22-1.28,5.43-10.36,12.49h0A127.29,127.29,0,0,1,145,165.65c5.48.84.42,3.93.42,3.93s19.08-5.44,18-3.06a10.64,10.64,0,0,1-2.5,3.1c-3.44,3.16-10.88,7.75-26.27,12l-14.16-17.7a50.27,50.27,0,0,1,2.9-9.09c2.49-6.24,7-15.48,15-27.22C154,104.73,160.27,103.38,154.5,115.78Zm14.38,39.87c1.43-2.11-16.25,7-17.73,9.11S165.58,160.53,168.88,155.65Z"/><path class="cls-1" d="M46,5.62C126,86.46,136.46,88,135.76,158.87s44.38,125.82,81.64,81.54,78.6,83.65,145.93,64,77.91-43.59,90.29-19S532,232.68,586,274.15s86.75,1.57,106.75,7.9,169.37,132.11,242,52.68S1150,205.26,1174,118.8V474.49H0V0Z"/><path class="cls-1" d="M1012.24,348.16l-38.85-14.74,4.06-3.35L966,320.68l-1.39-4.87s-32.13-14.73-31.89-15.08,6.37-1.53,6.37-1.53l1.4-2.76-6.85-3.36,1.74-2.67L948.57,292a29.56,29.56,0,0,1,.93-3.24c.23-.35-38.81-15.54-38.81-15.54l-2.47-2.67,2.47-2v-1.1l-12-6.79h5.57l-10.44-2.21-.93-2.66h11.37v-3.42s-11.2-5.7-25.56-11.81L858.33,95.83,870,99.66c8.21,9.7,7.1,25,10.92,37.45,4.09,13.31-2.61,17.3,9.73,33.23s22.71,31.39,22,42.43c3.82-11.48,1-26-7.74-32S891.2,155.1,891.2,155.1l2.37-.6s3.3,9.58,11.4,15.92c7.29,5.7,9,11.34,9.29,12.42-.19-1.52-1.75-12.27-9-18.35-2.44-2-4.42-5.55-6-9.77-3.44-9.22-4.86-21.77-4.8-29.18,0-.62,0-1.21,0-1.73.27-8.54,2-4.24,4.68,6.24C902,141.2,911.32,153.89,924,163.12s17.22,12.52,18.45,27.74S956.11,212.17,956.8,219c2.36-6.17-12-13.12-12.42-29.49S938.81,164,925,154c-6.43-4.63-9.39-9.95-10.73-14.32v0a20.91,20.91,0,0,1-.92-8.78s2.38,4,9.94,10a1.11,1.11,0,0,0,.23.19c7.74,6.1,5.74,3.4,1.06-2.17s-3.32-7.39-3.32-7.39,8.27,9.14,19.31,11-16.09-7.91-18.52-15.9A68.77,68.77,0,0,1,919.59,116L931,119.77a1.6,1.6,0,0,0,2-.85h0a1.6,1.6,0,0,0-1-2.19L857.83,92.29l-9.51-67.5-1.79.37L853,90.7c-35.09-11.54-69.87-23-77-25.3a1.61,1.61,0,0,0-1,3.06l6.84,2.23c3.21,9.38-2.32,25.15,10.95,34.94,13.92,10.25,15.49,14.53,15.74,23.82s7.39,4.78,6.61,15.76c2.17-6-5.57-14-5.3-17.93.15-2.3-.56-8.25-2.17-13.78-1.11-3.86-2.65-7.49-4.61-9.54,4.32,1.86,6.53,5.64,7.93,9.85v0c2.34,7,2.42,15.2,6.07,17.81,5.64,4.05,12.59,22.27,13,23.4a74.83,74.83,0,0,0-8.41-24.63c-6-10.52-7.25-22.11-7.44-24.57a4.19,4.19,0,0,1,0-.48,24.58,24.58,0,0,0,6.91,6.12,15.39,15.39,0,0,0,4.13,1.62c6.45,1.4,4.18,18.43,12.53,21.31s8,17.83,8,17.83,2.53-17.39-5.38-25.65-6.18-14.45-11.48-20.19c-4.17-4.51-3.5-16.36-3-21.25l27.53,9L864,201.27,867.42,236a214,214,0,0,0-22.51-7.48,59.7,59.7,0,0,0-8.4-12.67,34.81,34.81,0,0,0-6.33-5.55l1.94-.79,1.88-.77-.92-2.28,4.18-1.67c-3.62-.87-7.22-1.64-10.79-2.34l-.62-8.76c5.24.85,8.32,1.48,8.32,1.48l-.29-2.09-1.57-.92.88-.23,1.69-.42.33-.75c-39.82-7.93-68.84-7.26-87.75-4.9a159.85,159.85,0,0,0-20.7,3.87L665,122.24h-4v2.87l53.84,69A149.15,149.15,0,0,0,691,215.38l2.09-.62.87-.28v2.3c.78-.85,1.55-1.63,2.32-2.41l2.77,3.57a42.09,42.09,0,0,0-4.31,5.19c-1.74,2.71-.23,3.86,1.08,4.34a5.45,5.45,0,0,0,1.4.31A169.93,169.93,0,0,0,705,252c.27.62.52,1.25.79,1.89,3.69,8.81,8.68,18.37,15.07,26.14.42.54.86,1,1.29,1.54l.38.44c8,9,16.45,14.72,24,19.87l1.8,1.23h0a86.74,86.74,0,0,1,12.32,9.71c-1.47-3.08-3-6.1-4.64-9.1,1.61,3,3.18,6,4.64,9.1,5.92,12.5,10.37,25.72,11.37,40.29l132.6,24.32,113.71-24.32Zm-131.6-245,8.59,2.82c.91,3.1,2.94,11.32-1.42,11.42a3,3,0,0,1-1.31-.29C883.26,115.48,883.13,107.24,880.64,103.18Zm32.22,18.06a2.54,2.54,0,0,1-2.67,1.24,5.22,5.22,0,0,1-3.17-1.82,0,0,0,0,1,0,0c-2.5-2.71-4.08-7.75-4.77-10.35l10.9,3.59C913.54,115.88,914,119.39,912.86,121.24ZM804.3,87.37c-3.47,0-2.1-6.94-3.19-10.35l5.58,1.83C807,81.4,807.52,87.33,804.3,87.37Zm-18-15.22,7.91,2.59a18.49,18.49,0,0,1-.42,7.2,4.19,4.19,0,0,1-.25.81c-1.07,2.76-3.26-1.14-5.2-5.61C787.57,75.44,786.87,73.67,786.27,72.15ZM819.6,95.61a2,2,0,0,1-1.19-.52c-2.1-1.94.55-8.61-2.24-13.12l6.76,2.22C823.23,88.14,823.43,96.12,819.6,95.61ZM700.9,216.05l-2.73-3.52a81.15,81.15,0,0,1,6.13-5.36l2.57,3.3C704.66,212.39,702.65,214.29,700.9,216.05Zm19.25-15.14c-1.09.61-2.18,1.26-3.26,2l-2-2.56c1.33-.68,2.53-1.22,3.52-1.62Zm-7.57.65,2.15,2.77c-2,1.41-4,2.92-5.87,4.46l-2.48-3.2A65.06,65.06,0,0,1,712.58,201.56ZM806,191l.58,8.28q-6.54-.83-12.82-1.34l-.57-8.12C797.72,190.19,802,190.59,806,191Zm-16.72-1.45.57,8.08q-6.66-.48-12.9-.71l-.55-7.92C780.82,189.13,785.13,189.32,789.31,189.58ZM772.53,189l.56,7.86c-4.51-.13-8.82-.17-12.89-.16l-.53-7.47C764,189,768.27,188.94,772.53,189Zm50,12.77c-4-.73-8-1.37-12-1.92l-.59-8.34c4.5.54,8.53,1.1,12,1.62ZM755.8,189.41l.51,7.29q-5.59.08-10.44.24l-1-6.51C748.46,190,752.12,189.64,755.8,189.41ZM741,191l1,6.11-8.22.34-3.9-4.26C733.46,192.26,737.2,191.54,741,191Z"/><path class="cls-1" d="M185.17,204.4c4-4.39,5.79-3.75,2.34,2.43,1.94-1.36,10.36-12.2,11.68-9.34,5.22,11.42-15.95,29.16-15.95,29.16s11.46-4.47,4.32,1.13c1.66-.24,15.88-8.48,14.83-5.5s-5.75,6.36-15.84,12.66c2.94-.1,13.67-7.21,13.66-5.64,0,1.11-1.18,5-9.49,11.44h0a115.47,115.47,0,0,1-14.27,9.31c5,.77.38,3.6.38,3.6s17.47-5,16.47-2.8a10.07,10.07,0,0,1-2.29,2.84c-3.15,2.89-10,7.09-24.06,11l-13-16.21a46.43,46.43,0,0,1,2.66-8.32,129.47,129.47,0,0,1,13.76-24.92C184.75,194.28,190.45,193.05,185.17,204.4Z"/><path class="cls-1" d="M240.55,210c-.08-6,1.65-6.7,3.37.17.48-2.32-.8-16,2.12-14.8,11.62,4.75,8.33,32.18,8.33,32.18s5.29-11.11,3.93-2.14c1-1.31,5.76-17.05,7-14.17s.16,8.58-2.88,20.08c2.08-2.09,5-14.61,6.09-13.46.75.82,2.55,4.43.92,14.83h0a116.22,116.22,0,0,1-4,16.55c4.19-2.87,2.74,2.36,2.74,2.36s9.33-15.59,10.09-13.31a9.82,9.82,0,0,1,.27,3.63c-.31,4.27-2.4,12-10,24.48L248,263.46a45.51,45.51,0,0,1-3.76-7.88,129.52,129.52,0,0,1-7-27.59C233.31,202.91,236.63,198.1,240.55,210Zm34.58,17.59c-.37-2.3-6.48,14.84-6.12,17.2S276,232.91,275.13,227.58Z"/><path class="cls-1" d="M1060.71,227.42a8.6,8.6,0,0,0-1.65-2.2.85.85,0,0,0-1.43.75c.73,3.82-1.21,7.69-3.4,8.22a.7.7,0,0,1-.32,0,.75.75,0,0,1-.55-.95c.76-2.31.16-5-1.27-7.7-1.21-2.28-.91-7-.69-9.21a1.1,1.1,0,0,0-.5-1,7.16,7.16,0,0,1,1.45-1.94c.73-.61,2-.37,3.4-.39a2.86,2.86,0,0,0,2.85-2.76,1.77,1.77,0,0,0,0-.23c.06-2.22-.06-4.92-.13-6.26a.84.84,0,0,0-.84-.8h0a.84.84,0,0,0-.8.76,25.08,25.08,0,0,1-.75,3.83,2.36,2.36,0,0,1-1.94,1.27.57.57,0,0,1-.63-.7,4.56,4.56,0,0,1,.29-.86c.11-.25.24-.54.41-.85a10.58,10.58,0,0,0,.87-4.33,3.69,3.69,0,0,0-.24-.49,2.48,2.48,0,0,1-1.14,1c-.46-1,.58-2.72,1-3.33a.47.47,0,0,0,.1-.3.63.63,0,0,0,0-.19.57.57,0,0,0-.91-.24,11.62,11.62,0,0,0-1.49,1.55,2.41,2.41,0,0,0-.46.88,6.74,6.74,0,0,0,.53,2.68,4.2,4.2,0,0,1,.21,2c-.24,1.87-.84,5.47-2,5.55a2.08,2.08,0,0,1-.51-1.22h0a9.86,9.86,0,0,1,.64-3.8,3.28,3.28,0,0,0-.66-1.72.64.64,0,0,0-1,.06l0,.05c-1,1.61-.49,3.2-.51,5.84,0,2.11,1,2.66,1.61,2.79a.39.39,0,0,1,.29.5l-.43,1.27-.1.3a7.62,7.62,0,0,0-1.49.28,1.08,1.08,0,0,0-.71,1.43c.79,2,1.1,6.29,1.19,7.87a.52.52,0,0,1-.64.54,4.41,4.41,0,0,1-1.38-.63c-1.23-.83-.9-3.23-1.25-5a2.39,2.39,0,0,0-1.22-1.65h0a.65.65,0,0,0-.91.56c-.11,1.81-.29,6,.39,7.37.88,1.75,4.78.58,6.36,2.41a1.83,1.83,0,0,1,.4.75c.37,1.29-.5,2.94-1.09,3.88a.81.81,0,0,1-1.2.21,72.91,72.91,0,0,1-6.08-5.47,9,9,0,0,1-2-5.19.86.86,0,0,0-.36-.64.87.87,0,0,0-1.28.27c-.14.27-.31.62-.5,1.06s-.4,1.06-.62,1.77a4.48,4.48,0,0,0,1.34,4.64c2.7,2.41,7.45,4.67,10.38,5.93a4.52,4.52,0,0,1,.49.25h0a4.37,4.37,0,0,1,2.15,3.58l.17,3.74.69,15.75,1-.62s-.32-5.06-.68-10.41c-.33-5,1.82-6.86,1.58-9.31a.65.65,0,0,1,.38-.65,3.47,3.47,0,0,0,1.68-1.75.61.61,0,0,1,.42-.36c.87-.26,3.34-1.06,3.94-2.38A7,7,0,0,0,1060.71,227.42Z"/><path class="cls-1" d="M536.08,244.28c-.77,1.69-3.93,2.72-5.05,3a.81.81,0,0,0-.54.48,4.42,4.42,0,0,1-2.16,2.24.84.84,0,0,0-.48.83c.31,3.14-2.45,5.48-2,11.93.46,6.86.87,13.34.87,13.34l-1.22.8-.89-20.18-.21-4.81a5.61,5.61,0,0,0-2.76-4.58h0a4.65,4.65,0,0,0-.63-.32c-3.75-1.62-9.84-4.51-13.31-7.6a5.73,5.73,0,0,1-1.7-5.94,22.13,22.13,0,0,1,.79-2.27,11.27,11.27,0,0,1,.64-1.36,1.11,1.11,0,0,1,1.64-.35,1.13,1.13,0,0,1,.46.81c.1,1.25.56,4.56,2.57,6.66a97.29,97.29,0,0,0,7.8,7,1,1,0,0,0,1.54-.27c.76-1.2,1.87-3.32,1.4-5a2.62,2.62,0,0,0-.52-1c-2-2.34-7-.83-8.15-3.08-.87-1.74-.64-7.13-.5-9.45a.84.84,0,0,1,1.17-.72l.05,0a3,3,0,0,1,1.55,2.11c.46,2.23,0,5.31,1.61,6.37a5.68,5.68,0,0,0,1.77.81.66.66,0,0,0,.82-.69c-.12-2-.52-7.5-1.52-10.09a1.4,1.4,0,0,1,.91-1.84,10.71,10.71,0,0,1,2.22-.39h.12a1.41,1.41,0,0,1,1.49,1.55c-.29,2.83-.67,8.88.88,11.8,1.83,3.44,2.61,6.91,1.63,9.87a1,1,0,0,0,.7,1.22.81.81,0,0,0,.41,0c2.81-.68,5.3-5.64,4.36-10.53a1.09,1.09,0,0,1,1.83-1,10.94,10.94,0,0,1,2.12,2.83A9,9,0,0,1,536.08,244.28Z"/><path class="cls-1" d="M520.89,257.61c-.46,1.15-2.54,1.94-3.28,2.19a.53.53,0,0,0-.34.33,2.94,2.94,0,0,1-1.37,1.56.57.57,0,0,0-.3.57c.31,2.08-1.46,3.73-1,8,.52,4.56,1,8.87,1,8.87l-.79.57-1.22-13.43-.3-3.2a3.74,3.74,0,0,0-2-3h0l-.43-.2c-2.55-.95-6.7-2.7-9.11-4.65a3.84,3.84,0,0,1-1.32-3.91,14,14,0,0,1,.46-1.53,8.7,8.7,0,0,1,.38-.93.75.75,0,0,1,1.41.24,7.69,7.69,0,0,0,1.93,4.36,61.65,61.65,0,0,0,5.42,4.43.69.69,0,0,0,1-.22c.46-.83,1.14-2.27.77-3.36a1.57,1.57,0,0,0-.37-.63c-1.43-1.5-4.72-.34-5.53-1.8-.64-1.13-.66-4.74-.63-6.29a.55.55,0,0,1,.75-.51h0a2,2,0,0,1,1.1,1.35c.37,1.48.19,3.55,1.27,4.2a3.85,3.85,0,0,0,1.21.49.44.44,0,0,0,.52-.49,29.21,29.21,0,0,0-1.33-6.68.93.93,0,0,1,.55-1.25,6.79,6.79,0,0,1,1.47-.33H511a.94.94,0,0,1,1,1c-.1,1.9-.16,5.94,1,7.84,1.33,2.24,2,4.53,1.39,6.53a.63.63,0,0,0,.51.79.5.5,0,0,0,.27,0c1.86-.55,3.36-3.93,2.58-7.17a.73.73,0,0,1,1.19-.7,7.16,7.16,0,0,1,1.5,1.82A6,6,0,0,1,520.89,257.61Z"/><path class="cls-1" d="M1000.52,262.84a8.91,8.91,0,0,1,5.31-.48c1.12,2.34,4.27,5,7.12,7.45,2.32,2,4.43,3.84,5,5.23l-2.26.27c-1.42-.6-5-2.29-8.41-4.08a47.11,47.11,0,0,1-7.72-4.63A22.81,22.81,0,0,0,1000.52,262.84Zm19.27,12.87,2.52-.49c0,.17.07.34.1.49h4.81l.28-1.26,4.52.86.25-.45h1.15c.62-2.53,7.26-6.85,12.6-10.43,3.3-2.22,6.11-4.16,6.7-5.23.08-4-5.92-6.61-5.92-6.61a54.82,54.82,0,0,0-7.42,6.48,103.11,103.11,0,0,0,3.46-11.34,40.57,40.57,0,0,0,1.3-9.5c-6-2.09-14.12-.54-14.12-.54l-1.4,2.6a29.82,29.82,0,0,0-9.26,2.29s.51,8.72,1.23,17.4c.31,3.74.66,7.46,1,10.49-1.44-4-3.65-9.17-5.34-14.79a62.29,62.29,0,0,1-1.7-7,13.4,13.4,0,0,0-5.75-1.44c-3.49,2.51-3.22,5.12-3.22,5.12a72.91,72.91,0,0,0,4.72,10.11A67.25,67.25,0,0,0,1019.79,275.71Z"/></g></g></svg>