<svg xmlns="http://www.w3.org/2000/svg" viewBox="0 0 1055.32 395.91"><defs><style>.cls-1{fill:#4a9ff1;}</style></defs><g id="Layer_2" data-name="Layer 2"><g id="Layer_1-2" data-name="Layer 1"><path class="cls-1" d="M392.43,144.76a1.46,1.46,0,0,0-1.14-1.59l.13-1.13.8-7.18,4.19-41.75.58-3-.89-2.36s-1.66.2-2.07-1.17-1.27-1.85-1.57-1.44c-1-2.94-2.76-4.47-3.37-4.09l-.11.64-4.8,45.9-1,5.85-.65,8.22s-1.52,0-1.72,1.1c0,0-2.1.1-2.37,1.64l2.06.35,13.46,2.34S394,145,392.43,144.76Z"/><path class="cls-1" d="M373.14,152.31s-.11-1.38-1.39-1.38l-.07-1.12-.44-7.22-3-41.85,0-3.08L367,95.49s-1.6.48-2.23-.8-1.57-1.6-1.8-1.15c-1.5-2.72-3.48-3.93-4-3.45v.65l3.13,46v5.94l.77,8.21s-1.5.21-1.5,1.38c0,0-2.06.46-2.06,2H375S374.7,152.31,373.14,152.31Z"/><path class="cls-1" d="M1055.32,175.78c-99.33-67.69-128,51.62-194.08-1-24.47-13-77.89,45.77-80.91,17.68-6.73-39.12-21.32-44.71-26.62-44.89-5.14-.14-5.06,7.51-7.45,11.39s-8.15-3.16-23.56-20.15c-18.5-14.56-23.53.37-43.08,38.84-19.39,42.19-15.8-10-19,4.41-3.35,15.21-2.5,20.85-10.17,27.45s-9.15-28.69-20.08-4.91-21.25,23.66-23.9,30.1-6.09,37.63-10.67,47-17.07,14.22-16.61,40.44,0,73.78,0,73.78h312Z"/><path class="cls-1" d="M68.72,0c189.11,16,97,131.35,273,125.22,27.5-3,77.51,43.53,84,27,11.65-22.46,27.8-22.93,33.46-22,5.47,1,4.51,5.59,6.6,8.43s9-.28,27.36-7.52c21.34-5.14,25,5,41.31,32.31,15.74,29.58,17.94-2.91,19.65,6.5,1.8,9.93.25,13.19,7.65,18.75s13-15.62,21.9,1.05,19.86,18.68,21.93,23.13,2.13,24.14,5.93,30.74,16.49,12.09,13,28-8.5,44.9-8.5,44.9L0,199.92Z"/><path class="cls-1" d="M427.91,153.36c-.6-.76-2-1.3-3-1.88a4.89,4.89,0,0,1-.69-.48l-.17-.18a3.15,3.15,0,0,0-.59-.57l0,0a2.24,2.24,0,0,0,.79-1.34v-.08c-.17-.91-.87-.53-.11-1.22a7.54,7.54,0,0,0,.74-.76c1-1.15,1.43-2.41.78-3.17a1.54,1.54,0,0,0-.54-.41l-.33-.14a6.24,6.24,0,0,0-1.6-.31h0c-.24,0-.26-.16,0-.63a4,4,0,0,1,.43-.64c.51-.66,1.1-1.2.94-1.79a.67.67,0,0,0-.13-.27.86.86,0,0,0-.14-.18,1.6,1.6,0,0,0-1-.55h0c-.47-.08-.84,0-.82-.23s.22-.29.5-.51h0a5.09,5.09,0,0,0,1.36-1.34,1.23,1.23,0,0,0,.16-.44,1,1,0,0,0-.07-.57,1.34,1.34,0,0,0-.12-.24,1.32,1.32,0,0,0-.5-.47c-1.13-.62-3.08.28-3.35-.44-.12-.3.26-.84.73-1.49.88-1.2,2.06-2.79,1-4,.59,1.08,0,1.83-1.33,3.23-.08.09-.17.17-.26.26s-.37.38-.53.56a4.32,4.32,0,0,0-1.07,1.54,1,1,0,0,0,.29,1,1.37,1.37,0,0,0,1,.28,3.36,3.36,0,0,1,1.37.12h0a1.05,1.05,0,0,1,.27.2,1.34,1.34,0,0,1,.23.55,1.32,1.32,0,0,1-.11.74,4.72,4.72,0,0,1-.87,1.07.79.79,0,0,0-.25.49.43.43,0,0,0,.19.28,2.25,2.25,0,0,0,.51.29c.44.19.76.23.79.8a2.75,2.75,0,0,1,0,.53,2.65,2.65,0,0,1-.36,1,10.89,10.89,0,0,0-.68,1.13.57.57,0,0,0,.08.61,1.07,1.07,0,0,0,.91.23h0a2.92,2.92,0,0,1,1.42.09,1.05,1.05,0,0,1,.52.67c.25.84-.76,1.57-1.61,2.28h0c-.67.55-1.25,1.08-1.06,1.63a2.26,2.26,0,0,1,.12.75,2.12,2.12,0,0,1-.05.44,13.63,13.63,0,0,0-1.41.12l-.23,0a2.48,2.48,0,0,0-.19-.26c-.2-.22-.39-.39-.54-.54-.4-.41-.57-.73-.24-1.57.06-.12.12-.26.2-.41a16,16,0,0,0,1.4-3,3.22,3.22,0,0,0,.1-.75,2.66,2.66,0,0,0-.13-.83,1.67,1.67,0,0,0-.08-.2,1.23,1.23,0,0,0-.22-.36c-.82-.92-2.39.53-2.32-.51,0-.67.62-1.08,1-1.59a1.28,1.28,0,0,0,.24-.59,1.34,1.34,0,0,0-.18-.82,1.27,1.27,0,0,0-.18-.27,1.31,1.31,0,0,0-.31-.27c-1-.62-2.61,0-2.14-1.08.15-.33.46-.69.64-1.09a1.25,1.25,0,0,0-.19-1.39c-.68-.77-3.22.94-2-.57.25-.31.53-.65.8-1a6.35,6.35,0,0,0,.73-1.22,2.71,2.71,0,0,0,.25-1.21c0-.94-.66-1.92-2.45-2.84,1.3.84.59,2.71-.57,4.08-.14.16-.28.32-.43.47h0l-.24.23a3.93,3.93,0,0,0-1.32,2,1,1,0,0,0,.88,1.35l.42.08a4.6,4.6,0,0,1,1,.26.69.69,0,0,1,.34.31.73.73,0,0,1,0,.59s0,0,0,.06c-.24.71-.57,1.26.17,1.49h0a5.15,5.15,0,0,1,1.31.53,1.57,1.57,0,0,1,.42.39,1,1,0,0,1,.21.74.83.83,0,0,1-.11.35c-.52,1-2.66,2.35-2.39,3.15.12.33.56.31,1.11.23a6.46,6.46,0,0,1,1.65-.12,1.47,1.47,0,0,1,1,.49.8.8,0,0,1,.15.21,1.3,1.3,0,0,1,.17.82,8,8,0,0,1-1.16,2.61h0c-.34.65-.52,1.2-.12,1.51s.56.43.79.64a2.85,2.85,0,0,1,.55.62,4.82,4.82,0,0,0-.95.75,5.92,5.92,0,0,0-.41.45l-.18.26a3.93,3.93,0,0,0-1-.57,2.81,2.81,0,0,0-1.15-.18,4.54,4.54,0,0,0-1,.14,3.21,3.21,0,0,1,.1-1.81,4.74,4.74,0,0,1,1.08-1.53,1.41,1.41,0,0,0,.49-1,1.22,1.22,0,0,0-.42-.81,1.81,1.81,0,0,0-.57-.37l-.32-.1c-.85-.19-1.66-.28-1.86-1l0-.17a5.88,5.88,0,0,1,.28-1.69c.21-.81.4-1.61.12-2a.91.91,0,0,0-1.14-.24.64.64,0,0,1,.82.53,2.79,2.79,0,0,1-.32,1.64c0,.09-.09.18-.13.27h0a4.76,4.76,0,0,0-.51,2.58,1.08,1.08,0,0,0,.53.79,2.59,2.59,0,0,1,.73.56,1.63,1.63,0,0,1,.23.35,2,2,0,0,1,.13,1.38A4.71,4.71,0,0,1,412,150a7.67,7.67,0,0,0-.52,1.25h0a2.07,2.07,0,0,0-.13,1.06c-.17.12-.35.25-.51.38s-.34.29-.49.44-.23.23-.34.35-.3.34-.43.51a1.1,1.1,0,0,0,.28,1.81c1.09.58,5,.05,6.8.21,1.64.13,2.86.49,3.22-.31.57-.05,1.08-.1,1.42-.1,1.57,0,1.06.51,2.89.51h.1c1.82,0,3.83-.44,3.89-2A1.23,1.23,0,0,0,427.91,153.36Z"/><path class="cls-1" d="M480.47,138.46c-.6-.76-2-1.3-3-1.88a3.89,3.89,0,0,1-.7-.48l-.17-.18a3.43,3.43,0,0,0-.59-.56l0,0a2.29,2.29,0,0,0,.8-1.33.25.25,0,0,1,0-.08c-.17-.91-.87-.54-.11-1.23a7.54,7.54,0,0,0,.74-.76c1-1.15,1.43-2.4.79-3.17a1.69,1.69,0,0,0-.55-.41l-.32-.14a5.73,5.73,0,0,0-1.61-.3h0c-.23,0-.26-.17,0-.64a4.48,4.48,0,0,1,.43-.64c.51-.66,1.1-1.2.94-1.78a.94.94,0,0,0-.12-.28l-.14-.18a1.74,1.74,0,0,0-1.05-.55h0c-.46-.07-.84,0-.82-.23s.22-.29.5-.5h0a5.29,5.29,0,0,0,1.36-1.35,1.23,1.23,0,0,0,.16-.44,1,1,0,0,0-.07-.57,1,1,0,0,0-.12-.23,1.28,1.28,0,0,0-.5-.48c-1.13-.62-3.08.28-3.35-.43-.12-.31.26-.85.73-1.49.88-1.21,2.06-2.8,1-4.05.59,1.08,0,1.84-1.33,3.24l-.26.26-.53.55a4.41,4.41,0,0,0-1.07,1.54,1,1,0,0,0,.29,1,1.38,1.38,0,0,0,1,.29,3.21,3.21,0,0,1,1.37.11h0a.9.9,0,0,1,.27.21,1.08,1.08,0,0,1,.23.54,1.31,1.31,0,0,1-.11.74,5,5,0,0,1-.87,1.08.75.75,0,0,0-.25.48.45.45,0,0,0,.19.29,2.18,2.18,0,0,0,.51.28c.44.19.76.23.79.81a2.5,2.5,0,0,1,0,.52,2.82,2.82,0,0,1-.37,1,11.6,11.6,0,0,0-.68,1.12.57.57,0,0,0,.08.61,1.08,1.08,0,0,0,.91.23h0a2.91,2.91,0,0,1,1.42.1,1,1,0,0,1,.52.67c.25.83-.76,1.57-1.61,2.27h0c-.67.56-1.25,1.09-1.06,1.64a2,2,0,0,1,.12.74,2.14,2.14,0,0,1-.05.45,11.13,11.13,0,0,0-1.41.11l-.23,0-.19-.27c-.2-.21-.39-.38-.54-.54a1.19,1.19,0,0,1-.23-1.56,3.7,3.7,0,0,1,.19-.42,15.47,15.47,0,0,0,1.4-3,2.76,2.76,0,0,0,.1-.75,2.4,2.4,0,0,0-.13-.83c0-.06-.05-.13-.08-.2a1.23,1.23,0,0,0-.22-.36c-.82-.92-2.39.53-2.32-.51,0-.66.62-1.07,1-1.58a1.21,1.21,0,0,0,.24-.6,1.35,1.35,0,0,0-.18-.82,1.78,1.78,0,0,0-.17-.27A1.58,1.58,0,0,0,471,123c-1-.62-2.61,0-2.14-1.07.15-.33.46-.7.64-1.1a1.16,1.16,0,0,0-.05-1.2,1,1,0,0,0-.14-.19c-.68-.76-3.22.94-2-.57.25-.31.53-.65.8-1a6.43,6.43,0,0,0,.73-1.23,2.71,2.71,0,0,0,.25-1.21c0-.94-.66-1.91-2.45-2.84,1.3.84.59,2.71-.57,4.08a4.79,4.79,0,0,1-.43.47h0l-.24.23a4,4,0,0,0-1.32,2,1.06,1.06,0,0,0,.88,1.36l.42.08a4,4,0,0,1,1,.25.69.69,0,0,1,.34.31.74.74,0,0,1,0,.59.14.14,0,0,1,0,.06c-.24.71-.57,1.27.17,1.49h0l0,0a4.77,4.77,0,0,1,1.31.52,1.79,1.79,0,0,1,.43.39,1.06,1.06,0,0,1,.2.74.92.92,0,0,1-.11.36c-.52,1-2.66,2.34-2.39,3.14.12.33.56.31,1.11.23a6.46,6.46,0,0,1,1.65-.11,1.4,1.4,0,0,1,1,.48,1.37,1.37,0,0,1,.15.21,1.32,1.32,0,0,1,.17.82,7.85,7.85,0,0,1-1.16,2.61h0c-.34.65-.52,1.2-.12,1.52s.56.43.79.63a2.89,2.89,0,0,1,.55.63,4.43,4.43,0,0,0-.95.74,3.57,3.57,0,0,0-.4.46,2.35,2.35,0,0,0-.19.25,3.93,3.93,0,0,0-1-.57,2.81,2.81,0,0,0-1.15-.18,5.29,5.29,0,0,0-1,.15,3.19,3.19,0,0,1,.1-1.81,4.63,4.63,0,0,1,1.08-1.53,1.42,1.42,0,0,0,.49-1.05,1.25,1.25,0,0,0-.41-.82,1.94,1.94,0,0,0-.58-.36,2,2,0,0,0-.32-.11c-.85-.19-1.66-.27-1.86-1l0-.17a5.62,5.62,0,0,1,.29-1.7c.2-.8.39-1.61.11-2a.91.91,0,0,0-1.14-.24.65.65,0,0,1,.82.53A2.76,2.76,0,0,1,464,128a2.39,2.39,0,0,0-.13.28h0a4.72,4.72,0,0,0-.51,2.57,1.06,1.06,0,0,0,.53.79,2.45,2.45,0,0,1,.73.57,1.56,1.56,0,0,1,.23.34A2.06,2.06,0,0,1,465,134a4.86,4.86,0,0,1-.43,1.17,7.67,7.67,0,0,0-.52,1.25h0a2,2,0,0,0-.13,1,6.26,6.26,0,0,0-.51.39,5,5,0,0,0-.49.43c-.12.11-.23.23-.34.35s-.3.34-.43.52a1.1,1.1,0,0,0,.28,1.81c1.09.57,5,0,6.8.2,1.64.14,2.86.49,3.22-.31.57-.05,1.08-.1,1.42-.1,1.57,0,1.06.52,2.9.52h.09c1.82,0,3.83-.44,3.89-2A1.26,1.26,0,0,0,480.47,138.46Z"/><path class="cls-1" d="M625.72,226.1c-.59-.76-2-1.3-3-1.88a3.79,3.79,0,0,1-.69-.48l-.17-.18a3.4,3.4,0,0,0-.59-.56l0,0a2.24,2.24,0,0,0,.8-1.33.19.19,0,0,0,0-.08c-.16-.91-.87-.54-.11-1.23a9,9,0,0,0,.75-.76c1-1.15,1.43-2.4.78-3.17a1.5,1.5,0,0,0-.55-.41l-.32-.14a5.74,5.74,0,0,0-1.6-.3h0c-.24-.05-.26-.17,0-.64a4.48,4.48,0,0,1,.43-.64c.51-.66,1.09-1.2.94-1.78a1.38,1.38,0,0,0-.13-.28L622,212a1.72,1.72,0,0,0-1-.55h0c-.47-.07-.84,0-.82-.23s.22-.29.5-.5h0A5.29,5.29,0,0,0,622,209.4a1.23,1.23,0,0,0,.16-.44,1,1,0,0,0-.07-.57l-.12-.23a1.28,1.28,0,0,0-.5-.48c-1.13-.62-3.08.28-3.35-.43-.12-.31.26-.85.73-1.49.87-1.21,2.06-2.8,1-4,.6,1.08,0,1.84-1.32,3.23l-.26.27-.53.55a4.15,4.15,0,0,0-1.07,1.54,1,1,0,0,0,.29,1,1.36,1.36,0,0,0,1,.29,3.21,3.21,0,0,1,1.37.11h0a.75.75,0,0,1,.26.21,1.08,1.08,0,0,1,.23.54,1.22,1.22,0,0,1-.1.74,5.34,5.34,0,0,1-.87,1.08.7.7,0,0,0-.25.48.41.41,0,0,0,.19.29,2.62,2.62,0,0,0,.51.28c.44.19.76.23.79.8a3.68,3.68,0,0,1,0,.53,2.81,2.81,0,0,1-.36,1,8.61,8.61,0,0,0-.68,1.12.55.55,0,0,0,.08.61,1.07,1.07,0,0,0,.91.23h0a2.91,2.91,0,0,1,1.42.1,1,1,0,0,1,.51.67c.25.83-.75,1.57-1.61,2.27h0c-.67.56-1.25,1.09-1.06,1.64a2.24,2.24,0,0,1,.12.74,2.14,2.14,0,0,1,0,.45,11.13,11.13,0,0,0-1.41.11l-.24,0a1.2,1.2,0,0,0-.19-.27l-.53-.54c-.4-.41-.57-.73-.24-1.56a3.9,3.9,0,0,1,.2-.42,15.47,15.47,0,0,0,1.4-3,3.22,3.22,0,0,0,.1-.75,2.66,2.66,0,0,0-.13-.83c0-.06-.05-.13-.08-.2a1.24,1.24,0,0,0-.23-.36c-.81-.92-2.38.53-2.32-.51,0-.66.63-1.07,1-1.58a1.26,1.26,0,0,0,.06-1.42,1.27,1.27,0,0,0-.18-.27,1.31,1.31,0,0,0-.31-.27c-1-.62-2.61,0-2.14-1.08.15-.32.45-.69.64-1.09a1.16,1.16,0,0,0,0-1.2l-.14-.19c-.68-.76-3.22.94-2-.57.25-.31.53-.65.8-1a7,7,0,0,0,.73-1.23,3,3,0,0,0,.25-1.21c0-.94-.66-1.91-2.45-2.84,1.29.84.59,2.71-.57,4.08-.14.17-.28.32-.43.47h0a2.73,2.73,0,0,1-.25.23,4.05,4.05,0,0,0-1.31,2,1.05,1.05,0,0,0,.88,1.36l.41.08a3.91,3.91,0,0,1,1,.25.67.67,0,0,1,.35.31.83.83,0,0,1,0,.59.14.14,0,0,0,0,.06c-.25.71-.57,1.26.17,1.49h0l0,0a4.77,4.77,0,0,1,1.31.52,1.74,1.74,0,0,1,.42.39,1.07,1.07,0,0,1,.21.74,1.13,1.13,0,0,1-.11.36c-.52,1-2.67,2.34-2.39,3.14.12.33.55.31,1.11.23a6.46,6.46,0,0,1,1.65-.11,1.44,1.44,0,0,1,1,.48c.06.07.1.14.15.21a1.39,1.39,0,0,1,.17.82,8.15,8.15,0,0,1-1.16,2.61h0c-.34.65-.53,1.2-.12,1.52s.56.43.79.63a2.83,2.83,0,0,1,.54.63,5,5,0,0,0-1,.74,4.55,4.55,0,0,0-.4.46l-.18.25a4.11,4.11,0,0,0-1-.57,2.87,2.87,0,0,0-1.15-.18,5.16,5.16,0,0,0-1,.15,3.11,3.11,0,0,1,.1-1.81,4.63,4.63,0,0,1,1.08-1.53,1.41,1.41,0,0,0,.48-1,1.17,1.17,0,0,0-.41-.82,1.83,1.83,0,0,0-.58-.36,1.92,1.92,0,0,0-.31-.11c-.86-.19-1.66-.27-1.86-1a1,1,0,0,1,0-.17,5.56,5.56,0,0,1,.28-1.7c.21-.8.39-1.61.12-1.95a.92.92,0,0,0-1.14-.24.66.66,0,0,1,.82.53,2.71,2.71,0,0,1-.33,1.64l-.12.28h0a4.72,4.72,0,0,0-.51,2.57,1.08,1.08,0,0,0,.53.79,2.45,2.45,0,0,1,.73.57,2.88,2.88,0,0,1,.23.34,2.06,2.06,0,0,1,.13,1.39,4.86,4.86,0,0,1-.43,1.17,8.93,8.93,0,0,0-.53,1.25h0a2.11,2.11,0,0,0-.12,1.05c-.18.12-.35.25-.51.38s-.34.29-.5.44-.23.23-.33.35-.3.34-.44.52a1.1,1.1,0,0,0,.29,1.81c1.09.57,5,0,6.8.2,1.64.14,2.86.49,3.21-.31.58,0,1.08-.1,1.43-.1,1.57,0,1,.52,2.89.52h.1c1.81,0,3.82-.44,3.88-2A1.2,1.2,0,0,0,625.72,226.1Z"/></g></g></svg>