<svg xmlns="http://www.w3.org/2000/svg" viewBox="0 0 1332.62 422.16"><defs><style>.cls-1{fill:#207fd2;}.cls-2{fill:#0a6bc3;}.cls-3{fill:#0059a9;}.cls-4{fill:#004993;}</style></defs><g id="Layer_2" data-name="Layer 2"><g id="Layer_1-2" data-name="Layer 1"><path class="cls-1" d="M0,152.66c76.67,34.56,188.83-46,242.12-84.33,40-28.74,76.33,70.31,102.72,48s-.76,99.73,28.32,36c14.7-32.19,29.57,30.54,59.23,37.59,8,1.9,21.95-10.69,42.64-19.17s52.52,2.58,75.62,37.6,32-4.43,39.45,7.74-.4,15.48,17.09,20.64,63.86-14.75,67.23,0,29.05,14.74,33,19.53,11.93,30.6,23.11,38.34S772.15,306.45,771,328.2s0,61.18,0,61.18H10.24Z"/><path class="cls-2" d="M464,230.75c11.86,41.67,21.88,11,30.13-35.25,6.18-34.66,11.74,37.72,15.82,10.86s10.38-33.56,11.78-39.75c4.76-21.06,4.57,6.61,9.16,15.11,1.24,2.29,3.4-12.89,6.6-23.11s8.13,3.11,11.7,45.33,4.94-5.33,6.1,9.33-.06,18.67,2.65,24.89,9.88-17.78,10.4,0,4.49,17.78,5.1,23.56,1.85,36.89,3.58,46.22,6.44,14.22,6.26,40.44,0,73.78,0,73.78H465.55Z"/><path class="cls-2" d="M1108.08,311.26s.37-3.55-2.88-4.15l.36-2.91,2.3-18.57,12.18-108,1.59-7.79-2.23-6.14s-4.29.46-5.31-3.09-3.23-4.82-4-3.78c-2.53-7.63-7-11.66-8.61-10.7l-.31,1.66-13.89,118.66-2.82,15.11-1.94,21.27s-3.92-.18-4.48,2.79c0,0-5.44.2-6.18,4.16l5.31,1,34.77,6.49S1112,312,1108.08,311.26Z"/><path class="cls-2" d="M1279.15,199.8c-11.86,41.67-21.88,11-30.12-35.25-6.19-34.66-11.75,37.72-15.83,10.86s-10.38-33.56-11.78-39.75c-4.76-21.06-4.57,6.61-9.16,15.11-1.24,2.29-3.4-12.89-6.6-23.11s-8.12,3.11-11.7,45.33-4.94-5.33-6.1,9.33.06,18.67-2.65,24.89-9.87-17.77-10.4,0-4.49,17.78-5.1,23.56-1.85,36.89-3.58,46.22-6.43,14.22-6.26,40.45,0,73.77,0,73.77h117.7Z"/><path class="cls-3" d="M1175,289.74h-16.28l-.58.27a27,27,0,0,1-6.4,1.91,33.43,33.43,0,0,1-4.57.47h0c-5.46.21-12.27-.67-20.84-3.29-10.5-8.58-8.51-9.31.46-3.14-2-4.68-6.37-8.67-2.16-6.68-.69-2.11-5.2-5.89-8.52-8.91-2.43-2.2-4.23-4-3.48-4.44,1-.59,4.07-.16,8.32,2.33h0a49.16,49.16,0,0,1,12.1,10.64c-1.82-3.17-5.77-7.29-9.52-11.25h0c-5.47-5.78-10.46-11.22-7.67-12.81,4.66-2.64,23.14,19.57,23.68,20.23-.18-.35-3.54-6.95.48-3.26-1-5.15-15.35-24.07-9.86-20.92,5.28,3,16.26,22,17,23.35-.81-1.7-15.42-32.31-11.66-30.16,1.81,1,3.83,3.54,5.82,6.66l.4.64c-2.46-11.2-.33-12.5,3.4-5-.77-4.91.57-5.74,2.8-.26.13-2-2.55-13.13,0-12.5,10.18,2.55,10.72,25.64,10.72,25.64s3.06-9.82,3-2.23c.71-1.21,2.75-14.8,4.15-12.56s1.15,7.08,0,17c1.47-2,2.43-12.69,3.45-11.87.72.59,2.63,3.37,2.51,12.17h0a95.89,95.89,0,0,1-1.37,14.17c3.13-2.87,2.55,1.63,2.55,1.63s5.87-14,6.77-12.21a8.07,8.07,0,0,1,.66,3C1180.64,271.86,1179.83,278.5,1175,289.74Z"/><path class="cls-3" d="M1018.5,299.26l-1.45.42-6.5,1.86-.25.21a13.55,13.55,0,0,1-2.86,1.84,17.51,17.51,0,0,1-2.17.87h0a32.32,32.32,0,0,1-10.65,1.31c-6.34-2.72-5.46-3.36-.21-1.6-1.61-2-4.33-3.35-2-3-.63-.94-3.36-2.15-5.41-3.16-1.49-.74-2.62-1.36-2.32-1.69s2-.65,4.39,0h0a24.92,24.92,0,0,1,7.41,3.5,38.46,38.46,0,0,0-6.23-4.16h0c-3.48-2.06-6.68-4-5.54-5.19,1.91-1.94,14,6.33,14.41,6.58-.13-.15-2.7-2.91-.22-1.67-1.22-2.37-10.88-9.61-7.75-8.84s11,8.47,11.61,9c-.64-.72-12.07-13.64-9.93-13.11a10.55,10.55,0,0,1,3.78,2.44l.28.25c-2.77-5.13-1.91-6.06,1-2.92-1.06-2.29-.52-2.89,1.34-.52-.22-1-3.09-6.06-1.75-6.11,5.33-.18,8.83,11,8.83,11s.12-5.23,1.15-1.51c.17-.69-.73-7.62.27-6.72s1.55,3.3,2.37,8.29c.45-1.17-.59-6.54,0-6.28.43.19,1.75,1.27,2.93,5.59h0a49.54,49.54,0,0,1,1.32,7.12c1.12-1.84,1.47.44,1.47.44s.91-7.67,1.6-6.92a4.22,4.22,0,0,1,.74,1.36C1018.75,289.73,1019.28,293.09,1018.5,299.26Zm-4.19-16.21c-.54-.83.07,6.88.62,7.74S1015.57,285,1014.31,283.05ZM990,302.24c2,.06-4.68-3.61-6.26-2.76C982.91,299.94,988,302.17,990,302.24Z"/><path class="cls-2" d="M342.42,235.23s.33-3.56-2.93-4.13l.32-2.9,6.55-55.65L357.22,56.92l1.49-7.82L356.41,43s-4.29.51-5.35-3-4.54-5.67-5.31-4.63c-2.62-7.6-6.65,2.18-8.25,3.17l-.29,1.66L325.54,153.67l-2.63,15.14-6.17,58.34s-3.92-.14-4.43,2.84c0,0-5.45.27-6.14,4.24l5.33.93,34.84,6.05S346.39,235.92,342.42,235.23Z"/><path class="cls-2" d="M351,78.53c7.83-12.33,19.25-11.91,25.33-9.83a45.06,45.06,0,0,0,4.42-2.25,25.67,25.67,0,0,0-1-3.25s-1.09-3.5-.75-3.75,2.41-.17,2.41-.83,3.92-5.34,1.17-5.84L380.29,47l1.25-3s-9.33-2-9.33-2.42.75-4.33.33-4.41-4.42-.59-4.42-.59L368,32.46l-19.92-1.18-2.16,16Z"/><path class="cls-2" d="M336.31,48.9l-4.19-3.37V43l-9-1.66s.67-3.27,0-3.14-5.33-2.53-5.33-2.53V32.46l9.26,1.91L344.79,37Z"/><path class="cls-2" d="M1323.62,317.65s-1.89-4.85-6.5-3.48l-1.47-4-27.57-76.87L1227.19,75.36l-3.13-11.17-7-6.48s-5.26,3.45-8.94-.48-9.61-4.46-9.94-2.6c-8.35-8.21-7.26,7.17-8.71,9.49l.7,2.35,58.45,155.7,6.39,21.47,29.83,80.14s-5.21,2.36-3.95,6.59c0,0-6.93,3.88-5.25,9.51l7.55-2.25,49.4-14.71S1329.25,316,1323.62,317.65Z"/><path class="cls-2" d="M1233.05,107.63c2.22-21.18,17.39-28,26.68-29.28,0,0,4.35-5.42,4.3-5.8a36.24,36.24,0,0,0-3.42-3.59s-3.68-3.86-3.41-4.41,3-1.78,2.61-2.65,1.65-9.51-2.26-8.37l-6.72-6.15-.32-4.73s-13.48,3.45-13.75,2.9-1.83-6.14-2.43-6-6.14,2.11-6.14,2.11l-2.75-5.26-26.76,11.39,7.56,22.29Z"/><path class="cls-2" d="M1194.71,78.47l-7.66-1.68-1.62-3.26L1172.6,77.2s-1.25-4.7-2-4.09-8.6.15-8.6.15L1159.86,69l13.33-3.53,24.88-8Z"/><path class="cls-2" d="M395.78,240.34s.32-3.56-2.93-4.13l.32-2.9,2.07-18.6,10.86-108.1,1.48-7.82-2.3-6.11s-4.28.52-5.34-3-3.29-4.78-4.06-3.73c-2.63-7.6-7.15-11.58-8.75-10.59L386.85,77,374.42,195.82,371.79,211l-1.69,21.29s-3.92-.14-4.44,2.84c0,0-5.44.27-6.13,4.24l5.33.93,34.84,6S399.75,241,395.78,240.34Z"/><path class="cls-3" d="M806.65,292.53a.66.66,0,0,1,0,.14,1.73,1.73,0,0,1-1.73,1.67c-.84,0-1.62-.13-2.06.24a8.59,8.59,0,0,0-1.53,2.49h-.43l.54-1.58.26-.77a.24.24,0,0,0-.18-.3c-.37-.08-1-.42-1-1.7,0-1.59-.29-2.56.31-3.54,0,0,0,0,0,0a.39.39,0,0,1,.63,0,2,2,0,0,1,.4,1.05,6.14,6.14,0,0,0-.39,2.3h0a1.31,1.31,0,0,0,.31.75c.68-.06,1.05-2.24,1.19-3.37a2.67,2.67,0,0,0-.12-1.19,4.12,4.12,0,0,1-.33-1.63,1.52,1.52,0,0,1,.28-.53,7.42,7.42,0,0,1,.91-.94.34.34,0,0,1,.55.15.37.37,0,0,1,0,.11.29.29,0,0,1,0,.18c-.25.37-.88,1.42-.6,2a1.49,1.49,0,0,0,.69-.59,2.1,2.1,0,0,1,.15.3,6.34,6.34,0,0,1-.53,2.62c-.1.19-.18.36-.25.51a4.16,4.16,0,0,0-.18.53.36.36,0,0,0,.39.43,1.48,1.48,0,0,0,1.18-.78,15.79,15.79,0,0,0,.45-2.32.51.51,0,0,1,.48-.46h0a.51.51,0,0,1,.51.48C806.61,289.54,806.68,291.19,806.65,292.53Z"/><path class="cls-3" d="M803.83,284.26c-.47,1-2.39,1.66-3.07,1.85a.49.49,0,0,0-.32.29,2.73,2.73,0,0,1-1.31,1.36.51.51,0,0,0-.3.5c.2,1.91-1.48,3.32-1.22,7.24.28,4.16.53,8.09.53,8.09l-.74.48-.54-12.24-.13-2.91a3.4,3.4,0,0,0-1.67-2.78h0a2.75,2.75,0,0,0-.38-.2c-2.27-1-6-2.73-8.07-4.61a3.47,3.47,0,0,1-1-3.6c.17-.56.33-1,.48-1.38s.28-.61.39-.82a.67.67,0,0,1,1-.21.65.65,0,0,1,.27.49,7,7,0,0,0,1.57,4A58.33,58.33,0,0,0,794,284.1a.64.64,0,0,0,.94-.16,4.31,4.31,0,0,0,.85-3,1.45,1.45,0,0,0-.32-.58c-1.23-1.43-4.26-.51-4.94-1.87-.53-1.06-.39-4.33-.3-5.74a.5.5,0,0,1,.7-.43h0a1.81,1.81,0,0,1,.95,1.28c.27,1.35,0,3.22,1,3.86a3.14,3.14,0,0,0,1.08.49.39.39,0,0,0,.49-.41,26.35,26.35,0,0,0-.92-6.12.85.85,0,0,1,.55-1.12,6.47,6.47,0,0,1,1.35-.23h.07a.86.86,0,0,1,.91.94c-.18,1.72-.41,5.39.53,7.16,1.11,2.09,1.58,4.19,1,6a.58.58,0,0,0,.43.74.39.39,0,0,0,.24,0c1.71-.41,3.21-3.42,2.65-6.39a.66.66,0,0,1,1.11-.58,6.63,6.63,0,0,1,1.28,1.71A5.46,5.46,0,0,1,803.83,284.26Z"/><path class="cls-3" d="M794.61,292.35c-.28.7-1.54,1.17-2,1.33a.31.31,0,0,0-.2.2,1.81,1.81,0,0,1-.83.94.34.34,0,0,0-.18.35c.18,1.26-.89,2.26-.59,4.86l.6,5.38-.48.35-.74-8.15-.18-1.94a2.28,2.28,0,0,0-1.2-1.8h0l-.26-.12a22.08,22.08,0,0,1-5.53-2.82,2.33,2.33,0,0,1-.8-2.37,8.55,8.55,0,0,1,.27-.93,5.8,5.8,0,0,1,.24-.56.45.45,0,0,1,.65-.18.42.42,0,0,1,.2.32,4.73,4.73,0,0,0,1.17,2.65,40.31,40.31,0,0,0,3.29,2.69.43.43,0,0,0,.62-.14,2.89,2.89,0,0,0,.47-2,1,1,0,0,0-.23-.38c-.86-.91-2.86-.21-3.35-1.09a11.64,11.64,0,0,1-.39-3.82.34.34,0,0,1,.46-.31h0a1.18,1.18,0,0,1,.67.82c.23.9.12,2.15.77,2.55a2.36,2.36,0,0,0,.73.29.26.26,0,0,0,.32-.29,17.64,17.64,0,0,0-.8-4,.56.56,0,0,1,.33-.76,4,4,0,0,1,.89-.2h.05a.57.57,0,0,1,.63.6c-.06,1.15-.1,3.61.58,4.76a5.17,5.17,0,0,1,.85,4,.38.38,0,0,0,.31.48.29.29,0,0,0,.16,0c1.12-.33,2-2.39,1.56-4.35a.45.45,0,0,1,.73-.42,4.7,4.7,0,0,1,.91,1.1A3.62,3.62,0,0,1,794.61,292.35Z"/><path class="cls-3" d="M779,289.94a.54.54,0,0,1,0,.11,1.45,1.45,0,0,1-1.88.72c-.65-.26-1.21-.63-1.67-.49a7.18,7.18,0,0,0-2,1.42l-.33-.14.93-1,.45-.51a.2.2,0,0,0,0-.3c-.26-.18-.63-.64-.2-1.63.54-1.23.62-2.07,1.41-2.63l0,0a.32.32,0,0,1,.5.18,1.68,1.68,0,0,1,0,.94,4.91,4.91,0,0,0-1.06,1.65h0a1.05,1.05,0,0,0,0,.68c.54.18,1.53-1.39,2-2.22a2.15,2.15,0,0,0,.29-1,3.65,3.65,0,0,1,.28-1.36,1.24,1.24,0,0,1,.4-.32,5.69,5.69,0,0,1,1-.43.28.28,0,0,1,.38.29.36.36,0,0,1,0,.1.25.25,0,0,1-.11.12c-.31.2-1.14.81-1.12,1.36a1.2,1.2,0,0,0,.73-.23s0,.28,0,.28a5.55,5.55,0,0,1-1.27,1.86,4.6,4.6,0,0,0-.37.31,4.12,4.12,0,0,0-.31.35.31.31,0,0,0,.16.46,1.27,1.27,0,0,0,1.17-.22,14.1,14.1,0,0,0,1.11-1.64.42.42,0,0,1,.52-.2h0a.43.43,0,0,1,.24.54C780,287.62,779.49,288.91,779,289.94Z"/><path class="cls-3" d="M781.64,279.31c-.7.64-2.39.5-3,.42a.44.44,0,0,0-.34.12,2.21,2.21,0,0,1-1.46.62.43.43,0,0,0-.39.3c-.48,1.53-2.24,2.08-3.32,5.19l-2.24,6.42-.74.14,3.6-9.64.86-2.3a2.9,2.9,0,0,0-.38-2.7h0a2.76,2.76,0,0,0-.23-.27,28.18,28.18,0,0,1-4.73-6.21,3,3,0,0,1,.38-3.13c.32-.37.59-.67.83-.9a4.59,4.59,0,0,1,.57-.51.56.56,0,0,1,.84.16.59.59,0,0,1,.05.47,5.94,5.94,0,0,0-.12,3.64,51.15,51.15,0,0,0,2.26,4.83.53.53,0,0,0,.78.18,3.59,3.59,0,0,0,1.64-2.05,1.2,1.2,0,0,0,0-.56c-.48-1.5-3.13-1.79-3.21-3.06-.06-1,1.12-3.47,1.65-4.53a.43.43,0,0,1,.69-.11l0,0a1.52,1.52,0,0,1,.31,1.3c-.23,1.14-1,2.5-.51,3.3a2.63,2.63,0,0,0,.67.74.34.34,0,0,0,.52-.16,22.64,22.64,0,0,0,1.29-5,.71.71,0,0,1,.79-.69,5.59,5.59,0,0,1,1.12.26l.06,0a.73.73,0,0,1,.39,1c-.7,1.27-2.08,4-1.94,5.71a6.5,6.5,0,0,1-1.2,4.95.49.49,0,0,0,.09.71.44.44,0,0,0,.2.08c1.45.24,3.6-1.6,4.14-4.08a.55.55,0,0,1,1-.08,5.09,5.09,0,0,1,.43,1.74A4.52,4.52,0,0,1,781.64,279.31Z"/><path class="cls-3" d="M771.87,282.54c-.45.45-1.58.4-2,.37a.31.31,0,0,0-.22.09,1.47,1.47,0,0,1-.95.46.3.3,0,0,0-.26.21c-.27,1-1.42,1.46-2.05,3.57s-1.29,4.35-1.29,4.35l-.49.11,2.1-6.54.5-1.55a1.92,1.92,0,0,0-.34-1.79h0l-.17-.18a19.06,19.06,0,0,1-3.34-4,2,2,0,0,1,.15-2.1,6.64,6.64,0,0,1,.53-.63l.36-.36a.37.37,0,0,1,.56.09.34.34,0,0,1,0,.31,4,4,0,0,0,0,2.43,32.71,32.71,0,0,0,1.66,3.15.36.36,0,0,0,.52.1c.38-.3,1-.84,1-1.42a.67.67,0,0,0,0-.37c-.37-1-2.14-1.1-2.23-2a9.57,9.57,0,0,1,1-3.07.29.29,0,0,1,.46-.09h0a1,1,0,0,1,.25.86c-.12.76-.62,1.7-.24,2.22a1.79,1.79,0,0,0,.47.46.22.22,0,0,0,.34-.12,14.68,14.68,0,0,0,.71-3.39.48.48,0,0,1,.51-.48,3.35,3.35,0,0,1,.75.13l0,0a.48.48,0,0,1,.29.67c-.43.87-1.26,2.75-1.11,3.86a4.3,4.3,0,0,1-.65,3.34.33.33,0,0,0,.09.48.25.25,0,0,0,.13,0c1,.12,2.35-1.17,2.63-2.84a.37.37,0,0,1,.7-.1,3.79,3.79,0,0,1,.34,1.15A3.08,3.08,0,0,1,771.87,282.54Z"/><path class="cls-3" d="M1225.23,230a1,1,0,0,1,.08.11,1.74,1.74,0,0,1-.28,2.39c-.65.53-1.34.91-1.46,1.48a8.68,8.68,0,0,0,.39,2.9l-.33.27-.58-1.56-.29-.76a.24.24,0,0,0-.33-.13c-.34.17-1,.31-1.83-.69-1-1.25-1.84-1.81-2-2.95v0a.38.38,0,0,1,.46-.43,2,2,0,0,1,1,.56,6.19,6.19,0,0,0,1.15,2h0a1.22,1.22,0,0,0,.7.38c.5-.47-.6-2.39-1.2-3.36a2.65,2.65,0,0,0-.85-.85,4.17,4.17,0,0,1-1.28-1,1.53,1.53,0,0,1-.12-.59,7.68,7.68,0,0,1,.11-1.3.34.34,0,0,1,.52-.23l.09.07a.29.29,0,0,1,.07.18c0,.44.21,1.65.81,1.94a1.48,1.48,0,0,0,.16-.89,2.08,2.08,0,0,1,.3.13,6.49,6.49,0,0,1,1.25,2.37c0,.22.09.4.13.56a3.17,3.17,0,0,0,.2.52.34.34,0,0,0,.56.09,1.46,1.46,0,0,0,.43-1.35,16.37,16.37,0,0,0-1.12-2.09.51.51,0,0,1,.09-.66h0a.51.51,0,0,1,.7.05C1223.31,227.72,1224.41,229,1225.23,230Z"/><path class="cls-3" d="M1216.07,223.1c.29,1.09-.81,2.79-1.21,3.37a.51.51,0,0,0-.07.43,2.68,2.68,0,0,1-.16,1.88.54.54,0,0,0,.09.58c1.35,1.35,1,3.51,3.62,6.38l5.52,5.94-.27.84-8.15-9.15-1.93-2.17a3.43,3.43,0,0,0-3.06-1.11h0a3.15,3.15,0,0,0-.42.09,34,34,0,0,1-9.17,1.52,3.49,3.49,0,0,1-3.08-2.14,14.08,14.08,0,0,1-.49-1.37c-.11-.36-.18-.66-.23-.89a.68.68,0,0,1,.65-.79.66.66,0,0,1,.52.21,6.91,6.91,0,0,0,3.76,2.14,60.35,60.35,0,0,0,6.35.32.64.64,0,0,0,.63-.72,4.3,4.3,0,0,0-1.25-2.87,1.45,1.45,0,0,0-.61-.26c-1.86-.33-3.63,2.29-5,1.67-1.07-.49-3-3.11-3.85-4.26a.5.5,0,0,1,.27-.78h0a1.84,1.84,0,0,1,1.54.39c1.07.88,2.05,2.49,3.19,2.38a3.51,3.51,0,0,0,1.15-.29.4.4,0,0,0,.12-.64,26.09,26.09,0,0,0-4.58-4.16.84.84,0,0,1-.27-1.21,6.27,6.27,0,0,1,.89-1l.05,0a.87.87,0,0,1,1.3.16c1,1.45,3.09,4.44,4.93,5.21,2.18.92,3.88,2.26,4.55,4a.57.57,0,0,0,1,.14c1.06-1.4.33-4.68-2-6.63a.66.66,0,0,1,.49-1.15,6.4,6.4,0,0,1,2.08.52A5.4,5.4,0,0,1,1216.07,223.1Z"/><path class="cls-3" d="M1214,235.19c.22.72-.45,1.88-.71,2.28a.37.37,0,0,0,0,.29,1.82,1.82,0,0,1,0,1.26.33.33,0,0,0,.07.38c1,.86.74,2.32,2.62,4.15s3.86,3.79,3.86,3.79l-.15.57-5.72-5.85-1.36-1.39a2.25,2.25,0,0,0-2.07-.64h0l-.28.07a22.12,22.12,0,0,1-6.07,1.3,2.33,2.33,0,0,1-2.12-1.33c-.16-.35-.28-.65-.37-.9a5.05,5.05,0,0,1-.18-.58.46.46,0,0,1,.41-.55.44.44,0,0,1,.35.12,4.7,4.7,0,0,0,2.58,1.32,40.06,40.06,0,0,0,4.24,0,.43.43,0,0,0,.4-.5,2.93,2.93,0,0,0-.92-1.88,1.06,1.06,0,0,0-.42-.15c-1.25-.16-2.35,1.65-3.29,1.27a11.65,11.65,0,0,1-2.71-2.72.34.34,0,0,1,.16-.53h0a1.21,1.21,0,0,1,1,.21c.74.55,1.45,1.6,2.2,1.49a2.29,2.29,0,0,0,.76-.23.27.27,0,0,0,.06-.43,18,18,0,0,0-3.18-2.64.56.56,0,0,1-.23-.8,4.31,4.31,0,0,1,.57-.72l0,0a.57.57,0,0,1,.87.07c.68.93,2.2,2.86,3.46,3.32a5.16,5.16,0,0,1,3.15,2.54.4.4,0,0,0,.54.18.49.49,0,0,0,.13-.12c.66-1,.07-3.13-1.53-4.35a.44.44,0,0,1,.29-.79,4.46,4.46,0,0,1,1.4.28A3.68,3.68,0,0,1,1214,235.19Z"/><path class="cls-3" d="M1204.32,244.52l.06.1a1.46,1.46,0,0,1-.35,2c-.57.42-1.17.7-1.29,1.18a7.08,7.08,0,0,0,.19,2.44l-.29.21-.42-1.33-.2-.66a.21.21,0,0,0-.27-.12c-.29.13-.88.21-1.5-.67-.78-1.09-1.46-1.6-1.53-2.56v0a.32.32,0,0,1,.41-.34,1.67,1.67,0,0,1,.79.52,4.94,4.94,0,0,0,.86,1.76h0a1.08,1.08,0,0,0,.58.35c.43-.37-.39-2-.85-2.88a2.28,2.28,0,0,0-.67-.75,3.46,3.46,0,0,1-1-.94,1.4,1.4,0,0,1-.07-.5,7.17,7.17,0,0,1,.15-1.09.29.29,0,0,1,.45-.17.23.23,0,0,1,.07.07.3.3,0,0,1,0,.15c0,.38.1,1.4.59,1.67a1.22,1.22,0,0,0,.17-.74,1.46,1.46,0,0,1,.25.13,5.33,5.33,0,0,1,.93,2c0,.18,0,.34.08.48s.1.33.14.44a.3.3,0,0,0,.48.1,1.23,1.23,0,0,0,.41-1.1,12.62,12.62,0,0,0-.83-1.81.43.43,0,0,1,.1-.55h0a.44.44,0,0,1,.59.08C1202.82,242.51,1203.68,243.59,1204.32,244.52Z"/><path class="cls-3" d="M1196.58,236.78c.18.93-.81,2.3-1.18,2.77a.41.41,0,0,0-.08.35,2.26,2.26,0,0,1-.22,1.57.42.42,0,0,0,.05.49c1.06,1.2.62,3,2.72,5.53s4.34,5.24,4.34,5.24l-.27.7-6.38-8.07-1.52-1.92a2.91,2.91,0,0,0-2.51-1.07h0a2.23,2.23,0,0,0-.36.05,27.93,27.93,0,0,1-7.76.83,2.93,2.93,0,0,1-2.48-1.94c-.16-.46-.27-.85-.35-1.17s-.11-.56-.14-.75a.57.57,0,0,1,.58-.64.6.6,0,0,1,.43.2,5.77,5.77,0,0,0,3,2,49.29,49.29,0,0,0,5.3.57.53.53,0,0,0,.56-.57,3.65,3.65,0,0,0-.9-2.47,1.15,1.15,0,0,0-.51-.24c-1.53-.37-3.15,1.75-4.28,1.16-.88-.46-2.39-2.76-3-3.76a.43.43,0,0,1,.27-.64h0a1.5,1.5,0,0,1,1.27.41c.85.78,1.6,2.18,2.56,2.15a2.79,2.79,0,0,0,1-.2.33.33,0,0,0,.14-.52,22.22,22.22,0,0,0-3.64-3.72.71.71,0,0,1-.17-1,5.69,5.69,0,0,1,.8-.82l0,0a.72.72,0,0,1,1.08.2c.73,1.25,2.38,3.86,3.89,4.61a6.47,6.47,0,0,1,3.61,3.59.49.49,0,0,0,.66.29.4.4,0,0,0,.16-.13c1-1.12.51-3.91-1.34-5.65a.55.55,0,0,1,.47-.94,5.55,5.55,0,0,1,1.71.53A4.6,4.6,0,0,1,1196.58,236.78Z"/><path class="cls-3" d="M1194.28,246.82c.15.61-.47,1.56-.7,1.88a.29.29,0,0,0,0,.24,1.5,1.5,0,0,1-.1,1.05.31.31,0,0,0,0,.33c.75.76.51,2,2,3.6l3.06,3.36-.16.47-4.51-5.18-1.08-1.23a1.92,1.92,0,0,0-1.7-.64h0l-.24,0a18.51,18.51,0,0,1-5.15.8,1.94,1.94,0,0,1-1.71-1.22,7.31,7.31,0,0,1-.27-.77c-.06-.2-.09-.36-.12-.5a.39.39,0,0,1,.37-.44.4.4,0,0,1,.29.12,3.93,3.93,0,0,0,2.09,1.23,32.94,32.94,0,0,0,3.56.21.36.36,0,0,0,.36-.4,2.44,2.44,0,0,0-.68-1.61.73.73,0,0,0-.35-.15c-1-.2-2,1.26-2.82.91a9.88,9.88,0,0,1-2.13-2.41.28.28,0,0,1,.15-.44s0,0,0,0a1,1,0,0,1,.86.23c.6.5,1.14,1.41,1.78,1.36a1.9,1.9,0,0,0,.64-.16.22.22,0,0,0,.07-.36,15,15,0,0,0-2.54-2.36.48.48,0,0,1-.15-.68,4.3,4.3,0,0,1,.51-.58l0,0a.48.48,0,0,1,.73.09c.52.82,1.7,2.51,2.73,3a4.33,4.33,0,0,1,2.53,2.28.32.32,0,0,0,.44.17.31.31,0,0,0,.11-.09c.6-.77.21-2.62-1.07-3.72a.37.37,0,0,1,.28-.65,3.78,3.78,0,0,1,1.16.31A3,3,0,0,1,1194.28,246.82Z"/><path class="cls-3" d="M337.33,222.14l-3.15-5.88.14-48.81s2.65-9.59,10.45-26.36c-1-1.7-2-3.64-3.06-5.72-.2-.41-.39-.82-.57-1.26-1.87-4-3.63-8.56-5.29-13.28-1.11-3.27-2.19-6.62-3.18-10-.5-1.64-1-3.29-1.42-4.91-.07-.24-.15-.46-.2-.67-2.17-7.8-3.85-15.11-4.87-20.36-4.84-5.29-6.29-14-6.29-14l-4.1-5.65L309.4,63.9c-5.78,10.35-32.86,26.67-32.86,26.67l1.6,4.16-1.6,1.62a93.72,93.72,0,0,1-4.55,19c-.3.9-.63,1.78-1,2.65-1,2.78-2.19,5.5-3.38,8.23-1.72,3.92-3.56,7.91-5.44,12.17l-1.74-1.14h-2.7l-8.59,12,1.6-14.15,11-57.44,10.71-26.5-.86-2.94-2.68-9.14-2-7-.4-1.32L259.46,7l-4-3.49L244.29,0s-14.4,4.13-20.5,12.85c-1.71,9.37-4.12,19.07-6.78,28.38-.5,1.82-1,3.61-1.58,5.39-.65,2.15-1.29,4.29-2,6.39-3.09,9.81-6.24,18.71-8.83,25.67-3.45,9.29-5.91,15.17-5.91,15.17l-.32,1L190,88.4V82.74l-8.5-4.59,2-21.34.5-5.43-3.4-6.31L130,66.84,113,69.9,104.25,76l-10.79.87-6,14-.34,5.37-.85,13.42-.41,6.72-.79,12.58,1,9.8-3.8,2.39-2.68,18.6-2.51,17.56-7.39,7.38a100.59,100.59,0,0,1-7.61,30.49l-4.58,3.3s-2.83,7.19-7.22,16.16c-.44.9-.9,1.82-1.37,2.76l-.31.62c-.52,1-1.06,2-1.62,3.1l-.27.52c-.59,1.09-1.18,2.18-1.8,3.27l-.18.33c-.67,1.18-1.35,2.35-2.05,3.51-.42.71-.85,1.41-1.28,2.11l-.18.28c-.38.6-.76,1.2-1.15,1.79-.09.13-.17.26-.25.39q-1.35,2-2.75,3.95l-.39.52q-.49.66-1,1.29l-.49.61c-.31.38-.62.76-.93,1.12l-.5.59c-.33.38-.66.74-1,1.09l-.45.48c-.47.49-.94,1-1.41,1.42H341.37l-2.86-23.4Z"/><path class="cls-3" d="M229,151.15c-.89,22.95,49.74,35.9,43.2,76s60.67,6.46,61.62,42.32S394.61,312.78,444,307.28s47.57-44.95,62.28-17.93,99.2,8.12,111.6-14.54,10.45,117.59,37.77-5.31c7.51-33.74-1.33,112.83,61.24,4.25,8.16-14.16,75.22,42.32,109.88,12.22s53.78-9.3,77.78,35.89,99.83-21.86,112.61-48.41c16.35-34,52.78,42.3,31.91-20.42-7.5-22.55,50.15,22.75,71.48,33.48s73.34-.51,72.89-22.51,64.45-37.3,74.22-66V413.62s-1128.49,14.53-1128.49,0V146.24Z"/><path class="cls-4" d="M332.07,199.1l-1.45.41-6.5,1.87-.25.21a13.15,13.15,0,0,1-2.86,1.83,17.51,17.51,0,0,1-2.17.87h0a32.32,32.32,0,0,1-10.65,1.31c-6.34-2.73-5.46-3.36-.21-1.6-1.62-2-4.34-3.35-2-3-.63-.94-3.36-2.16-5.41-3.16-1.5-.74-2.63-1.37-2.32-1.69s2-.65,4.39,0h0a25,25,0,0,1,7.41,3.51,39.56,39.56,0,0,0-6.23-4.17h0c-3.48-2.06-6.68-4-5.54-5.19,1.91-1.94,14.05,6.33,14.41,6.57-.14-.14-2.7-2.9-.22-1.66-1.22-2.37-10.88-9.62-7.76-8.84s11,8.47,11.61,9c-.63-.71-12.06-13.63-9.92-13.11a10.92,10.92,0,0,1,3.78,2.44l.28.26c-2.77-5.13-1.91-6.07,1-2.92-1.06-2.3-.52-2.89,1.34-.52-.22-1-3.09-6.06-1.75-6.11,5.33-.18,8.83,11,8.83,11s.12-5.23,1.15-1.51c.17-.69-.73-7.62.27-6.72s1.55,3.3,2.37,8.29c.44-1.17-.59-6.54,0-6.28.44.18,1.76,1.27,2.94,5.59h0a50,50,0,0,1,1.32,7.13c1.12-1.84,1.47.44,1.47.44s.91-7.67,1.6-6.92a4.11,4.11,0,0,1,.74,1.36C332.32,189.57,332.85,192.93,332.07,199.1Zm-4.19-16.21c-.54-.83.07,6.88.62,7.74S329.14,184.81,327.88,182.89Zm-24.31,19.18c2,.07-4.68-3.61-6.26-2.75C296.47,199.78,301.59,202,303.57,202.07Z"/><path class="cls-4" d="M498.63,353.58l-3.15-5.4.14-44.78s2.65-8.79,10.45-24.18c-1-1.57-2.05-3.35-3.06-5.25-.19-.38-.39-.76-.57-1.15a131.53,131.53,0,0,1-5.29-12.19c-1.11-3-2.19-6.08-3.18-9.14-.5-1.51-1-3-1.42-4.51-.07-.21-.14-.41-.2-.61-2.17-7.15-3.85-13.86-4.87-18.68-4.84-4.85-6.29-12.8-6.29-12.8l-4.1-5.18-6.38-1.31c-5.79,9.49-32.87,24.47-32.87,24.47l1.6,3.81-1.6,1.49a80,80,0,0,1-4.55,17.46c-.3.83-.63,1.64-1,2.43-1,2.55-2.19,5.05-3.38,7.55-1.72,3.6-3.56,7.26-5.44,11.17l-1.74-1h-2.69l-8.59,11,1.59-13L423,221l10.71-24.32-.86-2.69-2.68-8.38-2.05-6.4-.39-1.21-7-21.86-4-3.2-11.18-3.2s-14.4,3.8-20.5,11.8a256.3,256.3,0,0,1-6.78,26c-.5,1.67-1,3.31-1.58,4.94-.64,2-1.29,3.94-2,5.86-3.09,9-6.24,17.17-8.82,23.56-3.46,8.52-5.92,13.91-5.92,13.91l-.32.88-8.46-5.87v-5.19l-8.5-4.22,2-19.58.5-5-3.4-5.79-50.53,20-17,2.8-8.79,5.59-10.78.79-6,12.8-.34,4.93-.85,12.32-.41,6.16L246.37,268l1,9-3.8,2.2-2.68,17.06-2.51,16.11L231,319.17a86,86,0,0,1-7.61,28l-4.58,3S216,356.76,211.6,365c-.45.83-.9,1.67-1.38,2.53l-.31.57c-.52.94-1.06,1.89-1.61,2.84-.1.16-.19.32-.28.48-.59,1-1.18,2-1.8,3l-.18.3c-.67,1.08-1.35,2.15-2,3.22-.42.65-.85,1.29-1.28,1.93l-.18.25c-.38.56-.76,1.11-1.15,1.65l-.25.36q-1.35,1.88-2.75,3.62l-.39.48c-.33.4-.66.8-1,1.18l-.49.56c-.31.35-.62.7-.93,1s-.33.37-.5.54c-.33.35-.65.68-1,1l-.44.44c-.48.45-.95.89-1.42,1.3H502.67l-2.86-21.46Z"/><path class="cls-4" d="M593.51,356.37,592.14,354l.07-19.51A72,72,0,0,1,596.76,324c-.45-.68-.9-1.46-1.34-2.29-.08-.16-.17-.32-.25-.5a56.4,56.4,0,0,1-2.3-5.31c-.48-1.3-1-2.64-1.38-4-.22-.66-.43-1.32-.62-2l-.09-.26c-.95-3.12-1.67-6-2.12-8.14a12,12,0,0,1-2.74-5.57l-1.79-2.26-2.78-.57c-2.52,4.13-14.31,10.66-14.31,10.66l.7,1.66-.7.65a34.93,34.93,0,0,1-2,7.6c-.13.36-.27.71-.42,1.06-.46,1.11-1,2.2-1.47,3.28-.75,1.57-1.55,3.17-2.37,4.87l-.76-.46h-1.17l-3.75,4.79.7-5.66,4.77-23,4.67-10.59-.38-1.17-1.17-3.65-.89-2.79-.17-.52-3-9.53L557.87,269,553,267.62s-6.28,1.65-8.93,5.13a110.61,110.61,0,0,1-3,11.34c-.22.73-.46,1.44-.69,2.15s-.57,1.72-.85,2.56c-1.35,3.92-2.72,7.47-3.85,10.25-1.5,3.71-2.58,6.06-2.58,6.06l-.13.39-3.69-2.56v-2.26l-3.7-1.84.87-8.52.22-2.17-1.48-2.52-22,8.69-7.39,1.23L492,298l-4.7.35-2.61,5.57-.15,2.15-.37,5.36-.18,2.68-.35,5,.44,3.92-1.65.95-1.17,7.43-1.09,7L477,341.39a37.5,37.5,0,0,1-3.31,12.18l-2,1.32s-1.23,2.87-3.14,6.46c-.19.36-.39.72-.6,1.1,0,.08-.09.16-.13.25l-.71,1.23-.12.21c-.25.44-.51.87-.78,1.31l-.08.13c-.29.47-.59.94-.89,1.4-.18.29-.37.57-.56.85l-.08.11-.5.72-.11.15c-.39.54-.79,1.07-1.19,1.58l-.18.2c-.14.18-.28.35-.43.52l-.21.25-.4.44-.22.24-.43.43-.19.19c-.21.2-.41.39-.62.57h135.2L594,363.88Z"/><path class="cls-4" d="M422.33,164.62c-.24-1.24-1.56-2.71-2.37-4a4.88,4.88,0,0,1-.52-1c0-.1-.07-.21-.1-.31a4.14,4.14,0,0,0-.35-1l0-.06a3,3,0,0,0,1.72-1.07.42.42,0,0,1,0-.1c.35-1.16-.7-1.14.59-1.49a9,9,0,0,0,1.33-.45c1.82-.75,3.08-1.94,2.79-3.22a2.19,2.19,0,0,0-.39-.8l-.29-.36a7.9,7.9,0,0,0-1.69-1.3h0c-.25-.2-.21-.36.35-.75a6.41,6.41,0,0,1,.88-.5c1-.46,2-.74,2.16-1.51a1.7,1.7,0,0,0,0-.4l-.06-.29a2.21,2.21,0,0,0-.89-1.26h0c-.5-.36-1-.51-.81-.76s.42-.2.87-.29h0A6.79,6.79,0,0,0,428,143a1.81,1.81,0,0,0,.45-.42,1.37,1.37,0,0,0,.25-.7c0-.12,0-.24,0-.35a1.84,1.84,0,0,0-.3-.85c-.95-1.39-3.76-1.51-3.65-2.5,0-.43.81-.82,1.74-1.3,1.73-.88,4.06-2,3.53-4.14,0,1.62-1,2.17-3.47,3l-.45.16-.95.32a5.56,5.56,0,0,0-2.16,1.16,1.23,1.23,0,0,0-.26,1.33,1.77,1.77,0,0,0,1,1,4,4,0,0,1,1.52,1h0a.88.88,0,0,1,.18.39,1.49,1.49,0,0,1,0,.77,1.58,1.58,0,0,1-.57.8,6.42,6.42,0,0,1-1.65.73c-.28.12-.5.24-.57.42a.5.5,0,0,0,.05.45,3.28,3.28,0,0,0,.42.63c.4.48.75.72.44,1.4a4.1,4.1,0,0,1-.35.6,3.79,3.79,0,0,1-1,.95,14.16,14.16,0,0,0-1.46.9.74.74,0,0,0-.27.77c.09.38.47.6.92.8h0a3.9,3.9,0,0,1,1.6,1,1.33,1.33,0,0,1,.2,1.08c-.21,1.12-1.81,1.38-3.23,1.69h0c-1.11.25-2.1.52-2.21,1.27a2.89,2.89,0,0,1-.3.94,3.78,3.78,0,0,1-.32.49,14,14,0,0,0-1.71-.7l-.3-.1a2,2,0,0,0-.06-.42c-.11-.37-.22-.68-.31-.95-.21-.71-.23-1.19.66-2,.14-.12.29-.24.47-.37a20.09,20.09,0,0,0,3.41-2.64,4,4,0,0,0,.56-.81,3.35,3.35,0,0,0,.34-1l0-.29a1.87,1.87,0,0,0-.05-.55c-.4-1.55-3.09-.79-2.4-2,.44-.75,1.37-.88,2.07-1.27a1.76,1.76,0,0,0,.63-.55,1.83,1.83,0,0,0,.28-1.06,1.86,1.86,0,0,0,0-.42,1.62,1.62,0,0,0-.21-.51c-.77-1.3-3-1.59-1.84-2.51.37-.3.94-.54,1.39-.9a1.51,1.51,0,0,0,.66-1.42,1.88,1.88,0,0,0-.06-.31c-.33-1.29-4.3-.82-2-1.86.48-.21,1-.44,1.53-.7a8.47,8.47,0,0,0,1.58-1,3.61,3.61,0,0,0,1-1.25c.52-1.12.36-2.63-1.17-4.77,1,1.75-.92,3.5-3.08,4.41a6.29,6.29,0,0,1-.79.29h0l-.42.12a5.27,5.27,0,0,0-2.72,1.54,1.39,1.39,0,0,0,.22,2.11l.44.34a4.89,4.89,0,0,1,1,.9.88.88,0,0,1,.22.56,1.06,1.06,0,0,1-.34.7l-.06.05c-.7.68-1.41,1.13-.69,1.84h0l0,0a6.34,6.34,0,0,1,1.21,1.39,2.21,2.21,0,0,1,.27.71,1.42,1.42,0,0,1-.2,1,1.25,1.25,0,0,1-.34.35c-1.22.88-4.5,1.15-4.65,2.24-.06.45.46.69,1.15.93a8.23,8.23,0,0,1,2,.85,1.84,1.84,0,0,1,.89,1.47,1.72,1.72,0,0,1-.29,1.06,10.28,10.28,0,0,1-2.9,2.34h0c-.78.55-1.32,1.08-1,1.69.21.44.4.83.54,1.2a4,4,0,0,1,.27,1.06,6.15,6.15,0,0,0-1.55.3,7.54,7.54,0,0,0-.74.29l-.37.19a4.87,4.87,0,0,0-.82-1.26,3.58,3.58,0,0,0-1.23-.89,6.73,6.73,0,0,0-1.22-.41,4.08,4.08,0,0,1,1.2-2,6,6,0,0,1,2.16-1.14,1.85,1.85,0,0,0,1.19-.93,1.54,1.54,0,0,0,0-1.19,2.65,2.65,0,0,0-.45-.78,2.91,2.91,0,0,0-.31-.3c-.88-.73-1.77-1.31-1.56-2.28a1,1,0,0,1,.06-.22A7.36,7.36,0,0,1,410,143c.72-.82,1.41-1.65,1.29-2.21a1.19,1.19,0,0,0-1.18-1,.85.85,0,0,1,.64,1.11,3.55,3.55,0,0,1-1.35,1.71l-.31.25h0a6.25,6.25,0,0,0-2.12,2.69,1.41,1.41,0,0,0,.15,1.24,3.13,3.13,0,0,1,.51,1.09,1.9,1.9,0,0,1,.06.54,2.6,2.6,0,0,1-.67,1.69,6.19,6.19,0,0,1-1.19,1.1,9.92,9.92,0,0,0-1.35,1.15h0a2.71,2.71,0,0,0-.78,1.16,7.76,7.76,0,0,0-.82.13c-.28.06-.56.14-.83.22l-.6.2c-.28.11-.55.22-.81.35a1.43,1.43,0,0,0-.74,2.27c.92,1.32,5.75,3,7.79,4.28,1.82,1.13,3,2.28,3.92,1.55.7.29,1.32.53,1.72.74,1.82.93.92,1.22,3.06,2.31l.12.06c2.11,1.06,4.71,1.75,5.69,0A1.55,1.55,0,0,0,422.33,164.62Z"/><path class="cls-4" d="M453,202.11c0-3,.83-3.35,1.69.08.24-1.15-.4-8,1.06-7.39,5.81,2.37,4.17,16.08,4.17,16.08s2.64-5.55,2-1.07c.52-.65,2.88-8.52,3.52-7.08s.08,4.29-1.44,10c1-1,2.52-7.31,3.05-6.73.37.41,1.27,2.21.46,7.41h0a57.36,57.36,0,0,1-2,8.27c2.1-1.43,1.37,1.18,1.37,1.18s4.67-7.79,5.05-6.65a4.82,4.82,0,0,1,.13,1.82c-.15,2.13-1.2,6-5,12.24l-10.27-1.48a23.12,23.12,0,0,1-1.89-3.94,65.52,65.52,0,0,1-3.51-13.79C449.38,198.57,451,196.16,453,202.11Zm17.3,8.8c-.19-1.15-3.24,7.41-3.06,8.59S470.72,213.57,470.29,210.91Z"/><path class="cls-4" d="M430.32,163.59l-.06.14a1.85,1.85,0,0,1-2.37,1c-.83-.32-1.54-.77-2.13-.58a9.1,9.1,0,0,0-2.48,1.86l-.42-.17,1.14-1.35.56-.66a.25.25,0,0,0-.05-.37c-.33-.22-.82-.8-.3-2.06.64-1.57.73-2.64,1.7-3.36l0,0a.42.42,0,0,1,.64.21,2.09,2.09,0,0,1,0,1.19,6.53,6.53,0,0,0-1.29,2.12h0a1.4,1.4,0,0,0,0,.86c.69.21,1.91-1.8,2.5-2.86a2.77,2.77,0,0,0,.35-1.22,4.27,4.27,0,0,1,.32-1.73,1.57,1.57,0,0,1,.48-.42,8.29,8.29,0,0,1,1.27-.57.36.36,0,0,1,.48.36.27.27,0,0,1,0,.12.31.31,0,0,1-.12.16c-.39.27-1.43,1.05-1.39,1.75a1.57,1.57,0,0,0,.92-.31s0,.35,0,.35a7,7,0,0,1-1.56,2.39c-.18.14-.32.28-.45.4a4,4,0,0,0-.38.45.37.37,0,0,0,.21.57,1.52,1.52,0,0,0,1.47-.3,16.6,16.6,0,0,0,1.36-2.11.54.54,0,0,1,.66-.26h0a.54.54,0,0,1,.32.67C431.46,160.63,430.88,162.28,430.32,163.59Z"/><path class="cls-4" d="M477.55,203.9c-.29.63-1.47,1-1.89,1.13a.32.32,0,0,0-.2.18,1.67,1.67,0,0,1-.8.84.3.3,0,0,0-.18.31c.11,1.17-.92,2-.76,4.45l.33,5-.46.3-.33-7.54-.08-1.8a2.11,2.11,0,0,0-1-1.71h0a1.34,1.34,0,0,0-.24-.12,20.61,20.61,0,0,1-5-2.84,2.14,2.14,0,0,1-.64-2.22,7.35,7.35,0,0,1,.3-.85,4.19,4.19,0,0,1,.24-.51.42.42,0,0,1,.78.18,4.34,4.34,0,0,0,1,2.49,38.57,38.57,0,0,0,2.91,2.61.39.39,0,0,0,.58-.09,2.65,2.65,0,0,0,.52-1.86.9.9,0,0,0-.19-.36c-.76-.88-2.63-.32-3-1.15a10.77,10.77,0,0,1-.18-3.54.31.31,0,0,1,.43-.26h0a1.09,1.09,0,0,1,.58.79c.17.83,0,2,.6,2.38a2,2,0,0,0,.67.3.24.24,0,0,0,.3-.25,15.84,15.84,0,0,0-.57-3.77.52.52,0,0,1,.34-.69,3.84,3.84,0,0,1,.83-.15h.05a.52.52,0,0,1,.55.58c-.1,1.06-.25,3.32.33,4.41a4.76,4.76,0,0,1,.61,3.69.35.35,0,0,0,.26.45h.16c1.05-.25,2-2.11,1.63-3.94a.4.4,0,0,1,.68-.36,4.29,4.29,0,0,1,.79,1.06A3.36,3.36,0,0,1,477.55,203.9Z"/><path class="cls-4" d="M388.91,153.33c-.47,1.15-2.54,1.94-3.28,2.19a.58.58,0,0,0-.34.33,3,3,0,0,1-1.37,1.57.57.57,0,0,0-.3.57c.31,2.08-1.46,3.73-1,8,.52,4.56,1,8.86,1,8.86l-.79.58L381.63,162l-.29-3.19a3.71,3.71,0,0,0-2-3h0a3.36,3.36,0,0,0-.43-.2c-2.55-1-6.7-2.7-9.11-4.65a3.85,3.85,0,0,1-1.33-3.91c.16-.62.31-1.13.46-1.54a9.77,9.77,0,0,1,.38-.92.75.75,0,0,1,1.42.24,7.69,7.69,0,0,0,1.93,4.36,63.45,63.45,0,0,0,5.41,4.43.7.7,0,0,0,1-.22c.47-.83,1.14-2.28.78-3.36a1.62,1.62,0,0,0-.37-.63c-1.43-1.5-4.72-.34-5.54-1.8-.63-1.14-.65-4.74-.62-6.29a.56.56,0,0,1,.75-.52h0a2,2,0,0,1,1.11,1.36c.37,1.48.19,3.54,1.27,4.2a3.6,3.6,0,0,0,1.2.48.44.44,0,0,0,.53-.48,29.21,29.21,0,0,0-1.33-6.68.94.94,0,0,1,.55-1.26,7.29,7.29,0,0,1,1.47-.33H379a.94.94,0,0,1,1,1c-.1,1.9-.17,5.95,1,7.85,1.32,2.23,1.95,4.52,1.39,6.53a.64.64,0,0,0,.51.79.5.5,0,0,0,.27,0c1.85-.54,3.36-3.93,2.58-7.16a.73.73,0,0,1,1.19-.7,7.38,7.38,0,0,1,1.5,1.82A6,6,0,0,1,388.91,153.33Z"/><path class="cls-1" d="M625.32,239.83c-.69-.88-2.31-1.5-3.46-2.17a4.31,4.31,0,0,1-.8-.56,1.89,1.89,0,0,1-.2-.2,3.73,3.73,0,0,0-.68-.65l0,0a2.65,2.65,0,0,0,.92-1.53s0-.07,0-.1c-.19-1.05-1-.61-.13-1.41a10.15,10.15,0,0,0,.86-.88c1.13-1.33,1.65-2.77.9-3.66a1.86,1.86,0,0,0-.63-.47,3.76,3.76,0,0,0-.37-.16,6.55,6.55,0,0,0-1.85-.35h0c-.27-.06-.3-.2,0-.73a5.37,5.37,0,0,1,.49-.75c.59-.75,1.27-1.38,1.09-2a1.45,1.45,0,0,0-.31-.53,1.92,1.92,0,0,0-1.2-.63h0c-.53-.09-1,0-.94-.27s.25-.33.57-.58h0a6.08,6.08,0,0,0,1.57-1.55,1.49,1.49,0,0,0,.18-.51,1.27,1.27,0,0,0-.08-.66,2.29,2.29,0,0,0-.14-.27,1.47,1.47,0,0,0-.57-.54c-1.31-.72-3.56.32-3.87-.51-.14-.35.3-1,.85-1.72,1-1.39,2.37-3.22,1.11-4.67.68,1.25.05,2.12-1.53,3.73l-.3.31c-.23.22-.43.44-.62.63a5,5,0,0,0-1.23,1.78,1.14,1.14,0,0,0,.33,1.16,1.65,1.65,0,0,0,1.21.33,3.69,3.69,0,0,1,1.58.13h0a.86.86,0,0,1,.3.24,1.27,1.27,0,0,1,.27.62,1.46,1.46,0,0,1-.13.86,5.48,5.48,0,0,1-1,1.24.85.85,0,0,0-.29.55.49.49,0,0,0,.22.34,3.27,3.27,0,0,0,.59.33c.51.21.88.26.91.92a2.77,2.77,0,0,1,0,.61,3.14,3.14,0,0,1-.42,1.16,11.71,11.71,0,0,0-.78,1.3.62.62,0,0,0,.09.7,1.23,1.23,0,0,0,1,.27h0a3.33,3.33,0,0,1,1.64.11,1.16,1.16,0,0,1,.59.77c.29,1-.87,1.81-1.86,2.62h0c-.78.65-1.44,1.26-1.22,1.89a2.71,2.71,0,0,1,.14.86,4.35,4.35,0,0,1-.06.52,13.09,13.09,0,0,0-1.63.13l-.27,0a1.29,1.29,0,0,0-.22-.3c-.23-.25-.45-.45-.62-.63-.46-.47-.66-.84-.27-1.8.06-.15.13-.31.22-.49a17.6,17.6,0,0,0,1.62-3.44,4.14,4.14,0,0,0,.12-.86,2.83,2.83,0,0,0-.16-.95,1.17,1.17,0,0,0-.09-.24,1.43,1.43,0,0,0-.26-.42c-.94-1.06-2.75.62-2.67-.58,0-.77.72-1.24,1.11-1.83a1.56,1.56,0,0,0,.28-.68,1.67,1.67,0,0,0-.21-1,2.23,2.23,0,0,0-.2-.3,1.85,1.85,0,0,0-.37-.32c-1.14-.71-3,0-2.46-1.24.17-.38.52-.8.73-1.26a1.32,1.32,0,0,0,0-1.38,1.18,1.18,0,0,0-.17-.22c-.78-.89-3.71,1.08-2.32-.66.29-.36.62-.75.92-1.17a7.12,7.12,0,0,0,.85-1.42,3.24,3.24,0,0,0,.29-1.39c0-1.09-.77-2.21-2.83-3.28,1.5,1,.68,3.12-.65,4.71-.16.19-.33.37-.5.54h0l-.28.27a4.53,4.53,0,0,0-1.51,2.3,1.21,1.21,0,0,0,1,1.57l.48.09a4.63,4.63,0,0,1,1.18.29.83.83,0,0,1,.4.36.94.94,0,0,1,0,.69.14.14,0,0,0,0,.06c-.29.82-.67,1.46.19,1.72h0l0,0a5.54,5.54,0,0,1,1.5.6,2,2,0,0,1,.5.45,1.27,1.27,0,0,1,.24.86,1.21,1.21,0,0,1-.13.41c-.61,1.18-3.08,2.71-2.76,3.62.14.39.64.36,1.28.27a7.55,7.55,0,0,1,1.91-.13,1.66,1.66,0,0,1,1.12.56,1.46,1.46,0,0,1,.17.24,1.67,1.67,0,0,1,.2,1,9.54,9.54,0,0,1-1.34,3h0c-.4.75-.61,1.39-.14,1.75s.64.5.91.73a3.46,3.46,0,0,1,.63.72,6,6,0,0,0-1.1.86,6,6,0,0,0-.46.53,3.15,3.15,0,0,0-.22.29,4.78,4.78,0,0,0-1.14-.66,3.35,3.35,0,0,0-1.33-.21,5.82,5.82,0,0,0-1.12.17,3.64,3.64,0,0,1,.11-2.09,5.41,5.41,0,0,1,1.25-1.76,1.67,1.67,0,0,0,.56-1.21,1.39,1.39,0,0,0-.48-.94,2.14,2.14,0,0,0-.67-.43,2.47,2.47,0,0,0-.36-.11c-1-.22-1.92-.32-2.14-1.17a1.06,1.06,0,0,1,0-.19,6.47,6.47,0,0,1,.33-1.95c.23-.94.45-1.87.13-2.26a1,1,0,0,0-1.32-.27.74.74,0,0,1,1,.61,3.14,3.14,0,0,1-.37,1.89l-.15.32h0a5.43,5.43,0,0,0-.59,3,1.25,1.25,0,0,0,.61.91,2.79,2.79,0,0,1,.85.65,1.84,1.84,0,0,1,.26.4,2.35,2.35,0,0,1,.15,1.6A5.76,5.76,0,0,1,607,236a9.59,9.59,0,0,0-.61,1.44h0a2.38,2.38,0,0,0-.14,1.22,6.46,6.46,0,0,0-.59.44c-.2.16-.39.33-.57.5a5,5,0,0,0-.39.41c-.18.19-.34.39-.5.59a1.27,1.27,0,0,0,.33,2.09c1.25.66,5.73.05,7.85.23,1.88.16,3.3.57,3.7-.35.67-.06,1.25-.11,1.65-.11,1.81,0,1.22.59,3.34.59h.11c2.09,0,4.41-.52,4.48-2.28A1.37,1.37,0,0,0,625.32,239.83Z"/><path class="cls-1" d="M647.88,237c-.88-1.13-3-1.92-4.44-2.78a6.84,6.84,0,0,1-1-.72,2,2,0,0,1-.25-.26,4.6,4.6,0,0,0-.88-.84l-.06,0a3.38,3.38,0,0,0,1.18-2s0-.08,0-.12c-.24-1.35-1.29-.79-.17-1.81a10.72,10.72,0,0,0,1.11-1.13c1.45-1.7,2.11-3.56,1.16-4.7a2.5,2.5,0,0,0-.81-.61l-.48-.2a8.82,8.82,0,0,0-2.38-.45h0c-.35-.07-.39-.25,0-.94a6,6,0,0,1,.63-.95c.75-1,1.63-1.78,1.39-2.65a1.27,1.27,0,0,0-.18-.4,3.17,3.17,0,0,0-.21-.27,2.46,2.46,0,0,0-1.55-.81h0c-.69-.12-1.24,0-1.21-.35,0-.17.32-.42.73-.74h0a7.91,7.91,0,0,0,2-2,2,2,0,0,0,.24-.66,1.55,1.55,0,0,0-.1-.84,1.64,1.64,0,0,0-.18-.35,2,2,0,0,0-.74-.7c-1.67-.92-4.57.41-5-.65-.17-.46.39-1.25,1.09-2.21,1.29-1.78,3-4.14,1.43-6,.88,1.61.07,2.73-2,4.8-.13.13-.26.25-.39.39l-.79.81a6.36,6.36,0,0,0-1.58,2.29,1.42,1.42,0,0,0,.42,1.48,2.08,2.08,0,0,0,1.55.43,4.77,4.77,0,0,1,2,.17h0a1.14,1.14,0,0,1,.39.3,1.64,1.64,0,0,1,.34.8,1.77,1.77,0,0,1-.16,1.1,7.23,7.23,0,0,1-1.29,1.6,1.08,1.08,0,0,0-.36.71.58.58,0,0,0,.28.43,3.39,3.39,0,0,0,.75.42c.65.28,1.13.34,1.17,1.19a4.7,4.7,0,0,1-.05.78A4.25,4.25,0,0,1,639,220a15.36,15.36,0,0,0-1,1.66.84.84,0,0,0,.12.91,1.6,1.6,0,0,0,1.35.34h0a4.49,4.49,0,0,1,2.11.14,1.54,1.54,0,0,1,.76,1c.37,1.24-1.12,2.33-2.39,3.37h0c-1,.83-1.85,1.62-1.57,2.43a3.11,3.11,0,0,1,.17,1.1,3.51,3.51,0,0,1-.07.66,19.64,19.64,0,0,0-2.09.17l-.35.06a2.63,2.63,0,0,0-.28-.4c-.3-.32-.57-.57-.8-.8-.58-.6-.84-1.08-.34-2.32.07-.18.17-.39.28-.62a22.9,22.9,0,0,0,2.08-4.41,4.24,4.24,0,0,0,.15-1.11,3.52,3.52,0,0,0-.2-1.23c0-.1-.07-.2-.11-.3a1.79,1.79,0,0,0-.34-.53c-1.2-1.36-3.53.79-3.43-.76.06-1,.92-1.59,1.43-2.34a1.92,1.92,0,0,0,.35-.88,2,2,0,0,0-.26-1.22,2.33,2.33,0,0,0-.27-.4,1.75,1.75,0,0,0-.46-.4c-1.46-.92-3.87-.06-3.17-1.6.22-.48.67-1,.94-1.61a1.73,1.73,0,0,0-.06-1.78,1.85,1.85,0,0,0-.22-.29c-1-1.13-4.77,1.4-3-.84.37-.46.79-1,1.18-1.5a9.69,9.69,0,0,0,1.08-1.82,4.18,4.18,0,0,0,.38-1.79c0-1.4-1-2.84-3.64-4.21,1.92,1.24.88,4-.84,6a8.57,8.57,0,0,1-.64.7h0l-.36.34a5.89,5.89,0,0,0-2,3,1.56,1.56,0,0,0,1.31,2,6,6,0,0,0,.61.12,6.05,6.05,0,0,1,1.51.38,1,1,0,0,1,.51.45,1.16,1.16,0,0,1,0,.89.24.24,0,0,1,0,.08c-.37,1.05-.85,1.87.25,2.21h0l0,0a7.24,7.24,0,0,1,1.93.78,2.19,2.19,0,0,1,.63.58,1.52,1.52,0,0,1,.31,1.09,1.26,1.26,0,0,1-.17.53c-.77,1.51-3.94,3.48-3.53,4.66.17.49.82.46,1.64.34a9.94,9.94,0,0,1,2.45-.17,2.15,2.15,0,0,1,1.43.72,1.86,1.86,0,0,1,.23.32A2,2,0,0,1,633,225c-.11,1.25-1.09,2.67-1.72,3.86h0c-.51,1-.78,1.77-.18,2.24.44.33.83.64,1.17.94a4.32,4.32,0,0,1,.81.93,7.26,7.26,0,0,0-1.41,1.1,8.07,8.07,0,0,0-.6.68l-.27.37a5.78,5.78,0,0,0-1.47-.84,4.13,4.13,0,0,0-1.71-.27,7,7,0,0,0-1.44.22,4.71,4.71,0,0,1,.15-2.69,6.73,6.73,0,0,1,1.6-2.26,2.11,2.11,0,0,0,.72-1.56,1.84,1.84,0,0,0-.61-1.2,2.8,2.8,0,0,0-.86-.55,3.68,3.68,0,0,0-.47-.15c-1.27-.28-2.46-.41-2.75-1.49a2,2,0,0,1,0-.26,8.39,8.39,0,0,1,.42-2.5c.31-1.2.58-2.39.18-2.89a1.36,1.36,0,0,0-1.7-.36,1,1,0,0,1,1.22.79,4,4,0,0,1-.48,2.42c-.07.14-.13.27-.19.41h0a7,7,0,0,0-.76,3.81,1.58,1.58,0,0,0,.79,1.17,3.5,3.5,0,0,1,1.08.85,2.27,2.27,0,0,1,.34.51,3,3,0,0,1,.2,2.05,7.17,7.17,0,0,1-.64,1.73,11.2,11.2,0,0,0-.77,1.85h0a3.16,3.16,0,0,0-.18,1.56c-.26.18-.52.37-.76.57s-.5.42-.73.64-.34.34-.5.52a9.33,9.33,0,0,0-.64.77,1.61,1.61,0,0,0,.42,2.67c1.61.86,7.36.07,10.08.31,2.42.2,4.23.73,4.76-.46.85-.07,1.6-.14,2.11-.14,2.32,0,1.57.76,4.29.76h.14c2.69,0,5.67-.66,5.76-2.91A1.77,1.77,0,0,0,647.88,237Z"/><path class="cls-1" d="M478.29,180.77c-.88-1.12-3-1.92-4.45-2.78a6.07,6.07,0,0,1-1-.72,2,2,0,0,1-.25-.26,5.27,5.27,0,0,0-.88-.84l-.07,0a3.33,3.33,0,0,0,1.19-2s0-.09,0-.12c-.24-1.35-1.29-.8-.16-1.82a13.11,13.11,0,0,0,1.11-1.13c1.44-1.7,2.11-3.56,1.16-4.69a2.29,2.29,0,0,0-.82-.61l-.47-.21a8.82,8.82,0,0,0-2.38-.45h0c-.35-.07-.39-.25,0-.94a6.08,6.08,0,0,1,.64-.95c.75-1,1.62-1.78,1.39-2.65a1.12,1.12,0,0,0-.19-.4,1.89,1.89,0,0,0-.2-.27,2.48,2.48,0,0,0-1.55-.81h0c-.69-.11-1.24,0-1.21-.35,0-.17.32-.42.73-.74h0a7.64,7.64,0,0,0,2-2,2,2,0,0,0,.24-.66,1.55,1.55,0,0,0-.1-.84c-.06-.13-.12-.24-.18-.35a2,2,0,0,0-.74-.7c-1.67-.92-4.57.41-5-.65-.17-.45.39-1.25,1.09-2.21,1.29-1.78,3.05-4.14,1.42-6,.88,1.6.08,2.72-2,4.79l-.38.39c-.29.29-.55.56-.79.82a6.32,6.32,0,0,0-1.59,2.28,1.45,1.45,0,0,0,.43,1.48,2,2,0,0,0,1.55.43,4.73,4.73,0,0,1,2,.17h0a1.14,1.14,0,0,1,.39.3,1.64,1.64,0,0,1,.34.81,1.82,1.82,0,0,1-.16,1.09,7.23,7.23,0,0,1-1.29,1.6,1.05,1.05,0,0,0-.36.71.55.55,0,0,0,.28.43,3.39,3.39,0,0,0,.75.42c.65.28,1.12.34,1.17,1.19a4.7,4.7,0,0,1-.05.78,4.07,4.07,0,0,1-.54,1.49,15.12,15.12,0,0,0-1,1.66.84.84,0,0,0,.12.91,1.58,1.58,0,0,0,1.34.34h0a4.49,4.49,0,0,1,2.11.14,1.54,1.54,0,0,1,.76,1c.37,1.23-1.12,2.32-2.39,3.36h0c-1,.82-1.86,1.61-1.58,2.42a3.33,3.33,0,0,1,.11,1.76,19.64,19.64,0,0,0-2.09.17l-.35.06a2.14,2.14,0,0,0-.28-.39c-.3-.32-.58-.57-.8-.81a1.76,1.76,0,0,1-.35-2.31c.08-.19.18-.4.29-.63a22.63,22.63,0,0,0,2.08-4.41,5.29,5.29,0,0,0,.15-1.11,3.67,3.67,0,0,0-.2-1.22,2.83,2.83,0,0,0-.11-.31,1.94,1.94,0,0,0-.34-.53c-1.21-1.36-3.53.79-3.43-.76.06-1,.92-1.59,1.43-2.34a2,2,0,0,0,.35-.88,2,2,0,0,0-.27-1.22,1.84,1.84,0,0,0-.26-.4,2.22,2.22,0,0,0-.47-.4c-1.46-.92-3.86,0-3.16-1.59.22-.49.67-1,.94-1.62a1.83,1.83,0,0,0-.28-2.06c-1-1.14-4.77,1.39-3-.85.37-.46.79-1,1.18-1.5a9.75,9.75,0,0,0,1.09-1.82,4.17,4.17,0,0,0,.37-1.79c0-1.39-1-2.84-3.63-4.21,1.92,1.24.87,4-.84,6.05-.21.24-.42.47-.64.69h0l-.36.34a5.89,5.89,0,0,0-1.95,3,1.57,1.57,0,0,0,1.3,2l.62.12a5.66,5.66,0,0,1,1.51.37,1,1,0,0,1,.51.46,1.14,1.14,0,0,1,0,.88.24.24,0,0,0,0,.08c-.37,1.06-.85,1.88.24,2.22h.05a7.51,7.51,0,0,1,1.94.78,2.33,2.33,0,0,1,.63.58,1.59,1.59,0,0,1,.31,1.09,1.26,1.26,0,0,1-.17.53c-.77,1.51-3.95,3.48-3.53,4.66.17.49.82.46,1.63.35a9.51,9.51,0,0,1,2.45-.18,2.17,2.17,0,0,1,1.44.73,1.44,1.44,0,0,1,.22.31,2,2,0,0,1,.26,1.21c-.11,1.25-1.09,2.67-1.72,3.87h0c-.51,1-.78,1.78-.18,2.24.44.34.83.64,1.16.94a4.12,4.12,0,0,1,.82.93,7.26,7.26,0,0,0-1.41,1.1,6.62,6.62,0,0,0-.6.68l-.27.37a6.16,6.16,0,0,0-1.48-.84,4.22,4.22,0,0,0-1.7-.27,7.46,7.46,0,0,0-1.44.22,4.51,4.51,0,0,1,.15-2.68,6.63,6.63,0,0,1,1.59-2.27,2,2,0,0,0,.72-1.56,1.76,1.76,0,0,0-.61-1.2,2.75,2.75,0,0,0-.86-.55,3.53,3.53,0,0,0-.46-.15c-1.27-.28-2.46-.41-2.75-1.49a1,1,0,0,1-.05-.25,8.4,8.4,0,0,1,.42-2.51c.3-1.2.58-2.39.17-2.89a1.35,1.35,0,0,0-1.69-.36,1,1,0,0,1,1.22.79,4.08,4.08,0,0,1-.48,2.42c-.07.14-.13.27-.19.41h0a7.05,7.05,0,0,0-.76,3.82,1.61,1.61,0,0,0,.79,1.17,3.9,3.9,0,0,1,1.08.84,2.27,2.27,0,0,1,.34.51,3,3,0,0,1,.19,2.05,7.09,7.09,0,0,1-.63,1.73,11.77,11.77,0,0,0-.78,1.85h0a2.92,2.92,0,0,0-.18,1.56,8.85,8.85,0,0,0-.76.57,7.53,7.53,0,0,0-.73.65c-.18.16-.34.34-.5.51s-.44.5-.65.77a1.63,1.63,0,0,0,.43,2.68c1.61.85,7.36.07,10.08.3,2.42.2,4.23.73,4.76-.46.85-.07,1.6-.14,2.11-.14,2.32,0,1.56.76,4.29.76H473c2.69,0,5.67-.65,5.76-2.91A1.82,1.82,0,0,0,478.29,180.77Z"/><path class="cls-4" d="M523.2,277.66c-.42.92-2.13,1.48-2.74,1.65a.44.44,0,0,0-.29.26,2.38,2.38,0,0,1-1.17,1.21.47.47,0,0,0-.26.45c.17,1.7-1.33,3-1.1,6.47.25,3.71.48,7.22.48,7.22l-.67.43L517,284.42l-.11-2.6a3,3,0,0,0-1.5-2.48h0a2.21,2.21,0,0,0-.34-.18,30,30,0,0,1-7.21-4.11,3.13,3.13,0,0,1-.93-3.22c.15-.5.3-.9.43-1.23s.25-.55.35-.74a.61.61,0,0,1,.89-.19.66.66,0,0,1,.25.44,6.18,6.18,0,0,0,1.39,3.61,53.74,53.74,0,0,0,4.22,3.8.57.57,0,0,0,.84-.15,3.84,3.84,0,0,0,.76-2.69,1.39,1.39,0,0,0-.28-.52c-1.1-1.27-3.81-.46-4.42-1.67-.47-.95-.35-3.87-.27-5.12a.45.45,0,0,1,.63-.39h0a1.59,1.59,0,0,1,.84,1.14c.25,1.21,0,2.88.87,3.45a3.32,3.32,0,0,0,1,.44.36.36,0,0,0,.45-.37,23.77,23.77,0,0,0-.83-5.47.75.75,0,0,1,.5-1,5.56,5.56,0,0,1,1.2-.22h.06a.76.76,0,0,1,.81.84c-.16,1.54-.36,4.81.48,6.39a7,7,0,0,1,.88,5.35.51.51,0,0,0,.38.66.41.41,0,0,0,.22,0c1.53-.37,2.87-3.06,2.37-5.71a.58.58,0,0,1,1-.52,5.73,5.73,0,0,1,1.15,1.53A4.87,4.87,0,0,1,523.2,277.66Z"/><path class="cls-4" d="M426.71,169.44a5.15,5.15,0,0,1,1.6,2.64c-.93,1.17-1.52,3.49-2.06,5.6a12.31,12.31,0,0,1-1.44,3.95l-.71-1.11c-.05-.88-.08-3.16,0-5.41a27.45,27.45,0,0,1,.44-5.19A13.63,13.63,0,0,0,426.71,169.44Zm-1.79,13.29.89,1.19a2.13,2.13,0,0,0-.22.18l1.22,2.5.73-.18.7,2.57.3,0,.29.6c1.47-.32,5.4,2,8.63,3.9,2,1.15,3.71,2.12,4.42,2.15,2.11-1,1.93-4.76,1.93-4.76a31.76,31.76,0,0,0-5.26-2.21,59.13,59.13,0,0,0,6.78-1.08,23.93,23.93,0,0,0,5.28-1.74c-.45-3.67-3.32-7.48-3.32-7.48l-1.7-.07a17.29,17.29,0,0,0-3.55-4.23s-4.4,2.48-8.74,5.06c-1.86,1.11-3.71,2.24-5.19,3.19,1.73-1.78,3.84-4.23,6.33-6.53a35.05,35.05,0,0,1,3.23-2.68,7.79,7.79,0,0,0-.71-3.36c-2.2-1.17-3.49-.37-3.49-.37a42.38,42.38,0,0,0-4.06,5A39.14,39.14,0,0,0,424.92,182.73Z"/></g></g></svg>