<svg xmlns="http://www.w3.org/2000/svg" xmlns:xlink="http://www.w3.org/1999/xlink" viewBox="0 0 1366 81.21"><defs><style>.a{fill:url(#a);}</style><linearGradient id="a" x1="683" y1="388.47" x2="683" y2="-59.06" gradientUnits="userSpaceOnUse"><stop offset="0.13" stop-color="#005ba5"/><stop offset="0.35" stop-color="#0071ba"/><stop offset="0.77" stop-color="#0096de"/><stop offset="1" stop-color="#00a4ec"/></linearGradient></defs><path class="a" d="M273,406a129.17,129.17,0,0,1-34.71-4.63c-29.78-8.25-56.71-36.14-71.66-61.82-15.14,5.83-30.27,12.16-44.95,18.3C85.51,373,48.1,388.64,8.06,397.91a6.57,6.57,0,1,1-3-12.81c38.95-9,75.83-24.46,111.51-39.39,16.49-6.9,33.55-14,50.69-20.5a6.58,6.58,0,0,1,8.14,3.09C187.9,352,214,381,241.8,388.69c50.23,13.9,101.88-10.12,151.84-33.34,26.71-12.41,51.94-24.14,76.9-30.37a6.59,6.59,0,0,1,7.93,4.61c6.88,24.57,19.54,41.06,38.7,50.41,55.06,26.86,152.81-13.26,217.49-39.8,13.74-5.64,26.72-11,37.67-15a6.6,6.6,0,0,1,8.62,4.4c6.88,24.57,19.54,41.06,38.7,50.41,55.07,26.86,152.81-13.26,217.49-39.8,13.74-5.64,26.72-11,37.67-15a6.59,6.59,0,0,1,8.62,4.41c6.65,23.9,18.91,40,37.49,49.24,52.6,26.14,145.16-10.46,206.4-34.7,10.87-4.3,20.91-8.27,29.82-11.56a6.58,6.58,0,1,1,4.56,12.34c-8.83,3.25-18.78,7.19-29.53,11.45-67.21,26.59-159.24,63-217.11,34.26-19.93-9.91-34.09-26.93-42.19-50.64-9.27,3.58-19.76,7.88-30.74,12.39-70.84,29.08-167.88,68.91-228.25,39.44-20.54-10-35.14-27.44-43.48-51.83-9.27,3.57-19.77,7.88-30.74,12.39-70.87,29.08-167.92,68.88-228.26,39.44-20.71-10.11-35.39-27.74-43.69-52.46-21.89,6.24-44.6,16.8-68.53,27.92C358.1,386.39,315.91,406,273,406Z" transform="translate(0 -324.79)"/></svg>